Cambay Devanagari-Regular.ufo
<glyph name="exclam" format="1">
  <advance width="206"/>
  <unicode hex="0021"/>
  <outline>
    <contour>
      <point x="103" y="90" type="line"/>
      <point x="152" y="90" type="line"/>
      <point x="161" y="493" type="line"/>
      <point x="94" y="493" type="line"/>
    </contour>
    <contour>
      <point x="152" y="-39"/>
      <point x="166" y="-23"/>
      <point x="166" y="-1" type="curve" smooth="yes"/>
      <point x="166" y="21"/>
      <point x="153" y="37"/>
      <point x="128" y="37" type="curve" smooth="yes"/>
      <point x="103" y="37"/>
      <point x="90" y="21"/>
      <point x="90" y="-1" type="curve" smooth="yes"/>
      <point x="90" y="-23"/>
      <point x="103" y="-39"/>
      <point x="128" y="-39" type="curve" smooth="yes"/>
    </contour>
  </outline>
</glyph>
<glyph name="parenright" format="1">
  <advance width="269"/>
  <unicode hex="0029"/>
  <outline>
    <contour>
      <point x="144" y="169"/>
      <point x="135" y="111"/>
      <point x="118" y="50" type="curve" smooth="yes"/>
      <point x="100" y="-11"/>
      <point x="73" y="-69"/>
      <point x="40" y="-126" type="curve"/>
      <point x="84" y="-150" type="line"/>
      <point x="146" y="-50"/>
      <point x="206" y="78"/>
      <point x="206" y="224" type="curve" smooth="yes"/>
      <point x="206" y="370"/>
      <point x="146" y="498"/>
      <point x="84" y="598" type="curve"/>
      <point x="40" y="574" type="line"/>
      <point x="73" y="517"/>
      <point x="100" y="459"/>
      <point x="118" y="398" type="curve" smooth="yes"/>
      <point x="135" y="337"/>
      <point x="144" y="279"/>
      <point x="144" y="222" type="curve" smooth="yes"/>
    </contour>
  </outline>
</glyph>
<glyph name="one" format="1">
  <advance width="270"/>
  <unicode hex="0031"/>
  <outline>
    <contour>
      <point x="105" y="456" type="line"/>
      <point x="20" y="420" type="line"/>
      <point x="42" y="372" type="line"/>
      <point x="113" y="400" type="line"/>
      <point x="113" y="50" type="line"/>
      <point x="27" y="50" type="line"/>
      <point x="27" y="0" type="line"/>
      <point x="250" y="0" type="line"/>
      <point x="250" y="50" type="line"/>
      <point x="172" y="50" type="line"/>
      <point x="172" y="456" type="line"/>
    </contour>
  </outline>
</glyph>
<glyph name="three" format="1">
  <advance width="387"/>
  <unicode hex="0033"/>
  <outline>
    <contour>
      <point x="131" y="466"/>
      <point x="90" y="452"/>
      <point x="38" y="426" type="curve"/>
      <point x="59" y="373" type="line"/>
      <point x="106" y="394"/>
      <point x="140" y="407"/>
      <point x="181" y="407" type="curve" smooth="yes"/>
      <point x="228" y="407"/>
      <point x="261" y="394"/>
      <point x="261" y="342" type="curve" smooth="yes"/>
      <point x="261" y="298"/>
      <point x="227" y="265"/>
      <point x="131" y="261" type="curve"/>
      <point x="131" y="205" type="line"/>
      <point x="139" y="205" type="line" smooth="yes"/>
      <point x="229" y="205"/>
      <point x="283" y="187"/>
      <point x="283" y="127" type="curve" smooth="yes"/>
      <point x="283" y="82"/>
      <point x="253" y="54"/>
      <point x="181" y="54" type="curve" smooth="yes"/>
      <point x="138" y="54"/>
      <point x="98" y="69"/>
      <point x="51" y="91" type="curve"/>
      <point x="30" y="34" type="line"/>
      <point x="78" y="12"/>
      <point x="122" y="-5"/>
      <point x="186" y="-5" type="curve" smooth="yes"/>
      <point x="281" y="-5"/>
      <point x="347" y="41"/>
      <point x="347" y="124" type="curve" smooth="yes"/>
      <point x="347" y="190"/>
      <point x="306" y="220"/>
      <point x="255" y="236" type="curve"/>
      <point x="291" y="256"/>
      <point x="323" y="296"/>
      <point x="323" y="347" type="curve" smooth="yes"/>
      <point x="323" y="427"/>
      <point x="264" y="466"/>
      <point x="181" y="466" type="curve" smooth="yes"/>
    </contour>
  </outline>
</glyph>
<glyph name="five" format="1">
  <advance width="367"/>
  <unicode hex="0035"/>
  <outline>
    <contour>
      <point x="239" y="239"/>
      <point x="277" y="212"/>
      <point x="277" y="145" type="curve" smooth="yes"/>
      <point x="277" y="79"/>
      <point x="233" y="52"/>
      <point x="151" y="52" type="curve" smooth="yes"/>
      <point x="115" y="52"/>
      <point x="78" y="62"/>
      <point x="46" y="72" type="curve"/>
      <point x="30" y="15" type="line"/>
      <point x="70" y="1"/>
      <point x="117" y="-7"/>
      <point x="152" y="-7" type="curve" smooth="yes"/>
      <point x="245" y="-7"/>
      <point x="337" y="29"/>
      <point x="337" y="146" type="curve" smooth="yes"/>
      <point x="337" y="229"/>
      <point x="282" y="294"/>
      <point x="169" y="294" type="curve" smooth="yes"/>
      <point x="150" y="294"/>
      <point x="135" y="294"/>
      <point x="110" y="291" type="curve"/>
      <point x="110" y="403" type="line"/>
      <point x="310" y="403" type="line"/>
      <point x="310" y="456" type="line"/>
      <point x="50" y="456" type="line"/>
      <point x="50" y="237" type="line"/>
      <point x="65" y="232" type="line"/>
      <point x="93" y="236"/>
      <point x="118" y="239"/>
      <point x="145" y="239" type="curve" smooth="yes"/>
    </contour>
  </outline>
</glyph>
<glyph name="six" format="1">
  <advance width="385"/>
  <unicode hex="0036"/>
  <outline>
    <contour>
      <point x="113" y="202"/>
      <point x="141" y="226"/>
      <point x="206" y="226" type="curve" smooth="yes"/>
      <point x="277" y="226"/>
      <point x="298" y="188"/>
      <point x="298" y="141" type="curve" smooth="yes"/>
      <point x="298" y="92"/>
      <point x="269" y="51"/>
      <point x="206" y="51" type="curve" smooth="yes"/>
      <point x="132" y="51"/>
      <point x="86" y="110"/>
      <point x="93" y="218" type="curve" smooth="yes"/>
      <point x="93" y="221"/>
      <point x="96" y="224"/>
      <point x="96" y="227" type="curve"/>
      <point x="96" y="323"/>
      <point x="153" y="405"/>
      <point x="307" y="400" type="curve"/>
      <point x="301" y="455" type="line"/>
      <point x="137" y="455"/>
      <point x="35" y="372"/>
      <point x="35" y="197" type="curve" smooth="yes"/>
      <point x="35" y="87"/>
      <point x="84" y="-7"/>
      <point x="205" y="-7" type="curve" smooth="yes"/>
      <point x="310" y="-7"/>
      <point x="357" y="66"/>
      <point x="357" y="142" type="curve" smooth="yes"/>
      <point x="357" y="239"/>
      <point x="286" y="284"/>
      <point x="210" y="284" type="curve" smooth="yes"/>
      <point x="152" y="284"/>
      <point x="109" y="266"/>
      <point x="80" y="241" type="curve"/>
      <point x="83" y="177" type="line"/>
    </contour>
  </outline>
</glyph>
<glyph name="eight" format="1">
  <advance width="380"/>
  <unicode hex="0038"/>
  <outline>
    <contour>
      <point x="223" y="409"/>
      <point x="262" y="394"/>
      <point x="262" y="353" type="curve" smooth="yes"/>
      <point x="262" y="313"/>
      <point x="219" y="286"/>
      <point x="191" y="270" type="curve"/>
      <point x="142" y="295"/>
      <point x="117" y="317"/>
      <point x="117" y="354" type="curve" smooth="yes"/>
      <point x="117" y="386"/>
      <point x="151" y="409"/>
      <point x="187" y="409" type="curve" smooth="yes"/>
    </contour>
    <contour>
      <point x="130" y="48"/>
      <point x="91" y="84"/>
      <point x="91" y="128" type="curve" smooth="yes"/>
      <point x="91" y="181"/>
      <point x="141" y="211"/>
      <point x="188" y="224" type="curve"/>
      <point x="200" y="222"/>
      <point x="213" y="218"/>
      <point x="222" y="214" type="curve"/>
      <point x="269" y="193"/>
      <point x="288" y="169"/>
      <point x="288" y="124" type="curve" smooth="yes"/>
      <point x="288" y="81"/>
      <point x="249" y="48"/>
      <point x="192" y="48" type="curve" smooth="yes"/>
    </contour>
    <contour>
      <point x="116" y="465"/>
      <point x="56" y="422"/>
      <point x="56" y="360" type="curve"/>
      <point x="56" y="297"/>
      <point x="96" y="269"/>
      <point x="119" y="250" type="curve"/>
      <point x="75" y="229"/>
      <point x="32" y="184"/>
      <point x="32" y="124" type="curve" smooth="yes"/>
      <point x="32" y="98"/>
      <point x="38" y="74"/>
      <point x="52" y="54" type="curve" smooth="yes"/>
      <point x="80" y="16"/>
      <point x="121" y="-11"/>
      <point x="192" y="-11" type="curve" smooth="yes"/>
      <point x="288" y="-11"/>
      <point x="348" y="50"/>
      <point x="348" y="129" type="curve" smooth="yes"/>
      <point x="348" y="154"/>
      <point x="341" y="179"/>
      <point x="326" y="200" type="curve" smooth="yes"/>
      <point x="312" y="219"/>
      <point x="289" y="239"/>
      <point x="261" y="252" type="curve"/>
      <point x="285" y="272"/>
      <point x="324" y="306"/>
      <point x="324" y="358" type="curve"/>
      <point x="324" y="428"/>
      <point x="270" y="465"/>
      <point x="190" y="465" type="curve" smooth="yes"/>
    </contour>
  </outline>
</glyph>
<glyph name="greater" format="1">
  <advance width="428"/>
  <unicode hex="003E"/>
  <outline>
    <contour>
      <point x="388" y="208" type="line"/>
      <point x="48" y="42" type="line"/>
      <point x="48" y="104" type="line"/>
      <point x="319" y="240" type="line"/>
      <point x="48" y="377" type="line"/>
      <point x="48" y="439" type="line"/>
      <point x="388" y="272" type="line"/>
    </contour>
  </outline>
</glyph>
<glyph name="A" format="1">
  <advance width="488"/>
  <unicode hex="0041"/>
  <outline>
    <contour>
      <point x="399" y="0" type="line"/>
      <point x="347" y="161" type="line"/>
      <point x="137" y="161" type="line"/>
      <point x="85" y="0" type="line"/>
      <point x="16" y="0" type="line"/>
      <point x="204" y="550" type="line"/>
      <point x="284" y="550" type="line"/>
      <point x="473" y="0" type="line"/>
    </contour>
    <contour>
      <point x="156" y="218" type="line"/>
      <point x="328" y="218" type="line"/>
      <point x="241" y="481" type="line"/>
    </contour>
    <contour>
      <point x="244" y="550" type="move" name="top.cap"/>
    </contour>
  </outline>
</glyph>
<glyph name="B" format="1">
  <advance width="498"/>
  <unicode hex="0042"/>
  <outline>
    <contour>
      <point x="350" y="474"/>
      <point x="307" y="493"/>
      <point x="239" y="493" type="curve" smooth="yes"/>
      <point x="133" y="493" type="line"/>
      <point x="133" y="321" type="line"/>
      <point x="207" y="321" type="line" smooth="yes"/>
      <point x="302" y="321"/>
      <point x="350" y="352"/>
      <point x="350" y="415" type="curve" smooth="yes"/>
    </contour>
    <contour>
      <point x="393" y="206"/>
      <point x="371" y="232"/>
      <point x="339" y="247" type="curve" smooth="yes"/>
      <point x="307" y="262"/>
      <point x="266" y="266"/>
      <point x="229" y="266" type="curve" smooth="yes"/>
      <point x="133" y="266" type="line"/>
      <point x="133" y="58" type="line"/>
      <point x="256" y="58" type="line" smooth="yes"/>
      <point x="293" y="58"/>
      <point x="327" y="65"/>
      <point x="352" y="82" type="curve" smooth="yes"/>
      <point x="377" y="98"/>
      <point x="393" y="124"/>
      <point x="393" y="161" type="curve" smooth="yes"/>
    </contour>
    <contour>
      <point x="373" y="297"/>
      <point x="403" y="281"/>
      <point x="424" y="258" type="curve" smooth="yes"/>
      <point x="445" y="234"/>
      <point x="459" y="203"/>
      <point x="459" y="167" type="curve" smooth="yes"/>
      <point x="459" y="127"/>
      <point x="447" y="82"/>
      <point x="412" y="50" type="curve" smooth="yes"/>
      <point x="375" y="18"/>
      <point x="315" y="0"/>
      <point x="246" y="0" type="curve" smooth="yes"/>
      <point x="67" y="0" type="line"/>
      <point x="67" y="550" type="line"/>
      <point x="261" y="550" type="line" smooth="yes"/>
      <point x="306" y="550"/>
      <point x="347" y="539"/>
      <point x="374" y="515" type="curve" smooth="yes"/>
      <point x="400" y="492"/>
      <point x="413" y="460"/>
      <point x="413" y="419" type="curve" smooth="yes"/>
      <point x="413" y="372"/>
      <point x="388" y="325"/>
      <point x="341" y="302" type="curve"/>
    </contour>
  </outline>
</glyph>
<glyph name="E" format="1">
  <advance width="442"/>
  <unicode hex="0045"/>
  <outline>
    <contour>
      <point x="67" y="550" type="line"/>
      <point x="389" y="550" type="line"/>
      <point x="389" y="494" type="line"/>
      <point x="133" y="494" type="line"/>
      <point x="133" y="313" type="line"/>
      <point x="369" y="313" type="line"/>
      <point x="369" y="256" type="line"/>
      <point x="133" y="256" type="line"/>
      <point x="133" y="58" type="line"/>
      <point x="389" y="58" type="line"/>
      <point x="389" y="0" type="line"/>
      <point x="67" y="0" type="line"/>
    </contour>
    <contour>
      <point x="228" y="550" type="move" name="top.cap"/>
    </contour>
  </outline>
</glyph>
<glyph name="F" format="1">
  <advance width="424"/>
  <unicode hex="0046"/>
  <outline>
    <contour>
      <point x="133" y="313" type="line"/>
      <point x="364" y="313" type="line"/>
      <point x="364" y="256" type="line"/>
      <point x="133" y="256" type="line"/>
      <point x="133" y="0" type="line"/>
      <point x="67" y="0" type="line"/>
      <point x="67" y="550" type="line"/>
      <point x="387" y="550" type="line"/>
      <point x="387" y="494" type="line"/>
      <point x="133" y="494" type="line"/>
    </contour>
  </outline>
</glyph>
<glyph name="H" format="1">
  <advance width="573"/>
  <unicode hex="0048"/>
  <outline>
    <contour>
      <point x="505" y="550" type="line"/>
      <point x="505" y="0" type="line"/>
      <point x="439" y="0" type="line"/>
      <point x="439" y="247" type="line"/>
      <point x="133" y="247" type="line"/>
      <point x="133" y="0" type="line"/>
      <point x="67" y="0" type="line"/>
      <point x="67" y="550" type="line"/>
      <point x="133" y="550" type="line"/>
      <point x="133" y="307" type="line"/>
      <point x="439" y="307" type="line"/>
      <point x="439" y="550" type="line"/>
    </contour>
    <contour>
      <point x="286" y="550" type="move" name="top.cap"/>
    </contour>
  </outline>
</glyph>
<glyph name="I" format="1">
  <advance width="217"/>
  <unicode hex="0049"/>
  <outline>
    <contour>
      <point x="141" y="550" type="line"/>
      <point x="141" y="0" type="line"/>
      <point x="76" y="0" type="line"/>
      <point x="76" y="550" type="line"/>
    </contour>
    <contour>
      <point x="108" y="550" type="move" name="top.cap"/>
    </contour>
  </outline>
</glyph>
<glyph name="L" format="1">
  <advance width="400"/>
  <unicode hex="004C"/>
  <outline>
    <contour>
      <point x="133" y="550" type="line"/>
      <point x="133" y="58" type="line"/>
      <point x="380" y="58" type="line"/>
      <point x="380" y="0" type="line"/>
      <point x="67" y="0" type="line"/>
      <point x="67" y="550" type="line"/>
    </contour>
    <contour>
      <point x="176" y="550" type="move" name="top.cap"/>
    </contour>
    <contour>
      <point x="223" y="0" type="move" name="bottom"/>
    </contour>
  </outline>
</glyph>
<glyph name="M" format="1">
  <advance width="672"/>
  <unicode hex="004D"/>
  <outline>
    <contour>
      <point x="161" y="550" type="line"/>
      <point x="336" y="217" type="line"/>
      <point x="517" y="550" type="line"/>
      <point x="604" y="550" type="line"/>
      <point x="604" y="0" type="line"/>
      <point x="538" y="0" type="line"/>
      <point x="538" y="457" type="line"/>
      <point x="369" y="158" type="line"/>
      <point x="302" y="158" type="line"/>
      <point x="133" y="457" type="line"/>
      <point x="133" y="0" type="line"/>
      <point x="67" y="0" type="line"/>
      <point x="67" y="550" type="line"/>
    </contour>
  </outline>
</glyph>
<glyph name="P" format="1">
  <advance width="465"/>
  <unicode hex="0050"/>
  <outline>
    <contour>
      <point x="184" y="286"/>
      <point x="160" y="287"/>
      <point x="133" y="289" type="curve"/>
      <point x="133" y="494" type="line"/>
      <point x="205" y="494" type="line" smooth="yes"/>
      <point x="240" y="494"/>
      <point x="264" y="493"/>
      <point x="275" y="490" type="curve"/>
      <point x="329" y="485"/>
      <point x="367" y="452"/>
      <point x="367" y="392" type="curve" smooth="yes"/>
      <point x="367" y="296"/>
      <point x="294" y="286"/>
      <point x="205" y="286" type="curve" smooth="yes"/>
    </contour>
    <contour>
      <point x="433" y="465"/>
      <point x="395" y="519"/>
      <point x="331" y="541" type="curve"/>
      <point x="316" y="545"/>
      <point x="300" y="550"/>
      <point x="240" y="550" type="curve" smooth="yes"/>
      <point x="67" y="550" type="line"/>
      <point x="67" y="0" type="line"/>
      <point x="133" y="0" type="line"/>
      <point x="133" y="230" type="line"/>
      <point x="157" y="228"/>
      <point x="179" y="228"/>
      <point x="199" y="228" type="curve" smooth="yes"/>
      <point x="245" y="228"/>
      <point x="301" y="233"/>
      <point x="331" y="243" type="curve" smooth="yes"/>
      <point x="389" y="262"/>
      <point x="430" y="314"/>
      <point x="433" y="388" type="curve"/>
    </contour>
  </outline>
</glyph>
<glyph name="X" format="1">
  <advance width="493"/>
  <unicode hex="0058"/>
  <outline>
    <contour>
      <point x="463" y="550" type="line"/>
      <point x="288" y="289" type="line"/>
      <point x="484" y="0" type="line"/>
      <point x="399" y="0" type="line"/>
      <point x="244" y="232" type="line"/>
      <point x="89" y="0" type="line"/>
      <point x="9" y="0" type="line"/>
      <point x="207" y="288" type="line"/>
      <point x="30" y="550" type="line"/>
      <point x="111" y="550" type="line"/>
      <point x="251" y="344" type="line"/>
      <point x="388" y="550" type="line"/>
    </contour>
  </outline>
</glyph>
<glyph name="Z" format="1">
  <advance width="475"/>
  <unicode hex="005A"/>
  <outline>
    <contour>
      <point x="437" y="550" type="line"/>
      <point x="437" y="509" type="line"/>
      <point x="119" y="58" type="line"/>
      <point x="439" y="58" type="line"/>
      <point x="439" y="0" type="line"/>
      <point x="36" y="0" type="line"/>
      <point x="36" y="43" type="line"/>
      <point x="352" y="494" type="line"/>
      <point x="47" y="494" type="line"/>
      <point x="47" y="550" type="line"/>
    </contour>
    <contour>
      <point x="242" y="550" type="move" name="top.cap"/>
    </contour>
  </outline>
</glyph>
<glyph name="bracketleft" format="1">
  <advance width="304"/>
  <unicode hex="005B"/>
  <outline>
    <contour>
      <point x="241" y="-89" type="line"/>
      <point x="119" y="-89" type="line"/>
      <point x="119" y="536" type="line"/>
      <point x="241" y="536" type="line"/>
      <point x="241" y="586" type="line"/>
      <point x="63" y="586" type="line"/>
      <point x="63" y="-139" type="line"/>
      <point x="241" y="-139" type="line"/>
    </contour>
  </outline>
</glyph>
<glyph name="bracketright" format="1">
  <advance width="304"/>
  <unicode hex="005D"/>
  <outline>
    <contour>
      <point x="241" y="586" type="line"/>
      <point x="63" y="586" type="line"/>
      <point x="63" y="536" type="line"/>
      <point x="185" y="536" type="line"/>
      <point x="185" y="-89" type="line"/>
      <point x="63" y="-89" type="line"/>
      <point x="63" y="-139" type="line"/>
      <point x="241" y="-139" type="line"/>
    </contour>
  </outline>
</glyph>
<glyph name="a" format="1">
  <advance width="393"/>
  <unicode hex="0061"/>
  <outline>
    <contour>
      <point x="228" y="333"/>
      <point x="257" y="318"/>
      <point x="268" y="288" type="curve"/>
      <point x="273" y="276"/>
      <point x="276" y="256"/>
      <point x="276" y="228" type="curve" smooth="yes"/>
      <point x="276" y="225" type="line"/>
      <point x="217" y="224"/>
      <point x="171" y="220"/>
      <point x="133" y="210" type="curve" smooth="yes"/>
      <point x="83" y="198"/>
      <point x="38" y="159"/>
      <point x="38" y="96" type="curve" smooth="yes"/>
      <point x="38" y="33"/>
      <point x="93" y="-10"/>
      <point x="161" y="-10" type="curve" smooth="yes"/>
      <point x="204" y="-10"/>
      <point x="242" y="7"/>
      <point x="278" y="36" type="curve"/>
      <point x="292" y="0" type="line"/>
      <point x="341" y="0" type="line"/>
      <point x="341" y="248" type="line" smooth="yes"/>
      <point x="341" y="312"/>
      <point x="328" y="339"/>
      <point x="288" y="368" type="curve"/>
      <point x="266" y="381"/>
      <point x="232" y="388"/>
      <point x="189" y="388" type="curve" smooth="yes"/>
      <point x="148" y="388"/>
      <point x="105" y="379"/>
      <point x="64" y="365" type="curve"/>
      <point x="77" y="317" type="line"/>
      <point x="109" y="327"/>
      <point x="153" y="333"/>
      <point x="180" y="333" type="curve" smooth="yes"/>
    </contour>
    <contour>
      <point x="136" y="42"/>
      <point x="101" y="62"/>
      <point x="101" y="103" type="curve" smooth="yes"/>
      <point x="101" y="141"/>
      <point x="127" y="160"/>
      <point x="174" y="170" type="curve" smooth="yes"/>
      <point x="189" y="173"/>
      <point x="224" y="177"/>
      <point x="276" y="178" type="curve"/>
      <point x="276" y="86" type="line"/>
      <point x="248" y="60"/>
      <point x="217" y="42"/>
      <point x="170" y="42" type="curve" smooth="yes"/>
    </contour>
    <contour>
      <point x="189" y="384" type="move" name="top"/>
    </contour>
  </outline>
</glyph>
<glyph name="e" format="1">
  <advance width="404"/>
  <unicode hex="0065"/>
  <outline>
    <contour>
      <point x="155" y="389"/>
      <point x="112" y="370"/>
      <point x="81" y="330" type="curve" smooth="yes"/>
      <point x="51" y="290"/>
      <point x="38" y="242"/>
      <point x="38" y="185" type="curve" smooth="yes"/>
      <point x="38" y="62"/>
      <point x="105" y="-8"/>
      <point x="229" y="-8" type="curve" smooth="yes"/>
      <point x="272" y="-8"/>
      <point x="314" y="0"/>
      <point x="352" y="13" type="curve"/>
      <point x="340" y="61" type="line"/>
      <point x="308" y="50"/>
      <point x="276" y="46"/>
      <point x="247" y="46" type="curve" smooth="yes"/>
      <point x="199" y="46"/>
      <point x="161" y="58"/>
      <point x="138" y="81" type="curve"/>
      <point x="117" y="105"/>
      <point x="101" y="137"/>
      <point x="101" y="172" type="curve"/>
      <point x="364" y="172" type="line"/>
      <point x="368" y="180" type="line"/>
      <point x="368" y="215" type="line" smooth="yes"/>
      <point x="368" y="325"/>
      <point x="312" y="389"/>
      <point x="210" y="389" type="curve" smooth="yes"/>
    </contour>
    <contour>
      <point x="102" y="224" type="line"/>
      <point x="109" y="284"/>
      <point x="142" y="338"/>
      <point x="217" y="338" type="curve" smooth="yes"/>
      <point x="276" y="338"/>
      <point x="302" y="286"/>
      <point x="302" y="224" type="curve"/>
    </contour>
    <contour>
      <point x="210" y="384" type="move" name="top"/>
    </contour>
  </outline>
</glyph>
<glyph name="f" format="1">
  <advance width="288"/>
  <unicode hex="0066"/>
  <outline>
    <contour>
      <point x="248" y="503"/>
      <point x="268" y="498"/>
      <point x="293" y="491" type="curve"/>
      <point x="304" y="539" type="line"/>
      <point x="276" y="547"/>
      <point x="244" y="554"/>
      <point x="211" y="554" type="curve" smooth="yes"/>
      <point x="157" y="554"/>
      <point x="118" y="534"/>
      <point x="96" y="495" type="curve" smooth="yes"/>
      <point x="87" y="479"/>
      <point x="83" y="455"/>
      <point x="83" y="423" type="curve" smooth="yes"/>
      <point x="83" y="384" type="line"/>
      <point x="28" y="384" type="line"/>
      <point x="28" y="333" type="line"/>
      <point x="85" y="333" type="line"/>
      <point x="85" y="0" type="line"/>
      <point x="150" y="0" type="line"/>
      <point x="150" y="333" type="line"/>
      <point x="276" y="333" type="line"/>
      <point x="276" y="384" type="line"/>
      <point x="149" y="384" type="line"/>
      <point x="149" y="419" type="line" smooth="yes"/>
      <point x="149" y="429"/>
      <point x="150" y="440"/>
      <point x="151" y="446" type="curve" smooth="yes"/>
      <point x="156" y="478"/>
      <point x="186" y="503"/>
      <point x="231" y="503" type="curve" smooth="yes"/>
    </contour>
  </outline>
</glyph>
<glyph name="i" format="1">
  <advance width="181"/>
  <unicode hex="0069"/>
  <outline>
    <contour>
      <point x="58" y="0" type="line"/>
      <point x="123" y="0" type="line"/>
      <point x="123" y="384" type="line"/>
      <point x="58" y="384" type="line"/>
    </contour>
    <contour>
      <point x="115" y="458"/>
      <point x="132" y="478"/>
      <point x="132" y="500" type="curve" smooth="yes"/>
      <point x="132" y="521"/>
      <point x="115" y="541"/>
      <point x="91" y="541" type="curve" smooth="yes"/>
      <point x="66" y="541"/>
      <point x="49" y="521"/>
      <point x="49" y="500" type="curve" smooth="yes"/>
      <point x="49" y="478"/>
      <point x="66" y="458"/>
      <point x="91" y="458" type="curve" smooth="yes"/>
    </contour>
  </outline>
</glyph>
<glyph name="k" format="1">
  <advance width="400"/>
  <unicode hex="006B"/>
  <outline>
    <contour>
      <point x="60" y="0" type="line"/>
      <point x="125" y="0" type="line"/>
      <point x="125" y="532" type="line"/>
      <point x="60" y="532" type="line"/>
    </contour>
    <contour>
      <point x="132" y="212" type="line"/>
      <point x="305" y="0" type="line"/>
      <point x="385" y="0" type="line"/>
      <point x="209" y="212" type="line"/>
      <point x="376" y="384" type="line"/>
      <point x="300" y="384" type="line"/>
    </contour>
    <contour>
      <point x="210" y="0" type="move" name="bottom"/>
    </contour>
  </outline>
</glyph>
<glyph name="m" format="1">
  <advance width="634"/>
  <unicode hex="006D"/>
  <outline>
    <contour>
      <point x="515" y="0" type="line"/>
      <point x="582" y="0" type="line"/>
      <point x="582" y="260" type="line" smooth="yes"/>
      <point x="582" y="336"/>
      <point x="541" y="390"/>
      <point x="460" y="390" type="curve" smooth="yes"/>
      <point x="408" y="390"/>
      <point x="370" y="369"/>
      <point x="331" y="341" type="curve"/>
      <point x="311" y="370"/>
      <point x="276" y="390"/>
      <point x="231" y="390" type="curve" smooth="yes"/>
      <point x="215" y="390"/>
      <point x="197" y="389"/>
      <point x="178" y="384" type="curve" smooth="yes"/>
      <point x="161" y="379"/>
      <point x="141" y="370"/>
      <point x="115" y="352" type="curve"/>
      <point x="101" y="384" type="line"/>
      <point x="56" y="384" type="line"/>
      <point x="56" y="0" type="line"/>
      <point x="121" y="0" type="line"/>
      <point x="121" y="309" type="line"/>
      <point x="156" y="328"/>
      <point x="186" y="338"/>
      <point x="210" y="338" type="curve" smooth="yes"/>
      <point x="264" y="338"/>
      <point x="286" y="302"/>
      <point x="286" y="244" type="curve" smooth="yes"/>
      <point x="286" y="0" type="line"/>
      <point x="351" y="0" type="line"/>
      <point x="351" y="260" type="line" smooth="yes"/>
      <point x="351" y="278"/>
      <point x="351" y="293"/>
      <point x="348" y="304" type="curve"/>
      <point x="385" y="327"/>
      <point x="413" y="338"/>
      <point x="440" y="338" type="curve" smooth="yes"/>
      <point x="494" y="338"/>
      <point x="515" y="302"/>
      <point x="515" y="244" type="curve" smooth="yes"/>
    </contour>
  </outline>
</glyph>
<glyph name="p" format="1">
  <advance width="440"/>
  <unicode hex="0070"/>
  <outline>
    <contour>
      <point x="293" y="335"/>
      <point x="334" y="276"/>
      <point x="334" y="189" type="curve" smooth="yes"/>
      <point x="334" y="105"/>
      <point x="291" y="42"/>
      <point x="208" y="42" type="curve" smooth="yes"/>
      <point x="180" y="42"/>
      <point x="151" y="47"/>
      <point x="123" y="60" type="curve"/>
      <point x="123" y="312" type="line"/>
      <point x="150" y="328"/>
      <point x="171" y="335"/>
      <point x="209" y="335" type="curve" smooth="yes"/>
    </contour>
    <contour>
      <point x="123" y="9" type="line"/>
      <point x="153" y="-4"/>
      <point x="185" y="-10"/>
      <point x="216" y="-10" type="curve" smooth="yes"/>
      <point x="268" y="-10"/>
      <point x="312" y="9"/>
      <point x="347" y="42" type="curve" smooth="yes"/>
      <point x="384" y="78"/>
      <point x="403" y="129"/>
      <point x="403" y="196" type="curve" smooth="yes"/>
      <point x="403" y="275"/>
      <point x="374" y="331"/>
      <point x="320" y="365" type="curve" smooth="yes"/>
      <point x="294" y="381"/>
      <point x="261" y="389"/>
      <point x="225" y="389" type="curve" smooth="yes"/>
      <point x="186" y="389"/>
      <point x="150" y="378"/>
      <point x="117" y="355" type="curve"/>
      <point x="104" y="384" type="line"/>
      <point x="58" y="384" type="line"/>
      <point x="58" y="-208" type="line"/>
      <point x="123" y="-208" type="line"/>
    </contour>
  </outline>
</glyph>
<glyph name="r" format="1">
  <advance width="293"/>
  <unicode hex="0072"/>
  <outline>
    <contour>
      <point x="185" y="389"/>
      <point x="150" y="376"/>
      <point x="117" y="351" type="curve"/>
      <point x="103" y="384" type="line"/>
      <point x="56" y="384" type="line"/>
      <point x="56" y="0" type="line"/>
      <point x="121" y="0" type="line"/>
      <point x="121" y="304" type="line"/>
      <point x="149" y="323"/>
      <point x="178" y="332"/>
      <point x="204" y="332" type="curve" smooth="yes"/>
      <point x="225" y="332"/>
      <point x="244" y="328"/>
      <point x="261" y="320" type="curve"/>
      <point x="284" y="378" type="line"/>
      <point x="267" y="386"/>
      <point x="252" y="389"/>
      <point x="222" y="389" type="curve" smooth="yes"/>
    </contour>
    <contour>
      <point x="162" y="384" type="move" name="top"/>
    </contour>
    <contour>
      <point x="84" y="0" type="move" name="bottom"/>
    </contour>
  </outline>
</glyph>
<glyph name="u" format="1">
  <advance width="430"/>
  <unicode hex="0075"/>
  <outline>
    <contour>
      <point x="121" y="384" type="line"/>
      <point x="56" y="384" type="line"/>
      <point x="56" y="121" type="line" smooth="yes"/>
      <point x="56" y="41"/>
      <point x="99" y="-10"/>
      <point x="181" y="-10" type="curve" smooth="yes"/>
      <point x="222" y="-10"/>
      <point x="268" y="3"/>
      <point x="316" y="28" type="curve"/>
      <point x="330" y="0" type="line"/>
      <point x="375" y="0" type="line"/>
      <point x="375" y="384" type="line"/>
      <point x="310" y="384" type="line"/>
      <point x="310" y="73" type="line"/>
      <point x="271" y="55"/>
      <point x="236" y="46"/>
      <point x="205" y="46" type="curve" smooth="yes"/>
      <point x="142" y="46"/>
      <point x="121" y="73"/>
      <point x="121" y="137" type="curve" smooth="yes"/>
    </contour>
    <contour>
      <point x="216" y="384" type="move" name="top"/>
    </contour>
  </outline>
</glyph>
<glyph name="y" format="1">
  <advance width="412"/>
  <unicode hex="0079"/>
  <outline>
    <contour>
      <point x="208" y="66" type="line"/>
      <point x="90" y="384" type="line"/>
      <point x="22" y="384" type="line"/>
      <point x="176" y="-20" type="line"/>
      <point x="102" y="-206" type="line"/>
      <point x="169" y="-206" type="line"/>
      <point x="388" y="384" type="line"/>
      <point x="326" y="384" type="line"/>
    </contour>
    <contour>
      <point x="202" y="384" type="move" name="top"/>
    </contour>
  </outline>
</glyph>
<glyph name="z" format="1">
  <advance width="385"/>
  <unicode hex="007A"/>
  <outline>
    <contour>
      <point x="46" y="333" type="line"/>
      <point x="252" y="333" type="line"/>
      <point x="46" y="33" type="line"/>
      <point x="46" y="0" type="line"/>
      <point x="348" y="0" type="line"/>
      <point x="348" y="49" type="line"/>
      <point x="129" y="49" type="line"/>
      <point x="337" y="350" type="line"/>
      <point x="337" y="384" type="line"/>
      <point x="46" y="384" type="line"/>
    </contour>
    <contour>
      <point x="192" y="384" type="move" name="top"/>
    </contour>
  </outline>
</glyph>
<glyph name="ordfeminine" format="1">
  <advance width="264"/>
  <unicode hex="00AA"/>
  <outline>
    <contour>
      <point x="104" y="505"/>
      <point x="80" y="499"/>
      <point x="58" y="492" type="curve"/>
      <point x="48" y="526" type="line"/>
      <point x="72" y="535"/>
      <point x="107" y="544"/>
      <point x="130" y="544" type="curve" smooth="yes"/>
      <point x="157" y="544"/>
      <point x="175" y="538"/>
      <point x="188" y="530" type="curve"/>
      <point x="211" y="514"/>
      <point x="224" y="491"/>
      <point x="224" y="455" type="curve" smooth="yes"/>
      <point x="224" y="312" type="line"/>
      <point x="188" y="312" type="line"/>
      <point x="180" y="332" type="line"/>
      <point x="157" y="315"/>
      <point x="134" y="306"/>
      <point x="111" y="306" type="curve" smooth="yes"/>
      <point x="64" y="306"/>
      <point x="40" y="338"/>
      <point x="40" y="375" type="curve" smooth="yes"/>
      <point x="40" y="411"/>
      <point x="60" y="429"/>
      <point x="86" y="438" type="curve" smooth="yes"/>
      <point x="112" y="447"/>
      <point x="145" y="447"/>
      <point x="178" y="446" type="curve"/>
      <point x="178" y="447" type="line" smooth="yes"/>
      <point x="178" y="484"/>
      <point x="167" y="505"/>
      <point x="122" y="505" type="curve" smooth="yes"/>
    </contour>
    <contour>
      <point x="144" y="344"/>
      <point x="162" y="354"/>
      <point x="178" y="370" type="curve"/>
      <point x="178" y="411" type="line"/>
      <point x="147" y="411" type="line"/>
      <point x="115" y="411"/>
      <point x="85" y="408"/>
      <point x="85" y="379" type="curve" smooth="yes"/>
      <point x="85" y="359"/>
      <point x="97" y="344"/>
      <point x="117" y="344" type="curve" smooth="yes"/>
    </contour>
  </outline>
</glyph>
<glyph name="macron" format="1">
  <advance width="217"/>
  <unicode hex="00AF"/>
  <outline>
    <contour>
      <point x="5" y="466" type="line"/>
      <point x="212" y="466" type="line"/>
      <point x="212" y="518" type="line"/>
      <point x="5" y="518" type="line"/>
    </contour>
    <contour>
      <point x="110" y="384" type="move" name="_top"/>
    </contour>
  </outline>
</glyph>
<glyph name="twosuperior" format="1">
  <advance width="299"/>
  <unicode hex="00B2"/>
  <outline>
    <contour>
      <point x="47" y="563" type="line"/>
      <point x="79" y="576"/>
      <point x="110" y="587"/>
      <point x="145" y="587" type="curve" smooth="yes"/>
      <point x="172" y="587"/>
      <point x="200" y="581"/>
      <point x="220" y="565" type="curve" smooth="yes"/>
      <point x="239" y="549"/>
      <point x="252" y="524"/>
      <point x="252" y="491" type="curve" smooth="yes"/>
      <point x="252" y="468"/>
      <point x="245" y="448"/>
      <point x="227" y="422" type="curve" smooth="yes"/>
      <point x="209" y="396"/>
      <point x="178" y="365"/>
      <point x="137" y="324" type="curve"/>
      <point x="251" y="324" type="line"/>
      <point x="251" y="275" type="line"/>
      <point x="47" y="275" type="line"/>
      <point x="47" y="307" type="line"/>
      <point x="130" y="384" type="line"/>
      <point x="173" y="427"/>
      <point x="199" y="458"/>
      <point x="199" y="489" type="curve" smooth="yes"/>
      <point x="199" y="514"/>
      <point x="187" y="538"/>
      <point x="142" y="538" type="curve" smooth="yes"/>
      <point x="117" y="538"/>
      <point x="89" y="527"/>
      <point x="62" y="516" type="curve"/>
    </contour>
  </outline>
</glyph>
<glyph name="threesuperior" format="1">
  <advance width="292"/>
  <unicode hex="00B3"/>
  <outline>
    <contour>
      <point x="190" y="591"/>
      <point x="232" y="562"/>
      <point x="232" y="504" type="curve" smooth="yes"/>
      <point x="232" y="478"/>
      <point x="224" y="456"/>
      <point x="196" y="435" type="curve"/>
      <point x="228" y="418"/>
      <point x="244" y="400"/>
      <point x="244" y="353" type="curve" smooth="yes"/>
      <point x="244" y="306"/>
      <point x="207" y="268"/>
      <point x="137" y="268" type="curve" smooth="yes"/>
      <point x="97" y="268"/>
      <point x="59" y="278"/>
      <point x="39" y="286" type="curve"/>
      <point x="52" y="329" type="line"/>
      <point x="85" y="319"/>
      <point x="110" y="314"/>
      <point x="127" y="314" type="curve" smooth="yes"/>
      <point x="178" y="314"/>
      <point x="196" y="331"/>
      <point x="196" y="364" type="curve" smooth="yes"/>
      <point x="196" y="400"/>
      <point x="168" y="411"/>
      <point x="112" y="411" type="curve" smooth="yes"/>
      <point x="101" y="411" type="line"/>
      <point x="101" y="453" type="line"/>
      <point x="108" y="453" type="line" smooth="yes"/>
      <point x="171" y="453"/>
      <point x="184" y="477"/>
      <point x="184" y="500" type="curve" smooth="yes"/>
      <point x="184" y="535"/>
      <point x="163" y="545"/>
      <point x="133" y="545" type="curve" smooth="yes"/>
      <point x="116" y="545"/>
      <point x="90" y="540"/>
      <point x="62" y="527" type="curve"/>
      <point x="44" y="570" type="line"/>
      <point x="77" y="583"/>
      <point x="107" y="591"/>
      <point x="135" y="591" type="curve" smooth="yes"/>
    </contour>
  </outline>
</glyph>
<glyph name="cedilla" format="1">
  <advance width="194"/>
  <unicode hex="00B8"/>
  <outline>
    <contour>
      <point x="88" y="-160"/>
      <point x="64" y="-155"/>
      <point x="31" y="-145" type="curve" smooth="yes"/>
      <point x="20" y="-142" type="line"/>
      <point x="5" y="-188" type="line"/>
      <point x="18" y="-190" type="line"/>
      <point x="48" y="-199"/>
      <point x="73" y="-207"/>
      <point x="100" y="-207" type="curve" smooth="yes"/>
      <point x="159" y="-207"/>
      <point x="189" y="-178"/>
      <point x="189" y="-136" type="curve" smooth="yes"/>
      <point x="189" y="-82"/>
      <point x="151" y="-64"/>
      <point x="117" y="-53" type="curve"/>
      <point x="101" y="-49" type="line"/>
      <point x="117" y="11" type="line"/>
      <point x="68" y="11" type="line"/>
      <point x="44" y="-81" type="line"/>
      <point x="99" y="-96" type="line"/>
      <point x="117" y="-100"/>
      <point x="139" y="-109"/>
      <point x="139" y="-131" type="curve" smooth="yes"/>
      <point x="139" y="-153"/>
      <point x="121" y="-162"/>
      <point x="99" y="-161" type="curve"/>
    </contour>
    <contour>
      <point x="90" y="0" type="move" name="_bottom"/>
    </contour>
  </outline>
</glyph>
<glyph name="guillemotright" format="1">
  <advance width="363"/>
  <unicode hex="00BB"/>
  <outline>
    <contour>
      <point x="190" y="241" type="line"/>
      <point x="92" y="100" type="line"/>
      <point x="20" y="100" type="line"/>
      <point x="126" y="241" type="line"/>
      <point x="20" y="384" type="line"/>
      <point x="92" y="384" type="line"/>
    </contour>
    <contour>
      <point x="334" y="241" type="line"/>
      <point x="237" y="100" type="line"/>
      <point x="165" y="100" type="line"/>
      <point x="270" y="241" type="line"/>
      <point x="165" y="384" type="line"/>
      <point x="237" y="384" type="line"/>
    </contour>
  </outline>
</glyph>
<glyph name="onehalf" format="1">
  <advance width="690"/>
  <unicode hex="00BD"/>
  <outline>
    <contour>
      <point x="520" y="550" type="line"/>
      <point x="170" y="0" type="line"/>
      <point x="108" y="0" type="line"/>
      <point x="459" y="550" type="line"/>
    </contour>
    <contour>
      <point x="175" y="239" type="line"/>
      <point x="122" y="239" type="line"/>
      <point x="122" y="498" type="line"/>
      <point x="66" y="483" type="line"/>
      <point x="47" y="523" type="line"/>
      <point x="131" y="550" type="line"/>
      <point x="175" y="550" type="line"/>
    </contour>
    <contour>
      <point x="425" y="288" type="line"/>
      <point x="457" y="301"/>
      <point x="488" y="312"/>
      <point x="523" y="312" type="curve" smooth="yes"/>
      <point x="550" y="312"/>
      <point x="578" y="306"/>
      <point x="598" y="290" type="curve" smooth="yes"/>
      <point x="617" y="274"/>
      <point x="630" y="249"/>
      <point x="630" y="216" type="curve" smooth="yes"/>
      <point x="630" y="193"/>
      <point x="623" y="173"/>
      <point x="605" y="147" type="curve" smooth="yes"/>
      <point x="587" y="121"/>
      <point x="556" y="90"/>
      <point x="515" y="49" type="curve"/>
      <point x="629" y="49" type="line"/>
      <point x="629" y="0" type="line"/>
      <point x="425" y="0" type="line"/>
      <point x="425" y="32" type="line"/>
      <point x="508" y="109" type="line"/>
      <point x="551" y="152"/>
      <point x="577" y="183"/>
      <point x="577" y="214" type="curve" smooth="yes"/>
      <point x="577" y="239"/>
      <point x="565" y="263"/>
      <point x="520" y="263" type="curve" smooth="yes"/>
      <point x="495" y="263"/>
      <point x="467" y="252"/>
      <point x="440" y="241" type="curve"/>
    </contour>
  </outline>
</glyph>
<glyph name="AE" format="1">
  <advance width="685"/>
  <unicode hex="00C6"/>
  <outline>
    <contour>
      <point x="231" y="550" type="line"/>
      <point x="16" y="0" type="line"/>
      <point x="80" y="0" type="line"/>
      <point x="141" y="161" type="line"/>
      <point x="333" y="161" type="line"/>
      <point x="333" y="0" type="line"/>
      <point x="634" y="0" type="line"/>
      <point x="634" y="58" type="line"/>
      <point x="394" y="58" type="line"/>
      <point x="394" y="256" type="line"/>
      <point x="613" y="256" type="line"/>
      <point x="613" y="313" type="line"/>
      <point x="394" y="313" type="line"/>
      <point x="394" y="494" type="line"/>
      <point x="634" y="494" type="line"/>
      <point x="634" y="550" type="line"/>
    </contour>
    <contour>
      <point x="164" y="218" type="line"/>
      <point x="270" y="494" type="line"/>
      <point x="333" y="494" type="line"/>
      <point x="333" y="218" type="line"/>
    </contour>
  </outline>
</glyph>
<glyph name="ae" format="1">
  <advance width="629"/>
  <unicode hex="00E6"/>
  <outline>
    <contour>
      <point x="384" y="389"/>
      <point x="351" y="370"/>
      <point x="319" y="333" type="curve"/>
      <point x="313" y="346"/>
      <point x="304" y="356"/>
      <point x="288" y="368" type="curve"/>
      <point x="266" y="381"/>
      <point x="232" y="388"/>
      <point x="189" y="388" type="curve" smooth="yes"/>
      <point x="148" y="388"/>
      <point x="105" y="379"/>
      <point x="64" y="365" type="curve"/>
      <point x="77" y="317" type="line"/>
      <point x="109" y="327"/>
      <point x="153" y="333"/>
      <point x="180" y="333" type="curve" smooth="yes"/>
      <point x="228" y="333"/>
      <point x="257" y="318"/>
      <point x="268" y="288" type="curve"/>
      <point x="273" y="276"/>
      <point x="276" y="256"/>
      <point x="276" y="228" type="curve" smooth="yes"/>
      <point x="276" y="225" type="line"/>
      <point x="217" y="225"/>
      <point x="169" y="218"/>
      <point x="131" y="208" type="curve" smooth="yes"/>
      <point x="81" y="196"/>
      <point x="38" y="159"/>
      <point x="38" y="96" type="curve" smooth="yes"/>
      <point x="38" y="33"/>
      <point x="93" y="-10"/>
      <point x="161" y="-10" type="curve" smooth="yes"/>
      <point x="225" y="-10"/>
      <point x="275" y="14"/>
      <point x="308" y="58" type="curve"/>
      <point x="335" y="14"/>
      <point x="385" y="-8"/>
      <point x="456" y="-8" type="curve" smooth="yes"/>
      <point x="498" y="-8"/>
      <point x="540" y="0"/>
      <point x="579" y="13" type="curve"/>
      <point x="567" y="61" type="line"/>
      <point x="534" y="50"/>
      <point x="503" y="46"/>
      <point x="474" y="46" type="curve" smooth="yes"/>
      <point x="425" y="46"/>
      <point x="395" y="58"/>
      <point x="372" y="81" type="curve"/>
      <point x="351" y="105"/>
      <point x="335" y="137"/>
      <point x="335" y="172" type="curve"/>
      <point x="589" y="172" type="line"/>
      <point x="594" y="180" type="line"/>
      <point x="594" y="215" type="line" smooth="yes"/>
      <point x="594" y="325"/>
      <point x="538" y="389"/>
      <point x="437" y="389" type="curve" smooth="yes"/>
    </contour>
    <contour>
      <point x="121" y="42"/>
      <point x="101" y="67"/>
      <point x="101" y="103" type="curve" smooth="yes"/>
      <point x="101" y="180"/>
      <point x="214" y="177"/>
      <point x="276" y="178" type="curve"/>
      <point x="276" y="86" type="line"/>
      <point x="248" y="60"/>
      <point x="217" y="42"/>
      <point x="170" y="42" type="curve" smooth="yes"/>
    </contour>
    <contour>
      <point x="336" y="224" type="line"/>
      <point x="344" y="284"/>
      <point x="369" y="338"/>
      <point x="443" y="338" type="curve" smooth="yes"/>
      <point x="503" y="338"/>
      <point x="529" y="286"/>
      <point x="529" y="224" type="curve"/>
    </contour>
  </outline>
</glyph>
<glyph name="oslash" format="1">
  <advance width="456"/>
  <unicode hex="00F8"/>
  <outline>
    <contour>
      <point x="344" y="-9"/>
      <point x="412" y="72"/>
      <point x="412" y="191" type="curve" smooth="yes"/>
      <point x="412" y="238"/>
      <point x="403" y="279"/>
      <point x="384" y="311" type="curve"/>
      <point x="427" y="355" type="line"/>
      <point x="390" y="393" type="line"/>
      <point x="349" y="351" type="line"/>
      <point x="318" y="375"/>
      <point x="279" y="389"/>
      <point x="228" y="389" type="curve" smooth="yes"/>
      <point x="111" y="389"/>
      <point x="44" y="311"/>
      <point x="44" y="190" type="curve" smooth="yes"/>
      <point x="44" y="142"/>
      <point x="53" y="101"/>
      <point x="74" y="68" type="curve"/>
      <point x="29" y="22" type="line"/>
      <point x="66" y="-12" type="line"/>
      <point x="108" y="29" type="line"/>
      <point x="138" y="7"/>
      <point x="178" y="-9"/>
      <point x="226" y="-9" type="curve" smooth="yes"/>
    </contour>
    <contour>
      <point x="260" y="338"/>
      <point x="287" y="327"/>
      <point x="307" y="307" type="curve"/>
      <point x="122" y="117" type="line"/>
      <point x="113" y="139"/>
      <point x="109" y="164"/>
      <point x="109" y="190" type="curve" smooth="yes"/>
      <point x="109" y="272"/>
      <point x="151" y="338"/>
      <point x="228" y="338" type="curve" smooth="yes"/>
    </contour>
    <contour>
      <point x="347" y="109"/>
      <point x="307" y="44"/>
      <point x="228" y="44" type="curve" smooth="yes"/>
      <point x="196" y="44"/>
      <point x="170" y="55"/>
      <point x="151" y="73" type="curve"/>
      <point x="334" y="260" type="line"/>
      <point x="343" y="240"/>
      <point x="347" y="217"/>
      <point x="347" y="190" type="curve" smooth="yes"/>
    </contour>
  </outline>
</glyph>
<glyph name="dcaron" format="1">
  <advance width="496"/>
  <unicode hex="010F"/>
  <outline>
    <contour>
      <point x="145" y="47"/>
      <point x="105" y="107"/>
      <point x="105" y="192" type="curve" smooth="yes"/>
      <point x="105" y="278"/>
      <point x="145" y="339"/>
      <point x="230" y="339" type="curve" smooth="yes"/>
      <point x="260" y="339"/>
      <point x="288" y="335"/>
      <point x="315" y="324" type="curve"/>
      <point x="315" y="70" type="line"/>
      <point x="289" y="56"/>
      <point x="268" y="47"/>
      <point x="229" y="47" type="curve" smooth="yes"/>
    </contour>
    <contour>
      <point x="253" y="-8"/>
      <point x="290" y="5"/>
      <point x="324" y="27" type="curve"/>
      <point x="335" y="0" type="line"/>
      <point x="383" y="0" type="line"/>
      <point x="383" y="532" type="line"/>
      <point x="315" y="532" type="line"/>
      <point x="315" y="374" type="line"/>
      <point x="286" y="388"/>
      <point x="256" y="392"/>
      <point x="225" y="392" type="curve" smooth="yes"/>
      <point x="171" y="392"/>
      <point x="128" y="375"/>
      <point x="93" y="341" type="curve" smooth="yes"/>
      <point x="57" y="305"/>
      <point x="38" y="253"/>
      <point x="38" y="188" type="curve" smooth="yes"/>
      <point x="38" y="73"/>
      <point x="98" y="-8"/>
      <point x="216" y="-8" type="curve" smooth="yes"/>
    </contour>
    <contour>
      <point x="420" y="435" type="line"/>
      <point x="466" y="435" type="line"/>
      <point x="503" y="586" type="line"/>
      <point x="443" y="586" type="line"/>
    </contour>
  </outline>
</glyph>
<glyph name="Eogonek" format="1">
  <advance width="442"/>
  <unicode hex="0118"/>
  <outline>
    <contour>
      <point x="266" y="-93"/>
      <point x="284" y="-66"/>
      <point x="322" y="-38" type="curve" smooth="yes"/>
      <point x="389" y="10" type="line"/>
      <point x="389" y="58" type="line"/>
      <point x="133" y="58" type="line"/>
      <point x="133" y="256" type="line"/>
      <point x="368" y="256" type="line"/>
      <point x="368" y="313" type="line"/>
      <point x="133" y="313" type="line"/>
      <point x="133" y="494" type="line"/>
      <point x="389" y="494" type="line"/>
      <point x="389" y="550" type="line"/>
      <point x="67" y="550" type="line"/>
      <point x="67" y="0" type="line"/>
      <point x="300" y="0" type="line"/>
      <point x="292" y="-6" type="line"/>
      <point x="245" y="-37"/>
      <point x="210" y="-82"/>
      <point x="210" y="-129" type="curve" smooth="yes"/>
      <point x="210" y="-181"/>
      <point x="242" y="-210"/>
      <point x="288" y="-210" type="curve" smooth="yes"/>
      <point x="321" y="-210"/>
      <point x="358" y="-197"/>
      <point x="391" y="-172" type="curve"/>
      <point x="370" y="-136" type="line"/>
      <point x="344" y="-151"/>
      <point x="324" y="-159"/>
      <point x="305" y="-159" type="curve" smooth="yes"/>
      <point x="283" y="-159"/>
      <point x="266" y="-147"/>
      <point x="266" y="-118" type="curve" smooth="yes"/>
    </contour>
  </outline>
</glyph>
<glyph name="eogonek" format="1">
  <advance width="404"/>
  <unicode hex="0119"/>
  <outline>
    <contour>
      <point x="186" y="-47"/>
      <point x="159" y="-92"/>
      <point x="159" y="-135" type="curve" smooth="yes"/>
      <point x="159" y="-176"/>
      <point x="185" y="-211"/>
      <point x="244" y="-211" type="curve" smooth="yes"/>
      <point x="279" y="-211"/>
      <point x="304" y="-200"/>
      <point x="341" y="-175" type="curve"/>
      <point x="324" y="-142" type="line"/>
      <point x="308" y="-153"/>
      <point x="280" y="-164"/>
      <point x="260" y="-164" type="curve" smooth="yes"/>
      <point x="232" y="-164"/>
      <point x="218" y="-149"/>
      <point x="218" y="-120" type="curve" smooth="yes"/>
      <point x="218" y="-91"/>
      <point x="238" y="-59"/>
      <point x="277" y="-26" type="curve" smooth="yes"/>
      <point x="296" y="-10"/>
      <point x="325" y="5"/>
      <point x="352" y="13" type="curve"/>
      <point x="340" y="61" type="line"/>
      <point x="308" y="50"/>
      <point x="276" y="46"/>
      <point x="247" y="46" type="curve" smooth="yes"/>
      <point x="199" y="46"/>
      <point x="161" y="58"/>
      <point x="138" y="81" type="curve"/>
      <point x="117" y="105"/>
      <point x="101" y="137"/>
      <point x="101" y="172" type="curve"/>
      <point x="364" y="172" type="line"/>
      <point x="368" y="180" type="line"/>
      <point x="368" y="215" type="line" smooth="yes"/>
      <point x="368" y="325"/>
      <point x="312" y="389"/>
      <point x="210" y="389" type="curve" smooth="yes"/>
      <point x="155" y="389"/>
      <point x="112" y="370"/>
      <point x="81" y="330" type="curve" smooth="yes"/>
      <point x="51" y="290"/>
      <point x="38" y="242"/>
      <point x="38" y="185" type="curve" smooth="yes"/>
      <point x="38" y="16"/>
      <point x="159" y="-8"/>
      <point x="233" y="-8" type="curve"/>
    </contour>
    <contour>
      <point x="102" y="224" type="line"/>
      <point x="109" y="284"/>
      <point x="142" y="338"/>
      <point x="217" y="338" type="curve" smooth="yes"/>
      <point x="276" y="338"/>
      <point x="302" y="286"/>
      <point x="302" y="224" type="curve"/>
    </contour>
  </outline>
</glyph>
<glyph name="dotlessi" format="1">
  <advance width="181"/>
  <unicode hex="0131"/>
  <outline>
    <contour>
      <point x="58" y="0" type="line"/>
      <point x="123" y="0" type="line"/>
      <point x="123" y="384" type="line"/>
      <point x="58" y="384" type="line"/>
    </contour>
    <contour>
      <point x="91" y="384" type="move" name="top"/>
    </contour>
  </outline>
</glyph>
<glyph name="IJ" format="1">
  <advance width="495"/>
  <unicode hex="0132"/>
  <outline>
    <contour>
      <point x="369" y="161" type="line" smooth="yes"/>
      <point x="369" y="145"/>
      <point x="368" y="130"/>
      <point x="365" y="121" type="curve"/>
      <point x="353" y="77"/>
      <point x="312" y="50"/>
      <point x="256" y="50" type="curve" smooth="yes"/>
      <point x="237" y="50"/>
      <point x="219" y="53"/>
      <point x="199" y="58" type="curve"/>
      <point x="189" y="2" type="line"/>
      <point x="216" y="-4"/>
      <point x="240" y="-7"/>
      <point x="264" y="-7" type="curve" smooth="yes"/>
      <point x="323" y="-7"/>
      <point x="367" y="9"/>
      <point x="396" y="42" type="curve"/>
      <point x="426" y="72"/>
      <point x="435" y="105"/>
      <point x="435" y="165" type="curve" smooth="yes"/>
      <point x="435" y="550" type="line"/>
      <point x="369" y="550" type="line"/>
    </contour>
    <contour>
      <point x="76" y="0" type="line"/>
      <point x="141" y="0" type="line"/>
      <point x="141" y="550" type="line"/>
      <point x="76" y="550" type="line"/>
    </contour>
  </outline>
</glyph>
<glyph name="Lcaron" format="1">
  <advance width="400"/>
  <unicode hex="013D"/>
  <outline>
    <contour>
      <point x="67" y="0" type="line"/>
      <point x="380" y="0" type="line"/>
      <point x="380" y="58" type="line"/>
      <point x="133" y="58" type="line"/>
      <point x="133" y="550" type="line"/>
      <point x="67" y="550" type="line"/>
    </contour>
    <contour>
      <point x="208" y="435" type="line"/>
      <point x="259" y="435" type="line"/>
      <point x="307" y="586" type="line"/>
      <point x="240" y="586" type="line"/>
    </contour>
  </outline>
</glyph>
<glyph name="lcaron" format="1">
  <advance width="245"/>
  <unicode hex="013E"/>
  <outline>
    <contour>
      <point x="121" y="51"/>
      <point x="119" y="78"/>
      <point x="119" y="106" type="curve" smooth="yes"/>
      <point x="119" y="533" type="line"/>
      <point x="56" y="533" type="line"/>
      <point x="56" y="83" type="line" smooth="yes"/>
      <point x="57" y="29"/>
      <point x="88" y="-9"/>
      <point x="138" y="-9" type="curve" smooth="yes"/>
      <point x="176" y="-9"/>
      <point x="201" y="7"/>
      <point x="216" y="10" type="curve"/>
      <point x="204" y="57" type="line"/>
      <point x="191" y="53"/>
      <point x="181" y="51"/>
      <point x="170" y="51" type="curve" smooth="yes"/>
    </contour>
    <contour>
      <point x="162" y="435" type="line"/>
      <point x="208" y="435" type="line"/>
      <point x="245" y="586" type="line"/>
      <point x="185" y="586" type="line"/>
    </contour>
  </outline>
</glyph>
<glyph name="Lslash" format="1">
  <advance width="418"/>
  <unicode hex="0141"/>
  <outline>
    <contour>
      <point x="85" y="282" type="line"/>
      <point x="9" y="238" type="line"/>
      <point x="9" y="170" type="line"/>
      <point x="85" y="215" type="line"/>
      <point x="85" y="0" type="line"/>
      <point x="398" y="0" type="line"/>
      <point x="398" y="58" type="line"/>
      <point x="151" y="58" type="line"/>
      <point x="151" y="253" type="line"/>
      <point x="252" y="312" type="line"/>
      <point x="252" y="380" type="line"/>
      <point x="151" y="321" type="line"/>
      <point x="151" y="550" type="line"/>
      <point x="85" y="550" type="line"/>
    </contour>
  </outline>
</glyph>
<glyph name="lslash" format="1">
  <advance width="244"/>
  <unicode hex="0142"/>
  <outline>
    <contour>
      <point x="141" y="51"/>
      <point x="140" y="78"/>
      <point x="140" y="106" type="curve" smooth="yes"/>
      <point x="140" y="265" type="line"/>
      <point x="232" y="318" type="line"/>
      <point x="232" y="376" type="line"/>
      <point x="140" y="324" type="line"/>
      <point x="140" y="533" type="line"/>
      <point x="77" y="533" type="line"/>
      <point x="77" y="287" type="line"/>
      <point x="16" y="252" type="line"/>
      <point x="16" y="194" type="line"/>
      <point x="77" y="228" type="line"/>
      <point x="77" y="83" type="line" smooth="yes"/>
      <point x="78" y="29"/>
      <point x="109" y="-9"/>
      <point x="159" y="-9" type="curve" smooth="yes"/>
      <point x="197" y="-9"/>
      <point x="222" y="3"/>
      <point x="237" y="10" type="curve"/>
      <point x="237" y="61" type="line"/>
      <point x="218" y="55"/>
      <point x="206" y="51"/>
      <point x="190" y="51" type="curve" smooth="yes"/>
    </contour>
  </outline>
</glyph>
<glyph name="oe" format="1">
  <advance width="674"/>
  <unicode hex="0153"/>
  <outline>
    <contour>
      <point x="284" y="334"/>
      <point x="326" y="268"/>
      <point x="326" y="187" type="curve" smooth="yes"/>
      <point x="326" y="140"/>
      <point x="315" y="105"/>
      <point x="294" y="81" type="curve" smooth="yes"/>
      <point x="275" y="60"/>
      <point x="253" y="46"/>
      <point x="212" y="46" type="curve" smooth="yes"/>
      <point x="192" y="46"/>
      <point x="175" y="52"/>
      <point x="157" y="66" type="curve"/>
      <point x="122" y="91"/>
      <point x="101" y="137"/>
      <point x="101" y="195" type="curve" smooth="yes"/>
      <point x="101" y="267"/>
      <point x="140" y="334"/>
      <point x="208" y="334" type="curve" smooth="yes"/>
    </contour>
    <contour>
      <point x="576" y="206" type="line"/>
      <point x="387" y="206" type="line"/>
      <point x="388" y="239"/>
      <point x="395" y="268"/>
      <point x="412" y="294" type="curve" smooth="yes"/>
      <point x="428" y="319"/>
      <point x="454" y="332"/>
      <point x="484" y="332" type="curve" smooth="yes"/>
      <point x="552" y="332"/>
      <point x="576" y="287"/>
      <point x="576" y="214" type="curve" smooth="yes"/>
    </contour>
    <contour>
      <point x="38" y="77"/>
      <point x="101" y="-10"/>
      <point x="211" y="-10" type="curve" smooth="yes"/>
      <point x="272" y="-10"/>
      <point x="319" y="14"/>
      <point x="351" y="62" type="curve"/>
      <point x="381" y="13"/>
      <point x="430" y="-10"/>
      <point x="498" y="-10" type="curve" smooth="yes"/>
      <point x="538" y="-10"/>
      <point x="577" y="-2"/>
      <point x="615" y="12" type="curve"/>
      <point x="604" y="56" type="line"/>
      <point x="574" y="46"/>
      <point x="547" y="42"/>
      <point x="523" y="42" type="curve" smooth="yes"/>
      <point x="486" y="42"/>
      <point x="457" y="49"/>
      <point x="434" y="67" type="curve" smooth="yes"/>
      <point x="403" y="91"/>
      <point x="386" y="121"/>
      <point x="385" y="158" type="curve"/>
      <point x="637" y="158" type="line"/>
      <point x="637" y="196" type="line" smooth="yes"/>
      <point x="637" y="226"/>
      <point x="636" y="248"/>
      <point x="634" y="262" type="curve" smooth="yes"/>
      <point x="622" y="339"/>
      <point x="575" y="388"/>
      <point x="500" y="388" type="curve" smooth="yes"/>
      <point x="439" y="388"/>
      <point x="387" y="363"/>
      <point x="354" y="312" type="curve"/>
      <point x="326" y="354"/>
      <point x="284" y="388"/>
      <point x="218" y="388" type="curve" smooth="yes"/>
      <point x="105" y="388"/>
      <point x="38" y="305"/>
      <point x="38" y="189" type="curve" smooth="yes"/>
    </contour>
  </outline>
</glyph>
<glyph name="Tcedilla" format="1">
  <advance width="451"/>
  <unicode hex="0162"/>
  <outline>
    <contour>
      <point x="228" y="-171"/>
      <point x="206" y="-166"/>
      <point x="171" y="-157" type="curve"/>
      <point x="160" y="-153" type="line"/>
      <point x="145" y="-206" type="line"/>
      <point x="158" y="-209" type="line"/>
      <point x="202" y="-221" type="line"/>
      <point x="214" y="-225"/>
      <point x="224" y="-226"/>
      <point x="241" y="-226" type="curve" smooth="yes"/>
      <point x="299" y="-226"/>
      <point x="337" y="-190"/>
      <point x="337" y="-145" type="curve" smooth="yes"/>
      <point x="337" y="-82"/>
      <point x="291" y="-67"/>
      <point x="256" y="-57" type="curve"/>
      <point x="244" y="-52" type="line"/>
      <point x="257" y="0" type="line"/>
      <point x="257" y="494" type="line"/>
      <point x="442" y="494" type="line"/>
      <point x="442" y="550" type="line"/>
      <point x="9" y="550" type="line"/>
      <point x="9" y="494" type="line"/>
      <point x="191" y="494" type="line"/>
      <point x="191" y="0" type="line"/>
      <point x="171" y="-91" type="line"/>
      <point x="238" y="-106" type="line" smooth="yes"/>
      <point x="256" y="-110"/>
      <point x="279" y="-121"/>
      <point x="279" y="-142" type="curve" smooth="yes"/>
      <point x="279" y="-164"/>
      <point x="261" y="-174"/>
      <point x="238" y="-172" type="curve" smooth="yes"/>
    </contour>
  </outline>
</glyph>
<glyph name="uogonek" format="1">
  <advance width="430"/>
  <unicode hex="0173"/>
  <outline>
    <contour>
      <point x="311" y="384" type="line"/>
      <point x="311" y="74" type="line"/>
      <point x="272" y="54"/>
      <point x="237" y="46"/>
      <point x="208" y="46" type="curve" smooth="yes"/>
      <point x="137" y="46"/>
      <point x="121" y="74"/>
      <point x="121" y="146" type="curve" smooth="yes"/>
      <point x="121" y="384" type="line"/>
      <point x="58" y="384" type="line"/>
      <point x="56" y="132" type="line" smooth="yes"/>
      <point x="55" y="49"/>
      <point x="89" y="-9"/>
      <point x="180" y="-9" type="curve" smooth="yes"/>
      <point x="230" y="-9"/>
      <point x="274" y="6"/>
      <point x="316" y="29" type="curve"/>
      <point x="328" y="2" type="line"/>
      <point x="285" y="-22" type="line"/>
      <point x="224" y="-60"/>
      <point x="189" y="-97"/>
      <point x="189" y="-147" type="curve" smooth="yes"/>
      <point x="189" y="-194"/>
      <point x="226" y="-217"/>
      <point x="268" y="-217" type="curve" smooth="yes"/>
      <point x="301" y="-217"/>
      <point x="334" y="-205"/>
      <point x="372" y="-180" type="curve"/>
      <point x="354" y="-145" type="line"/>
      <point x="329" y="-160"/>
      <point x="307" y="-167"/>
      <point x="290" y="-167" type="curve" smooth="yes"/>
      <point x="265" y="-167"/>
      <point x="249" y="-154"/>
      <point x="249" y="-126" type="curve" smooth="yes"/>
      <point x="249" y="-101"/>
      <point x="268" y="-82"/>
      <point x="299" y="-60" type="curve" smooth="yes"/>
      <point x="314" y="-50"/>
      <point x="337" y="-37"/>
      <point x="374" y="-18" type="curve"/>
      <point x="374" y="384" type="line"/>
    </contour>
  </outline>
</glyph>
<glyph name="dotlessj" format="1">
  <advance width="180"/>
  <unicode hex="0237"/>
  <outline>
    <contour>
      <point x="59" y="-108"/>
      <point x="38" y="-141"/>
      <point x="-4" y="-161" type="curve"/>
      <point x="20" y="-208" type="line"/>
      <point x="56" y="-197"/>
      <point x="89" y="-176"/>
      <point x="105" y="-143" type="curve" smooth="yes"/>
      <point x="119" y="-113"/>
      <point x="122" y="-105"/>
      <point x="122" y="-50" type="curve" smooth="yes"/>
      <point x="122" y="384" type="line"/>
      <point x="59" y="384" type="line"/>
      <point x="59" y="-53" type="line"/>
      <point x="59" y="-62" type="line" smooth="yes"/>
    </contour>
    <contour>
      <point x="90" y="384" type="move" name="top"/>
    </contour>
  </outline>
</glyph>
<glyph name="caron" format="1">
  <advance width="244"/>
  <unicode hex="02C7"/>
  <outline>
    <contour>
      <point x="203" y="592" type="line"/>
      <point x="122" y="510" type="line"/>
      <point x="41" y="592" type="line"/>
      <point x="5" y="557" type="line"/>
      <point x="122" y="435" type="line"/>
      <point x="239" y="557" type="line"/>
    </contour>
    <contour>
      <point x="122" y="384" type="move" name="_top"/>
    </contour>
  </outline>
</glyph>
<glyph name="firsttonechinese" format="1">
  <advance width="319"/>
  <unicode hex="02C9"/>
  <outline>
    <contour>
      <point x="263" y="518" type="line"/>
      <point x="263" y="466" type="line"/>
      <point x="56" y="466" type="line"/>
      <point x="56" y="518" type="line"/>
    </contour>
  </outline>
</glyph>
<glyph name="dotaccent" format="1">
  <advance width="85"/>
  <unicode hex="02D9"/>
  <outline>
    <contour>
      <point x="65" y="466"/>
      <point x="84" y="485"/>
      <point x="84" y="508" type="curve" smooth="yes"/>
      <point x="84" y="531"/>
      <point x="65" y="550"/>
      <point x="42" y="550" type="curve" smooth="yes"/>
      <point x="19" y="550"/>
      <point x="0" y="531"/>
      <point x="0" y="508" type="curve" smooth="yes"/>
      <point x="0" y="485"/>
      <point x="19" y="466"/>
      <point x="42" y="466" type="curve" smooth="yes"/>
    </contour>
    <contour>
      <point x="43" y="384" type="move" name="_top"/>
    </contour>
  </outline>
</glyph>
<glyph name="ogonek" format="1">
  <advance width="204"/>
  <unicode hex="02DB"/>
  <outline>
    <contour>
      <point x="127" y="21"/>
      <point x="5" y="-40"/>
      <point x="5" y="-130" type="curve" smooth="yes"/>
      <point x="5" y="-174"/>
      <point x="32" y="-211"/>
      <point x="91" y="-211" type="curve" smooth="yes"/>
      <point x="126" y="-211"/>
      <point x="159" y="-195"/>
      <point x="188" y="-175" type="curve"/>
      <point x="171" y="-142" type="line"/>
      <point x="155" y="-153"/>
      <point x="127" y="-164"/>
      <point x="107" y="-164" type="curve" smooth="yes"/>
      <point x="79" y="-164"/>
      <point x="65" y="-149"/>
      <point x="65" y="-120" type="curve" smooth="yes"/>
      <point x="65" y="-62"/>
      <point x="150" y="-17"/>
      <point x="199" y="13" type="curve"/>
      <point x="177" y="50" type="line"/>
    </contour>
  </outline>
</glyph>
<glyph name="visargadeva" format="1">
  <advance width="173"/>
  <unicode hex="0903"/>
  <outline>
    <contour>
      <point x="109" y="257"/>
      <point x="123" y="273"/>
      <point x="123" y="293" type="curve" smooth="yes"/>
      <point x="123" y="314"/>
      <point x="109" y="330"/>
      <point x="86" y="330" type="curve" smooth="yes"/>
      <point x="64" y="330"/>
      <point x="50" y="314"/>
      <point x="50" y="293" type="curve" smooth="yes"/>
      <point x="50" y="273"/>
      <point x="64" y="257"/>
      <point x="86" y="257" type="curve" smooth="yes"/>
    </contour>
    <contour>
      <point x="109" y="57"/>
      <point x="123" y="73"/>
      <point x="123" y="93" type="curve" smooth="yes"/>
      <point x="123" y="114"/>
      <point x="109" y="130"/>
      <point x="86" y="130" type="curve" smooth="yes"/>
      <point x="64" y="130"/>
      <point x="50" y="114"/>
      <point x="50" y="93" type="curve" smooth="yes"/>
      <point x="50" y="73"/>
      <point x="64" y="57"/>
      <point x="86" y="57" type="curve" smooth="yes"/>
    </contour>
  </outline>
</glyph>
<glyph name="lvocalicdeva" format="1">
  <advance width="530"/>
  <unicode hex="090C"/>
  <outline>
    <contour>
      <point x="358" y="270" type="line"/>
      <point x="414" y="270" type="line"/>
      <point x="414" y="456" type="line"/>
      <point x="358" y="456" type="line"/>
    </contour>
    <contour>
      <point x="-24" y="456" type="line"/>
      <point x="-24" y="408" type="line"/>
      <point x="554" y="408" type="line"/>
      <point x="554" y="456" type="line"/>
    </contour>
    <contour>
      <point x="275" y="268"/>
      <point x="234" y="310"/>
      <point x="177" y="310" type="curve" smooth="yes"/>
      <point x="94" y="310"/>
      <point x="44" y="253"/>
      <point x="44" y="172" type="curve" smooth="yes"/>
      <point x="44" y="74"/>
      <point x="137" y="-12"/>
      <point x="137" y="-12" type="curve"/>
      <point x="190" y="11" type="line"/>
      <point x="167" y="36"/>
      <point x="101" y="102"/>
      <point x="101" y="172" type="curve" smooth="yes"/>
      <point x="101" y="221"/>
      <point x="129" y="256"/>
      <point x="176" y="256" type="curve" smooth="yes"/>
      <point x="230" y="256"/>
      <point x="255" y="182"/>
      <point x="255" y="182" type="curve"/>
      <point x="292" y="227" type="line"/>
    </contour>
    <contour>
      <point x="449" y="-62"/>
      <point x="479" y="-46"/>
      <point x="502" y="-27" type="curve"/>
      <point x="476" y="17" type="line"/>
      <point x="463" y="7"/>
      <point x="438" y="-11"/>
      <point x="417" y="-11" type="curve" smooth="yes"/>
      <point x="390" y="-11"/>
      <point x="376" y="2"/>
      <point x="376" y="26" type="curve" smooth="yes"/>
      <point x="376" y="60"/>
      <point x="400" y="68"/>
      <point x="430" y="91" type="curve" smooth="yes"/>
      <point x="461" y="115"/>
      <point x="485" y="142"/>
      <point x="486" y="190" type="curve" smooth="yes"/>
      <point x="487" y="249"/>
      <point x="441" y="308"/>
      <point x="365" y="308" type="curve" smooth="yes"/>
      <point x="299" y="308"/>
      <point x="235" y="266"/>
      <point x="235" y="164" type="curve" smooth="yes"/>
      <point x="235" y="154"/>
      <point x="237" y="128"/>
      <point x="239" y="118" type="curve"/>
      <point x="292" y="110" type="line"/>
      <point x="291" y="120"/>
      <point x="288" y="140"/>
      <point x="288" y="162" type="curve" smooth="yes"/>
      <point x="288" y="217"/>
      <point x="314" y="257"/>
      <point x="362" y="256" type="curve" smooth="yes"/>
      <point x="411" y="256"/>
      <point x="432" y="221"/>
      <point x="432" y="189" type="curve" smooth="yes"/>
      <point x="432" y="153"/>
      <point x="404" y="136"/>
      <point x="387" y="124" type="curve" smooth="yes"/>
      <point x="355" y="101"/>
      <point x="322" y="76"/>
      <point x="322" y="23" type="curve" smooth="yes"/>
      <point x="322" y="-19"/>
      <point x="348" y="-62"/>
      <point x="412" y="-62" type="curve" smooth="yes"/>
    </contour>
    <contour>
      <point x="358" y="270" type="line"/>
      <point x="414" y="270" type="line"/>
      <point x="414" y="456" type="line"/>
      <point x="358" y="456" type="line"/>
    </contour>
    <contour>
      <point x="-24" y="456" type="line"/>
      <point x="-24" y="408" type="line"/>
      <point x="554" y="408" type="line"/>
      <point x="554" y="456" type="line"/>
    </contour>
    <contour>
      <point x="275" y="268"/>
      <point x="234" y="310"/>
      <point x="177" y="310" type="curve" smooth="yes"/>
      <point x="94" y="310"/>
      <point x="44" y="253"/>
      <point x="44" y="172" type="curve" smooth="yes"/>
      <point x="44" y="74"/>
      <point x="137" y="-12"/>
      <point x="137" y="-12" type="curve"/>
      <point x="190" y="11" type="line"/>
      <point x="167" y="36"/>
      <point x="101" y="102"/>
      <point x="101" y="172" type="curve" smooth="yes"/>
      <point x="101" y="221"/>
      <point x="129" y="256"/>
      <point x="176" y="256" type="curve" smooth="yes"/>
      <point x="230" y="256"/>
      <point x="255" y="182"/>
      <point x="255" y="182" type="curve"/>
      <point x="292" y="227" type="line"/>
    </contour>
    <contour>
      <point x="386" y="447" type="move" name="top"/>
    </contour>
  </outline>
</glyph>
<glyph name="madeva" format="1">
  <advance width="463"/>
  <unicode hex="092E"/>
  <outline>
    <contour>
      <point x="333" y="0" type="line"/>
      <point x="389" y="0" type="line"/>
      <point x="389" y="456" type="line"/>
      <point x="333" y="456" type="line"/>
    </contour>
    <contour>
      <point x="96" y="140" type="line"/>
      <point x="151" y="140" type="line"/>
      <point x="151" y="456" type="line"/>
      <point x="96" y="456" type="line"/>
    </contour>
    <contour>
      <point x="-24" y="456" type="line"/>
      <point x="-24" y="408" type="line"/>
      <point x="487" y="408" type="line"/>
      <point x="487" y="456" type="line"/>
    </contour>
    <contour>
      <point x="34" y="204" type="line"/>
      <point x="34" y="171" type="line"/>
      <point x="113" y="76" type="line"/>
      <point x="151" y="76" type="line"/>
      <point x="151" y="204" type="line"/>
    </contour>
    <contour>
      <point x="119" y="204" type="line"/>
      <point x="119" y="156" type="line"/>
      <point x="379" y="156" type="line"/>
      <point x="379" y="204" type="line"/>
    </contour>
    <contour>
      <point x="361" y="447" type="move" name="top"/>
    </contour>
    <contour>
      <point x="361" y="5" type="move" name="bottom"/>
    </contour>
  </outline>
</glyph>
<glyph name="uni092F" format="1">
  <advance width="445"/>
  <unicode hex="092F"/>
  <outline>
    <contour>
      <point x="315" y="0" type="line"/>
      <point x="371" y="0" type="line"/>
      <point x="371" y="456" type="line"/>
      <point x="315" y="456" type="line"/>
    </contour>
    <contour>
      <point x="-24" y="456" type="line"/>
      <point x="-24" y="408" type="line"/>
      <point x="469" y="408" type="line"/>
      <point x="469" y="456" type="line"/>
    </contour>
    <contour>
      <point x="312" y="158"/>
      <point x="259" y="137"/>
      <point x="208" y="137" type="curve" smooth="yes"/>
      <point x="167" y="137"/>
      <point x="130" y="155"/>
      <point x="105" y="182" type="curve"/>
      <point x="142" y="211"/>
      <point x="178" y="244"/>
      <point x="178" y="306" type="curve" smooth="yes"/>
      <point x="178" y="356"/>
      <point x="150" y="414"/>
      <point x="96" y="456" type="curve"/>
      <point x="26" y="456" type="line"/>
      <point x="86" y="414"/>
      <point x="123" y="356"/>
      <point x="123" y="307" type="curve" smooth="yes"/>
      <point x="123" y="258"/>
      <point x="77" y="230"/>
      <point x="45" y="213" type="curve"/>
      <point x="34" y="184" type="line"/>
      <point x="61" y="138"/>
      <point x="122" y="84"/>
      <point x="213" y="84" type="curve" smooth="yes"/>
      <point x="285" y="84"/>
      <point x="338" y="127"/>
      <point x="338" y="127" type="curve"/>
      <point x="338" y="203" type="line"/>
    </contour>
    <contour>
      <point x="343" y="447" type="move" name="top"/>
    </contour>
    <contour>
      <point x="343" y="5" type="move" name="bottom"/>
    </contour>
  </outline>
</glyph>
<glyph name="rradeva" format="1">
  <advance width="274"/>
  <unicode hex="0931"/>
  <outline>
    <component base="radeva"/>
    <component base="nuktadeva" xOffset="71" yOffset="99"/>
    <contour>
      <point x="123" y="447" type="move" name="top"/>
    </contour>
    <contour>
      <point x="166" y="-40" type="move" name="bottom"/>
    </contour>
  </outline>
</glyph>
<glyph name="uni093E" format="1">
  <advance width="213"/>
  <unicode hex="093E"/>
  <outline>
    <contour>
      <point x="80" y="0" type="line"/>
      <point x="135" y="0" type="line"/>
      <point x="135" y="456" type="line"/>
      <point x="80" y="456" type="line"/>
    </contour>
    <contour>
      <point x="-24" y="456" type="line"/>
      <point x="-24" y="408" type="line"/>
      <point x="237" y="408" type="line"/>
      <point x="237" y="456" type="line"/>
    </contour>
    <contour>
      <point x="108" y="447" type="move" name="top"/>
    </contour>
  </outline>
</glyph>
<glyph name="rvocalicvowelsigndeva" format="1">
  <advance width="231"/>
  <unicode hex="0943"/>
  <outline>
    <contour>
      <point x="162" y="-200"/>
      <point x="186" y="-191"/>
      <point x="213" y="-175" type="curve"/>
      <point x="189" y="-133" type="line"/>
      <point x="169" y="-145"/>
      <point x="149" y="-152"/>
      <point x="123" y="-152" type="curve"/>
      <point x="93" y="-152"/>
      <point x="66" y="-135"/>
      <point x="66" y="-97" type="curve" smooth="yes"/>
      <point x="66" y="-60"/>
      <point x="90" y="-42"/>
      <point x="133" y="-42" type="curve"/>
      <point x="190" y="-42" type="line"/>
      <point x="190" y="-42"/>
      <point x="190" y="10"/>
      <point x="190" y="10" type="curve"/>
      <point x="133" y="10" type="line"/>
      <point x="55" y="10"/>
      <point x="14" y="-37"/>
      <point x="14" y="-98" type="curve" smooth="yes"/>
      <point x="14" y="-154"/>
      <point x="53" y="-200"/>
      <point x="123" y="-200" type="curve"/>
    </contour>
    <contour>
      <point x="163" y="5" type="move" name="_bottom"/>
    </contour>
  </outline>
</glyph>
<glyph name="rrvocalicvowelsigndeva" format="1">
  <advance width="227"/>
  <unicode hex="0944"/>
  <outline>
    <contour>
      <point x="162" y="-325"/>
      <point x="186" y="-315"/>
      <point x="213" y="-300" type="curve"/>
      <point x="189" y="-258" type="line"/>
      <point x="169" y="-270"/>
      <point x="149" y="-277"/>
      <point x="123" y="-277" type="curve" smooth="yes"/>
      <point x="93" y="-277"/>
      <point x="66" y="-268"/>
      <point x="66" y="-230" type="curve" smooth="yes"/>
      <point x="66" y="-193"/>
      <point x="96" y="-180"/>
      <point x="133" y="-180" type="curve" smooth="yes"/>
      <point x="170" y="-180" type="line"/>
      <point x="170" y="-130" type="line"/>
      <point x="133" y="-130" type="line" smooth="yes"/>
      <point x="99" y="-130"/>
      <point x="67" y="-116"/>
      <point x="67" y="-83" type="curve" smooth="yes"/>
      <point x="67" y="-52"/>
      <point x="90" y="-42"/>
      <point x="133" y="-42" type="curve" smooth="yes"/>
      <point x="190" y="-42" type="line"/>
      <point x="190" y="10" type="line"/>
      <point x="133" y="10" type="line" smooth="yes"/>
      <point x="55" y="10"/>
      <point x="14" y="-25"/>
      <point x="14" y="-76" type="curve" smooth="yes"/>
      <point x="14" y="-117"/>
      <point x="37" y="-141"/>
      <point x="68" y="-157" type="curve"/>
      <point x="37" y="-171"/>
      <point x="14" y="-194"/>
      <point x="14" y="-235" type="curve" smooth="yes"/>
      <point x="14" y="-287"/>
      <point x="53" y="-325"/>
      <point x="116" y="-325" type="curve" smooth="yes"/>
    </contour>
    <contour>
      <point x="163" y="5" type="move" name="_bottom"/>
    </contour>
  </outline>
</glyph>
<glyph name="yyadeva" format="1">
  <advance width="445"/>
  <unicode hex="095F"/>
  <outline>
    <component base="nuktadeva" xOffset="136" yOffset="79"/>
    <component base="uni092F"/>
    <contour>
      <point x="343" y="447" type="move" name="top"/>
    </contour>
    <contour>
      <point x="343" y="5" type="move" name="bottom"/>
    </contour>
  </outline>
</glyph>
<glyph name="rrvocalicdeva" format="1">
  <advance width="630"/>
  <unicode hex="0960"/>
  <outline>
    <contour>
      <point x="654" y="408" type="line"/>
      <point x="-24" y="408" type="line"/>
      <point x="-24" y="456" type="line"/>
      <point x="654" y="456" type="line"/>
    </contour>
    <contour>
      <point x="366" y="456" type="line"/>
      <point x="366" y="0" type="line"/>
      <point x="310" y="0" type="line"/>
      <point x="310" y="456" type="line"/>
    </contour>
    <contour>
      <point x="295" y="234" type="line"/>
      <point x="330" y="193" type="line"/>
      <point x="330" y="193"/>
      <point x="118" y="12"/>
      <point x="118" y="12" type="curve" smooth="yes"/>
      <point x="118" y="12"/>
      <point x="80" y="52"/>
      <point x="80" y="52" type="curve"/>
    </contour>
    <contour>
      <point x="318" y="169" type="line"/>
      <point x="308" y="182"/>
      <point x="296" y="201"/>
      <point x="285" y="215" type="curve" smooth="yes"/>
      <point x="254" y="253"/>
      <point x="217" y="283"/>
      <point x="177" y="283" type="curve"/>
      <point x="131" y="285"/>
      <point x="93" y="244"/>
      <point x="59" y="209" type="curve"/>
      <point x="19" y="246" type="line"/>
      <point x="66" y="296"/>
      <point x="108" y="337"/>
      <point x="179" y="337" type="curve"/>
      <point x="236" y="337"/>
      <point x="282" y="302"/>
      <point x="334" y="242" type="curve"/>
    </contour>
    <contour>
      <point x="362" y="243"/>
      <point x="387" y="221"/>
      <point x="429" y="221" type="curve"/>
      <point x="465" y="221"/>
      <point x="488" y="241"/>
      <point x="500" y="265" type="curve"/>
      <point x="528" y="218" type="line"/>
      <point x="503" y="188"/>
      <point x="469" y="172"/>
      <point x="430" y="172" type="curve"/>
      <point x="388" y="172"/>
      <point x="371" y="183"/>
      <point x="339" y="201" type="curve"/>
      <point x="339" y="255" type="line"/>
    </contour>
    <contour>
      <point x="530" y="273" type="line"/>
      <point x="600" y="149" type="line"/>
      <point x="551" y="140" type="line"/>
      <point x="494" y="242" type="line"/>
    </contour>
    <contour>
      <point x="489" y="247" type="line"/>
      <point x="444" y="314" type="line"/>
      <point x="457" y="329"/>
      <point x="476" y="342"/>
      <point x="501" y="342" type="curve"/>
      <point x="525" y="342"/>
      <point x="551" y="318"/>
      <point x="551" y="280" type="curve" smooth="yes"/>
      <point x="551" y="258"/>
      <point x="544" y="242"/>
      <point x="525" y="222" type="curve"/>
    </contour>
    <contour>
      <point x="625" y="-156"/>
      <point x="599" y="-166"/>
      <point x="555" y="-166" type="curve" smooth="yes"/>
      <point x="492" y="-166"/>
      <point x="458" y="-127"/>
      <point x="458" y="-80" type="curve" smooth="yes"/>
      <point x="458" y="-47"/>
      <point x="473" y="-22"/>
      <point x="500" y="-7" type="curve"/>
      <point x="472" y="8"/>
      <point x="458" y="33"/>
      <point x="458" y="63" type="curve" smooth="yes"/>
      <point x="458" y="109"/>
      <point x="496" y="149"/>
      <point x="567" y="149" type="curve" smooth="yes"/>
      <point x="600" y="149" type="line"/>
      <point x="600" y="148" type="line"/>
      <point x="586" y="104" type="line"/>
      <point x="567" y="104" type="line" smooth="yes"/>
      <point x="528" y="104"/>
      <point x="506" y="88"/>
      <point x="506" y="64" type="curve" smooth="yes"/>
      <point x="506" y="35"/>
      <point x="532" y="21"/>
      <point x="563" y="21" type="curve"/>
      <point x="609" y="21" type="line"/>
      <point x="609" y="-10" type="line"/>
      <point x="609" y="-29" type="line"/>
      <point x="572" y="-29" type="line" smooth="yes"/>
      <point x="537" y="-29"/>
      <point x="510" y="-42"/>
      <point x="510" y="-74" type="curve" smooth="yes"/>
      <point x="510" y="-107"/>
      <point x="534" y="-118"/>
      <point x="562" y="-118" type="curve" smooth="yes"/>
      <point x="588" y="-118"/>
      <point x="608" y="-111"/>
      <point x="628" y="-99" type="curve"/>
      <point x="652" y="-141" type="line"/>
    </contour>
    <contour>
      <point x="338" y="447" type="move" name="top"/>
    </contour>
  </outline>
</glyph>
<glyph name="lvocalicvowelsigndeva" format="1">
  <advance width="426"/>
  <unicode hex="0962"/>
  <outline>
    <contour>
      <point x="226" y="-81" type="line"/>
      <point x="206" y="-54"/>
      <point x="172" y="-20"/>
      <point x="125" y="-20" type="curve" smooth="yes"/>
      <point x="58" y="-20"/>
      <point x="15" y="-64"/>
      <point x="15" y="-129" type="curve" smooth="yes"/>
      <point x="15" y="-185"/>
      <point x="49" y="-236"/>
      <point x="66" y="-264" type="curve"/>
      <point x="114" y="-244" type="line"/>
      <point x="96" y="-214"/>
      <point x="69" y="-174"/>
      <point x="69" y="-131" type="curve" smooth="yes"/>
      <point x="69" y="-93"/>
      <point x="86" y="-71"/>
      <point x="124" y="-71" type="curve" smooth="yes"/>
      <point x="160" y="-71"/>
      <point x="180" y="-100"/>
      <point x="191" y="-120" type="curve"/>
    </contour>
    <contour>
      <point x="355" y="-365"/>
      <point x="388" y="-349"/>
      <point x="411" y="-330" type="curve"/>
      <point x="386" y="-290" type="line"/>
      <point x="373" y="-300"/>
      <point x="348" y="-318"/>
      <point x="321" y="-318" type="curve" smooth="yes"/>
      <point x="300" y="-318"/>
      <point x="284" y="-307"/>
      <point x="284" y="-285" type="curve" smooth="yes"/>
      <point x="284" y="-262"/>
      <point x="309" y="-242"/>
      <point x="336" y="-215" type="curve" smooth="yes"/>
      <point x="362" y="-189"/>
      <point x="385" y="-166"/>
      <point x="385" y="-117" type="curve" smooth="yes"/>
      <point x="385" y="-81"/>
      <point x="360" y="-20"/>
      <point x="281" y="-20" type="curve" smooth="yes"/>
      <point x="227" y="-20"/>
      <point x="165" y="-64"/>
      <point x="165" y="-156" type="curve" smooth="yes"/>
      <point x="165" y="-166"/>
      <point x="166" y="-177"/>
      <point x="168" y="-187" type="curve"/>
      <point x="217" y="-195" type="line"/>
      <point x="216" y="-185"/>
      <point x="215" y="-175"/>
      <point x="215" y="-158" type="curve" smooth="yes"/>
      <point x="215" y="-106"/>
      <point x="235" y="-70"/>
      <point x="282" y="-70" type="curve" smooth="yes"/>
      <point x="321" y="-70"/>
      <point x="336" y="-92"/>
      <point x="336" y="-119" type="curve" smooth="yes"/>
      <point x="336" y="-152"/>
      <point x="315" y="-171"/>
      <point x="291" y="-196" type="curve" smooth="yes"/>
      <point x="264" y="-225"/>
      <point x="235" y="-248"/>
      <point x="235" y="-287" type="curve" smooth="yes"/>
      <point x="235" y="-326"/>
      <point x="262" y="-365"/>
      <point x="321" y="-365" type="curve" smooth="yes"/>
    </contour>
    <contour>
      <point x="202" y="5" type="move" name="_bottom"/>
    </contour>
  </outline>
</glyph>
<glyph name="llvocalicvowelsigndeva" format="1">
  <advance width="440"/>
  <unicode hex="0963"/>
  <outline>
    <contour>
      <point x="58" y="-20"/>
      <point x="15" y="-64"/>
      <point x="15" y="-129" type="curve" smooth="yes"/>
      <point x="15" y="-185"/>
      <point x="49" y="-236"/>
      <point x="67" y="-264" type="curve"/>
      <point x="115" y="-244" type="line"/>
      <point x="96" y="-214"/>
      <point x="70" y="-174"/>
      <point x="70" y="-131" type="curve" smooth="yes"/>
      <point x="70" y="-93"/>
      <point x="86" y="-71"/>
      <point x="124" y="-71" type="curve" smooth="yes"/>
      <point x="148" y="-71"/>
      <point x="163" y="-83"/>
      <point x="175" y="-97" type="curve"/>
      <point x="169" y="-113"/>
      <point x="165" y="-133"/>
      <point x="165" y="-156" type="curve" smooth="yes"/>
      <point x="165" y="-166"/>
      <point x="166" y="-177"/>
      <point x="168" y="-187" type="curve"/>
      <point x="217" y="-195" type="line"/>
      <point x="216" y="-185"/>
      <point x="215" y="-175"/>
      <point x="215" y="-158" type="curve" smooth="yes"/>
      <point x="215" y="-106"/>
      <point x="236" y="-70"/>
      <point x="283" y="-70" type="curve" smooth="yes"/>
      <point x="322" y="-70"/>
      <point x="336" y="-92"/>
      <point x="336" y="-119" type="curve" smooth="yes"/>
      <point x="336" y="-152"/>
      <point x="316" y="-171"/>
      <point x="291" y="-196" type="curve" smooth="yes"/>
      <point x="264" y="-225"/>
      <point x="236" y="-248"/>
      <point x="236" y="-287" type="curve" smooth="yes"/>
      <point x="236" y="-311"/>
      <point x="244" y="-334"/>
      <point x="265" y="-349" type="curve"/>
      <point x="244" y="-363"/>
      <point x="226" y="-381"/>
      <point x="226" y="-414" type="curve" smooth="yes"/>
      <point x="226" y="-461"/>
      <point x="265" y="-499"/>
      <point x="328" y="-499" type="curve" smooth="yes"/>
      <point x="374" y="-499"/>
      <point x="398" y="-489"/>
      <point x="425" y="-474" type="curve"/>
      <point x="401" y="-432" type="line"/>
      <point x="381" y="-444"/>
      <point x="361" y="-451"/>
      <point x="335" y="-451" type="curve" smooth="yes"/>
      <point x="305" y="-451"/>
      <point x="275" y="-443"/>
      <point x="275" y="-410" type="curve" smooth="yes"/>
      <point x="275" y="-382"/>
      <point x="301" y="-371"/>
      <point x="331" y="-370" type="curve"/>
      <point x="372" y="-370" type="line"/>
      <point x="372" y="-323" type="line"/>
      <point x="321" y="-323" type="line"/>
      <point x="296" y="-323"/>
      <point x="285" y="-307"/>
      <point x="285" y="-285" type="curve" smooth="yes"/>
      <point x="285" y="-262"/>
      <point x="309" y="-242"/>
      <point x="336" y="-215" type="curve" smooth="yes"/>
      <point x="363" y="-189"/>
      <point x="385" y="-166"/>
      <point x="385" y="-117" type="curve" smooth="yes"/>
      <point x="385" y="-81"/>
      <point x="361" y="-20"/>
      <point x="282" y="-20" type="curve" smooth="yes"/>
      <point x="254" y="-20"/>
      <point x="225" y="-30"/>
      <point x="202" y="-54" type="curve"/>
      <point x="183" y="-35"/>
      <point x="157" y="-20"/>
      <point x="125" y="-20" type="curve" smooth="yes"/>
    </contour>
    <contour>
      <point x="202" y="5" type="move" name="_bottom"/>
    </contour>
  </outline>
</glyph>
<glyph name="dbldanda-deva" format="1">
  <advance width="390"/>
  <unicode hex="0965"/>
  <outline>
    <contour>
      <point x="140" y="-30" type="line"/>
      <point x="195" y="-30" type="line"/>
      <point x="195" y="476" type="line"/>
      <point x="140" y="476" type="line"/>
    </contour>
    <contour>
      <point x="285" y="-30" type="line"/>
      <point x="340" y="-30" type="line"/>
      <point x="340" y="476" type="line"/>
      <point x="285" y="476" type="line"/>
    </contour>
  </outline>
</glyph>
<glyph name="abbreviationsigndeva" format="1">
  <advance width="263"/>
  <unicode hex="0970"/>
  <outline>
    <contour>
      <point x="166" y="100"/>
      <point x="213" y="147"/>
      <point x="213" y="204" type="curve" smooth="yes"/>
      <point x="213" y="261"/>
      <point x="166" y="308"/>
      <point x="109" y="308" type="curve" smooth="yes"/>
      <point x="52" y="308"/>
      <point x="5" y="261"/>
      <point x="5" y="204" type="curve" smooth="yes"/>
      <point x="5" y="147"/>
      <point x="52" y="100"/>
      <point x="109" y="100" type="curve" smooth="yes"/>
    </contour>
    <contour>
      <point x="80" y="154"/>
      <point x="58" y="176"/>
      <point x="58" y="205" type="curve" smooth="yes"/>
      <point x="58" y="234"/>
      <point x="80" y="256"/>
      <point x="109" y="256" type="curve" smooth="yes"/>
      <point x="138" y="256"/>
      <point x="160" y="234"/>
      <point x="160" y="205" type="curve" smooth="yes"/>
      <point x="160" y="176"/>
      <point x="138" y="154"/>
      <point x="109" y="154" type="curve" smooth="yes"/>
    </contour>
  </outline>
</glyph>
<glyph name="uni0974" format="1">
  <advance width="799"/>
  <unicode hex="0974"/>
  <outline>
    <contour>
      <point x="671" y="440" type="line"/>
      <point x="725" y="440" type="line"/>
      <point x="725" y="550" type="line"/>
      <point x="671" y="550" type="line"/>
    </contour>
    <component base="aadeva"/>
  </outline>
</glyph>
<glyph name="uni0975" format="1">
  <advance width="799"/>
  <unicode hex="0975"/>
  <outline>
    <contour>
      <point x="700" y="560"/>
      <point x="592" y="562"/>
      <point x="533" y="565" type="curve" smooth="yes"/>
      <point x="488" y="567"/>
      <point x="466" y="581"/>
      <point x="458" y="638" type="curve"/>
      <point x="411" y="621" type="line"/>
      <point x="418" y="520"/>
      <point x="508" y="516"/>
      <point x="544" y="516" type="curve" smooth="yes"/>
      <point x="624" y="516"/>
      <point x="655" y="495"/>
      <point x="655" y="437" type="curve"/>
      <point x="700" y="437" type="line"/>
    </contour>
    <contour>
      <point x="756" y="469"/>
      <point x="760" y="487"/>
      <point x="760" y="503" type="curve" smooth="yes"/>
      <point x="760" y="584"/>
      <point x="699" y="602"/>
      <point x="643" y="629" type="curve" smooth="yes"/>
      <point x="612" y="644"/>
      <point x="595" y="659"/>
      <point x="595" y="692" type="curve" smooth="yes"/>
      <point x="595" y="700"/>
      <point x="596" y="711"/>
      <point x="599" y="723" type="curve"/>
      <point x="550" y="725" type="line"/>
      <point x="545" y="710"/>
      <point x="543" y="697"/>
      <point x="543" y="684" type="curve" smooth="yes"/>
      <point x="543" y="617"/>
      <point x="607" y="589"/>
      <point x="636" y="578" type="curve" smooth="yes"/>
      <point x="689" y="558"/>
      <point x="712" y="539"/>
      <point x="712" y="501" type="curve" smooth="yes"/>
      <point x="712" y="491"/>
      <point x="710" y="479"/>
      <point x="705" y="467" type="curve"/>
      <point x="696" y="449" type="line"/>
      <point x="740" y="426" type="line"/>
      <point x="747" y="449" type="line"/>
    </contour>
    <component base="aadeva"/>
  </outline>
</glyph>
<glyph name="uni0976" format="1">
  <advance width="600"/>
  <unicode hex="0976"/>
  <outline>
    <contour>
      <point x="405" y="-131"/>
      <point x="455" y="-106"/>
      <point x="474" y="-57" type="curve"/>
      <point x="434" y="-33" type="line"/>
      <point x="416" y="-68"/>
      <point x="390" y="-83"/>
      <point x="349" y="-83" type="curve" smooth="yes"/>
      <point x="308" y="-83"/>
      <point x="282" y="-68"/>
      <point x="264" y="-33" type="curve"/>
      <point x="224" y="-57" type="line"/>
      <point x="243" y="-106"/>
      <point x="293" y="-131"/>
      <point x="349" y="-131" type="curve" smooth="yes"/>
    </contour>
    <component base="adeva"/>
  </outline>
</glyph>
<glyph name="uni097E" format="1">
  <advance width="405"/>
  <unicode hex="097E"/>
  <outline>
    <contour>
      <point x="-28" y="456" type="line"/>
      <point x="-28" y="408" type="line"/>
      <point x="429" y="408" type="line"/>
      <point x="429" y="456" type="line"/>
    </contour>
    <contour>
      <point x="280" y="171"/>
      <point x="309" y="153"/>
      <point x="309" y="116" type="curve" smooth="yes"/>
      <point x="309" y="73"/>
      <point x="268" y="52"/>
      <point x="224" y="52" type="curve" smooth="yes"/>
      <point x="165" y="52"/>
      <point x="116" y="81"/>
      <point x="68" y="128" type="curve"/>
      <point x="34" y="91" type="line"/>
      <point x="86" y="38"/>
      <point x="149" y="0"/>
      <point x="225" y="0" type="curve" smooth="yes"/>
      <point x="306" y="0"/>
      <point x="363" y="46"/>
      <point x="363" y="120" type="curve" smooth="yes"/>
      <point x="363" y="181"/>
      <point x="310" y="220"/>
      <point x="238" y="216" type="curve" smooth="yes"/>
      <point x="186" y="213"/>
      <point x="133" y="212"/>
      <point x="133" y="256" type="curve" smooth="yes"/>
      <point x="133" y="284"/>
      <point x="156" y="294"/>
      <point x="206" y="294" type="curve" smooth="yes"/>
      <point x="268" y="294"/>
      <point x="285" y="289"/>
      <point x="320" y="285" type="curve"/>
      <point x="330" y="292" type="line"/>
      <point x="330" y="456" type="line"/>
      <point x="274" y="456" type="line"/>
      <point x="274" y="343" type="line"/>
      <point x="253" y="345"/>
      <point x="241" y="346"/>
      <point x="208" y="346" type="curve" smooth="yes"/>
      <point x="131" y="346"/>
      <point x="80" y="322"/>
      <point x="80" y="259" type="curve" smooth="yes"/>
      <point x="80" y="162"/>
      <point x="182" y="161"/>
      <point x="220" y="165" type="curve" smooth="yes"/>
    </contour>
    <contour>
      <point x="34" y="-50" type="line"/>
      <point x="34" y="-98" type="line"/>
      <point x="363" y="-98" type="line"/>
      <point x="363" y="-50" type="line"/>
    </contour>
  </outline>
</glyph>
<glyph name="endash" format="1">
  <advance width="436"/>
  <unicode hex="2013"/>
  <outline>
    <contour>
      <point x="40" y="190" type="line"/>
      <point x="376" y="190" type="line"/>
      <point x="376" y="237" type="line"/>
      <point x="40" y="237" type="line"/>
    </contour>
  </outline>
</glyph>
<glyph name="ellipsis" format="1">
  <advance width="521"/>
  <unicode hex="2026"/>
  <outline>
    <contour>
      <point x="135" y="-3"/>
      <point x="151" y="16"/>
      <point x="151" y="40" type="curve" smooth="yes"/>
      <point x="151" y="64"/>
      <point x="135" y="83"/>
      <point x="108" y="83" type="curve" smooth="yes"/>
      <point x="81" y="83"/>
      <point x="65" y="64"/>
      <point x="65" y="40" type="curve" smooth="yes"/>
      <point x="65" y="16"/>
      <point x="81" y="-3"/>
      <point x="108" y="-3" type="curve" smooth="yes"/>
    </contour>
    <contour>
      <point x="287" y="-3"/>
      <point x="303" y="16"/>
      <point x="303" y="40" type="curve" smooth="yes"/>
      <point x="303" y="64"/>
      <point x="287" y="83"/>
      <point x="260" y="83" type="curve" smooth="yes"/>
      <point x="233" y="83"/>
      <point x="217" y="64"/>
      <point x="217" y="40" type="curve" smooth="yes"/>
      <point x="217" y="16"/>
      <point x="233" y="-3"/>
      <point x="260" y="-3" type="curve" smooth="yes"/>
    </contour>
    <contour>
      <point x="440" y="-3"/>
      <point x="456" y="16"/>
      <point x="456" y="40" type="curve" smooth="yes"/>
      <point x="456" y="64"/>
      <point x="440" y="83"/>
      <point x="413" y="83" type="curve" smooth="yes"/>
      <point x="386" y="83"/>
      <point x="370" y="64"/>
      <point x="370" y="40" type="curve" smooth="yes"/>
      <point x="370" y="16"/>
      <point x="386" y="-3"/>
      <point x="413" y="-3" type="curve" smooth="yes"/>
    </contour>
  </outline>
</glyph>
<glyph name="fi" format="1">
  <advance width="469"/>
  <unicode hex="FB01"/>
  <outline>
    <contour>
      <point x="243" y="503"/>
      <point x="256" y="500"/>
      <point x="271" y="497" type="curve"/>
      <point x="284" y="544" type="line"/>
      <point x="261" y="550"/>
      <point x="241" y="554"/>
      <point x="211" y="554" type="curve" smooth="yes"/>
      <point x="157" y="554"/>
      <point x="118" y="534"/>
      <point x="96" y="495" type="curve" smooth="yes"/>
      <point x="87" y="479"/>
      <point x="83" y="455"/>
      <point x="83" y="423" type="curve" smooth="yes"/>
      <point x="83" y="384" type="line"/>
      <point x="28" y="384" type="line"/>
      <point x="28" y="333" type="line"/>
      <point x="85" y="333" type="line"/>
      <point x="85" y="0" type="line"/>
      <point x="150" y="0" type="line"/>
      <point x="150" y="333" type="line"/>
      <point x="266" y="333" type="line"/>
      <point x="266" y="384" type="line"/>
      <point x="149" y="384" type="line"/>
      <point x="149" y="426" type="line"/>
      <point x="149" y="488"/>
      <point x="186" y="503"/>
      <point x="231" y="503" type="curve" smooth="yes"/>
    </contour>
    <contour>
      <point x="346" y="0" type="line"/>
      <point x="411" y="0" type="line"/>
      <point x="411" y="384" type="line"/>
      <point x="346" y="384" type="line"/>
    </contour>
    <contour>
      <point x="403" y="458"/>
      <point x="420" y="478"/>
      <point x="420" y="500" type="curve" smooth="yes"/>
      <point x="420" y="521"/>
      <point x="403" y="541"/>
      <point x="379" y="541" type="curve" smooth="yes"/>
      <point x="354" y="541"/>
      <point x="337" y="521"/>
      <point x="337" y="500" type="curve" smooth="yes"/>
      <point x="337" y="478"/>
      <point x="354" y="458"/>
      <point x="379" y="458" type="curve" smooth="yes"/>
    </contour>
  </outline>
</glyph>
<glyph name="aideva_candrabindudeva" format="1">
  <advance width="408"/>
  <outline>
    <contour>
      <point x="445" y="519"/>
      <point x="478" y="547"/>
      <point x="490" y="589" type="curve"/>
      <point x="456" y="605" type="line"/>
      <point x="443" y="572"/>
      <point x="420" y="556"/>
      <point x="393" y="556" type="curve" smooth="yes"/>
      <point x="367" y="556"/>
      <point x="343" y="572"/>
      <point x="331" y="605" type="curve"/>
      <point x="296" y="590" type="line"/>
      <point x="309" y="548"/>
      <point x="342" y="519"/>
      <point x="393" y="519" type="curve" smooth="yes"/>
    </contour>
    <contour>
      <point x="410" y="592"/>
      <point x="419" y="605"/>
      <point x="419" y="617" type="curve" smooth="yes"/>
      <point x="419" y="630"/>
      <point x="410" y="642"/>
      <point x="394" y="642" type="curve" smooth="yes"/>
      <point x="378" y="642"/>
      <point x="369" y="630"/>
      <point x="369" y="617" type="curve" smooth="yes"/>
      <point x="369" y="605"/>
      <point x="378" y="592"/>
      <point x="394" y="592" type="curve" smooth="yes"/>
    </contour>
    <contour>
      <point x="239" y="588" type="line"/>
      <point x="208" y="624"/>
      <point x="190" y="637"/>
      <point x="152" y="637" type="curve" smooth="yes"/>
      <point x="120" y="637"/>
      <point x="90" y="622"/>
      <point x="90" y="622" type="curve" smooth="yes"/>
      <point x="90" y="622"/>
      <point x="111" y="575"/>
      <point x="111" y="575" type="curve" smooth="yes"/>
      <point x="111" y="575"/>
      <point x="130" y="586"/>
      <point x="152" y="586" type="curve" smooth="yes"/>
      <point x="173" y="586"/>
      <point x="182" y="578"/>
      <point x="198" y="559" type="curve"/>
      <point x="295" y="437" type="line"/>
      <point x="357" y="437" type="line"/>
    </contour>
    <component base="edeva"/>
  </outline>
</glyph>
<glyph name="aivowelsigndeva_uni0930094D_anu" format="1">
  <advance width="0"/>
  <outline>
    <contour>
      <point x="-7" y="512"/>
      <point x="4" y="525"/>
      <point x="4" y="540" type="curve" smooth="yes"/>
      <point x="4" y="556"/>
      <point x="-7" y="569"/>
      <point x="-25" y="569" type="curve" smooth="yes"/>
      <point x="-42" y="569"/>
      <point x="-53" y="556"/>
      <point x="-53" y="540" type="curve" smooth="yes"/>
      <point x="-53" y="525"/>
      <point x="-42" y="512"/>
      <point x="-25" y="512" type="curve" smooth="yes"/>
    </contour>
    <contour>
      <point x="-64" y="461"/>
      <point x="-92" y="519"/>
      <point x="-92" y="547" type="curve" smooth="yes"/>
      <point x="-92" y="591"/>
      <point x="-59" y="606"/>
      <point x="-30" y="606" type="curve" smooth="yes"/>
      <point x="-4" y="606"/>
      <point x="23" y="589"/>
      <point x="40" y="578" type="curve"/>
      <point x="67" y="620" type="line"/>
      <point x="43" y="636"/>
      <point x="9" y="654"/>
      <point x="-33" y="654" type="curve" smooth="yes"/>
      <point x="-69" y="654"/>
      <point x="-104" y="634"/>
      <point x="-120" y="599" type="curve"/>
      <point x="-136" y="637"/>
      <point x="-156" y="679"/>
      <point x="-206" y="679" type="curve" smooth="yes"/>
      <point x="-232" y="679"/>
      <point x="-260" y="671"/>
      <point x="-260" y="671" type="curve"/>
      <point x="-249" y="623" type="line"/>
      <point x="-249" y="623"/>
      <point x="-224" y="629"/>
      <point x="-209" y="629" type="curve" smooth="yes"/>
      <point x="-180" y="629"/>
      <point x="-166" y="594"/>
      <point x="-153" y="566" type="curve" smooth="yes"/>
      <point x="-106" y="467" type="line"/>
      <point x="-191" y="541" type="line"/>
      <point x="-232" y="575"/>
      <point x="-250" y="595"/>
      <point x="-287" y="595" type="curve" smooth="yes"/>
      <point x="-309" y="595"/>
      <point x="-344" y="582"/>
      <point x="-344" y="582" type="curve"/>
      <point x="-330" y="536" type="line"/>
      <point x="-330" y="536"/>
      <point x="-305" y="545"/>
      <point x="-290" y="545" type="curve" smooth="yes"/>
      <point x="-269" y="545"/>
      <point x="-244" y="522"/>
      <point x="-210" y="498" type="curve" smooth="yes"/>
      <point x="-123" y="437" type="line"/>
      <point x="-52" y="437" type="line"/>
    </contour>
    <contour>
      <point x="-103" y="447" type="move" name="_top"/>
    </contour>
  </outline>
</glyph>
<glyph name="aivowelsigndeva_uni0930094D_can" format="1">
  <advance width="0"/>
  <outline>
    <contour>
      <point x="-64" y="461"/>
      <point x="-92" y="519"/>
      <point x="-92" y="547" type="curve" smooth="yes"/>
      <point x="-92" y="591"/>
      <point x="-59" y="606"/>
      <point x="-30" y="606" type="curve" smooth="yes"/>
      <point x="-17" y="606"/>
      <point x="-3" y="603"/>
      <point x="9" y="598" type="curve"/>
      <point x="25" y="643" type="line"/>
      <point x="8" y="650"/>
      <point x="-4" y="654"/>
      <point x="-33" y="654" type="curve" smooth="yes"/>
      <point x="-69" y="654"/>
      <point x="-104" y="634"/>
      <point x="-120" y="599" type="curve"/>
      <point x="-136" y="637"/>
      <point x="-156" y="679"/>
      <point x="-206" y="679" type="curve" smooth="yes"/>
      <point x="-232" y="679"/>
      <point x="-260" y="671"/>
      <point x="-260" y="671" type="curve"/>
      <point x="-249" y="623" type="line"/>
      <point x="-249" y="623"/>
      <point x="-224" y="629"/>
      <point x="-209" y="629" type="curve" smooth="yes"/>
      <point x="-180" y="629"/>
      <point x="-166" y="594"/>
      <point x="-153" y="566" type="curve" smooth="yes"/>
      <point x="-106" y="467" type="line"/>
      <point x="-191" y="541" type="line"/>
      <point x="-232" y="575"/>
      <point x="-250" y="595"/>
      <point x="-287" y="595" type="curve" smooth="yes"/>
      <point x="-309" y="595"/>
      <point x="-344" y="582"/>
      <point x="-344" y="582" type="curve"/>
      <point x="-330" y="536" type="line"/>
      <point x="-330" y="536"/>
      <point x="-305" y="545"/>
      <point x="-290" y="545" type="curve" smooth="yes"/>
      <point x="-269" y="545"/>
      <point x="-244" y="522"/>
      <point x="-210" y="498" type="curve" smooth="yes"/>
      <point x="-123" y="437" type="line"/>
      <point x="-52" y="437" type="line"/>
    </contour>
    <contour>
      <point x="104" y="479"/>
      <point x="137" y="507"/>
      <point x="149" y="549" type="curve"/>
      <point x="115" y="565" type="line"/>
      <point x="102" y="532"/>
      <point x="79" y="516"/>
      <point x="52" y="516" type="curve" smooth="yes"/>
      <point x="26" y="516"/>
      <point x="2" y="532"/>
      <point x="-10" y="565" type="curve"/>
      <point x="-45" y="550" type="line"/>
      <point x="-32" y="508"/>
      <point x="1" y="479"/>
      <point x="52" y="479" type="curve" smooth="yes"/>
    </contour>
    <contour>
      <point x="69" y="552"/>
      <point x="78" y="565"/>
      <point x="78" y="577" type="curve" smooth="yes"/>
      <point x="78" y="590"/>
      <point x="69" y="602"/>
      <point x="53" y="602" type="curve" smooth="yes"/>
      <point x="37" y="602"/>
      <point x="28" y="590"/>
      <point x="28" y="577" type="curve" smooth="yes"/>
      <point x="28" y="565"/>
      <point x="37" y="552"/>
      <point x="53" y="552" type="curve" smooth="yes"/>
    </contour>
    <contour>
      <point x="-103" y="447" type="move" name="_top"/>
    </contour>
  </outline>
</glyph>
<glyph name="cedilla.cap" format="1">
  <advance width="204"/>
  <outline>
    <contour>
      <point x="89" y="-171"/>
      <point x="67" y="-166"/>
      <point x="33" y="-157" type="curve"/>
      <point x="20" y="-153" type="line"/>
      <point x="5" y="-206" type="line"/>
      <point x="19" y="-209" type="line"/>
      <point x="40" y="-217"/>
      <point x="57" y="-220"/>
      <point x="64" y="-221" type="curve"/>
      <point x="76" y="-225"/>
      <point x="84" y="-226"/>
      <point x="103" y="-226" type="curve" smooth="yes"/>
      <point x="160" y="-226"/>
      <point x="199" y="-190"/>
      <point x="199" y="-145" type="curve" smooth="yes"/>
      <point x="199" y="-82"/>
      <point x="152" y="-67"/>
      <point x="116" y="-57" type="curve"/>
      <point x="104" y="-52" type="line"/>
      <point x="118" y="9" type="line"/>
      <point x="57" y="9" type="line"/>
      <point x="36" y="-91" type="line"/>
      <point x="99" y="-106" type="line" smooth="yes"/>
      <point x="117" y="-110"/>
      <point x="142" y="-121"/>
      <point x="142" y="-142" type="curve" smooth="yes"/>
      <point x="142" y="-164"/>
      <point x="124" y="-174"/>
      <point x="99" y="-172" type="curve" smooth="yes"/>
    </contour>
    <contour>
      <point x="87" y="0" type="move" name="_bottom"/>
    </contour>
  </outline>
</glyph>
<glyph name="dddh_ra-deva" format="1">
  <advance width="405"/>
  <outline>
    <contour>
      <point x="93" y="-220" type="line"/>
      <point x="125" y="-257" type="line"/>
      <point x="215" y="-191" type="line"/>
      <point x="305" y="-257" type="line"/>
      <point x="337" y="-220" type="line"/>
      <point x="229" y="-141" type="line"/>
      <point x="201" y="-141" type="line"/>
    </contour>
    <component base="dddhadeva"/>
    <contour>
      <point x="302" y="447" type="move" name="top"/>
    </contour>
    <contour>
      <point x="235" y="-255" type="move" name="bottom"/>
    </contour>
  </outline>
</glyph>
<glyph name="dieresis.cap" format="1">
  <advance width="232"/>
  <outline>
    <contour>
      <point x="57" y="615"/>
      <point x="74" y="632"/>
      <point x="74" y="652" type="curve" smooth="yes"/>
      <point x="74" y="672"/>
      <point x="57" y="689"/>
      <point x="37" y="689" type="curve" smooth="yes"/>
      <point x="17" y="689"/>
      <point x="0" y="672"/>
      <point x="0" y="652" type="curve" smooth="yes"/>
      <point x="0" y="632"/>
      <point x="17" y="615"/>
      <point x="37" y="615" type="curve" smooth="yes"/>
    </contour>
    <contour>
      <point x="215" y="615"/>
      <point x="232" y="632"/>
      <point x="232" y="652" type="curve" smooth="yes"/>
      <point x="232" y="672"/>
      <point x="215" y="689"/>
      <point x="195" y="689" type="curve" smooth="yes"/>
      <point x="175" y="689"/>
      <point x="158" y="672"/>
      <point x="158" y="652" type="curve" smooth="yes"/>
      <point x="158" y="632"/>
      <point x="175" y="615"/>
      <point x="195" y="615" type="curve" smooth="yes"/>
    </contour>
    <contour>
      <point x="117" y="550" type="move" name="_top.cap"/>
    </contour>
  </outline>
</glyph>
<glyph name="evowelsigndeva_anusvaradeva" format="1">
  <advance width="0"/>
  <outline>
    <component base="evowelsigndeva"/>
    <component base="anusvaradeva" xOffset="10" yOffset="29"/>
    <contour>
      <point x="-104" y="447" type="move" name="_top"/>
    </contour>
  </outline>
</glyph>
<glyph name="evowelsigndeva_uni0930094D" format="1">
  <advance width="0"/>
  <outline>
    <contour>
      <point x="-81" y="461"/>
      <point x="-136" y="513"/>
      <point x="-136" y="550" type="curve" smooth="yes"/>
      <point x="-136" y="591"/>
      <point x="-103" y="604"/>
      <point x="-73" y="604" type="curve" smooth="yes"/>
      <point x="-47" y="604"/>
      <point x="-21" y="589"/>
      <point x="-4" y="578" type="curve"/>
      <point x="23" y="620" type="line"/>
      <point x="-1" y="636"/>
      <point x="-35" y="654"/>
      <point x="-77" y="654" type="curve" smooth="yes"/>
      <point x="-118" y="654"/>
      <point x="-161" y="630"/>
      <point x="-171" y="580" type="curve"/>
      <point x="-182" y="594" type="line"/>
      <point x="-213" y="630"/>
      <point x="-231" y="643"/>
      <point x="-269" y="643" type="curve" smooth="yes"/>
      <point x="-301" y="643"/>
      <point x="-331" y="628"/>
      <point x="-331" y="628" type="curve"/>
      <point x="-310" y="581" type="line"/>
      <point x="-310" y="581"/>
      <point x="-291" y="592"/>
      <point x="-269" y="592" type="curve" smooth="yes"/>
      <point x="-250" y="592"/>
      <point x="-240" y="584"/>
      <point x="-224" y="565" type="curve"/>
      <point x="-121" y="437" type="line"/>
      <point x="-59" y="437" type="line"/>
    </contour>
    <contour>
      <point x="-104" y="447" type="move" name="_top"/>
    </contour>
  </outline>
</glyph>
<glyph name="hungarumlaut.cap" format="1">
  <advance width="411"/>
  <outline>
    <contour>
      <point x="5" y="627" type="line"/>
      <point x="27" y="586" type="line"/>
      <point x="198" y="652" type="line"/>
      <point x="171" y="705" type="line"/>
    </contour>
    <contour>
      <point x="213" y="627" type="line"/>
      <point x="235" y="586" type="line"/>
      <point x="406" y="652" type="line"/>
      <point x="379" y="705" type="line"/>
    </contour>
    <contour>
      <point x="143" y="550" type="move" name="_top.cap"/>
    </contour>
  </outline>
</glyph>
<glyph name="iiMatra_reph-deva.alt2" format="1">
  <advance width="208"/>
  <outline>
    <contour>
      <point x="132" y="456" type="line"/>
      <point x="123" y="476"/>
      <point x="105" y="509"/>
      <point x="105" y="545" type="curve" smooth="yes"/>
      <point x="105" y="582"/>
      <point x="131" y="598"/>
      <point x="161" y="598" type="curve" smooth="yes"/>
      <point x="188" y="598"/>
      <point x="220" y="585"/>
      <point x="237" y="573" type="curve"/>
      <point x="264" y="615" type="line"/>
      <point x="240" y="634"/>
      <point x="196" y="649"/>
      <point x="164" y="649" type="curve" smooth="yes"/>
      <point x="113" y="649"/>
      <point x="70" y="627"/>
      <point x="57" y="582" type="curve"/>
      <point x="12" y="625"/>
      <point x="-43" y="649"/>
      <point x="-88" y="649" type="curve" smooth="yes"/>
      <point x="-174" y="649"/>
      <point x="-237" y="598"/>
      <point x="-237" y="530" type="curve" smooth="yes"/>
      <point x="-237" y="472"/>
      <point x="-193" y="439"/>
      <point x="-188" y="439" type="curve" smooth="yes"/>
      <point x="-124" y="439" type="line"/>
      <point x="-145" y="452"/>
      <point x="-184" y="485"/>
      <point x="-184" y="527" type="curve" smooth="yes"/>
      <point x="-184" y="576"/>
      <point x="-140" y="597"/>
      <point x="-88" y="597" type="curve" smooth="yes"/>
      <point x="-44" y="597"/>
      <point x="42" y="563"/>
      <point x="76" y="456" type="curve"/>
      <point x="-24" y="456" type="line"/>
      <point x="-24" y="408" type="line"/>
      <point x="80" y="408" type="line"/>
      <point x="80" y="0" type="line"/>
      <point x="135" y="0" type="line"/>
      <point x="135" y="408" type="line"/>
      <point x="232" y="408" type="line"/>
      <point x="232" y="456" type="line"/>
    </contour>
  </outline>
</glyph>
<glyph name="iiMatra_reph_anusvara-deva.alt1" format="1">
  <advance width="232"/>
  <outline>
    <contour>
      <point x="131" y="456" type="line"/>
      <point x="113" y="486"/>
      <point x="96" y="516"/>
      <point x="96" y="545" type="curve" smooth="yes"/>
      <point x="96" y="589"/>
      <point x="124" y="598"/>
      <point x="159" y="598" type="curve" smooth="yes"/>
      <point x="181" y="598"/>
      <point x="212" y="585"/>
      <point x="229" y="573" type="curve"/>
      <point x="256" y="615" type="line"/>
      <point x="232" y="634"/>
      <point x="188" y="649"/>
      <point x="156" y="649" type="curve" smooth="yes"/>
      <point x="104" y="649"/>
      <point x="62" y="626"/>
      <point x="49" y="580" type="curve"/>
      <point x="-2" y="623"/>
      <point x="-70" y="649"/>
      <point x="-151" y="649" type="curve" smooth="yes"/>
      <point x="-265" y="649"/>
      <point x="-329" y="598"/>
      <point x="-328" y="535" type="curve" smooth="yes"/>
      <point x="-327" y="465"/>
      <point x="-280" y="439"/>
      <point x="-280" y="439" type="curve"/>
      <point x="-214" y="439" type="line"/>
      <point x="-233" y="454"/>
      <point x="-275" y="480"/>
      <point x="-275" y="533" type="curve" smooth="yes"/>
      <point x="-275" y="573"/>
      <point x="-228" y="600"/>
      <point x="-149" y="600" type="curve" smooth="yes"/>
      <point x="-49" y="600"/>
      <point x="42" y="554"/>
      <point x="75" y="456" type="curve"/>
      <point x="-24" y="456" type="line"/>
      <point x="-24" y="408" type="line"/>
      <point x="80" y="408" type="line"/>
      <point x="80" y="0" type="line"/>
      <point x="135" y="0" type="line"/>
      <point x="135" y="408" type="line"/>
      <point x="232" y="408" type="line"/>
      <point x="232" y="456" type="line"/>
    </contour>
    <contour>
      <point x="191" y="496"/>
      <point x="202" y="509"/>
      <point x="202" y="524" type="curve" smooth="yes"/>
      <point x="202" y="540"/>
      <point x="191" y="553"/>
      <point x="173" y="553" type="curve" smooth="yes"/>
      <point x="156" y="553"/>
      <point x="145" y="540"/>
      <point x="145" y="524" type="curve" smooth="yes"/>
      <point x="145" y="509"/>
      <point x="156" y="496"/>
      <point x="173" y="496" type="curve" smooth="yes"/>
    </contour>
  </outline>
</glyph>
<glyph name="iiMatra_reph_anusvara-deva.alt2" format="1">
  <advance width="208"/>
  <outline>
    <contour>
      <point x="194" y="496"/>
      <point x="205" y="509"/>
      <point x="205" y="524" type="curve" smooth="yes"/>
      <point x="205" y="540"/>
      <point x="194" y="553"/>
      <point x="176" y="553" type="curve" smooth="yes"/>
      <point x="159" y="553"/>
      <point x="148" y="540"/>
      <point x="148" y="524" type="curve" smooth="yes"/>
      <point x="148" y="509"/>
      <point x="159" y="496"/>
      <point x="176" y="496" type="curve" smooth="yes"/>
    </contour>
    <component base="iiMatra_reph-deva.alt2"/>
  </outline>
</glyph>
<glyph name="jhadeva.NEP" format="1">
  <advance width="687"/>
  <outline>
    <contour>
      <point x="376" y="0" type="line"/>
      <point x="432" y="0" type="line"/>
      <point x="432" y="456" type="line"/>
      <point x="376" y="456" type="line"/>
    </contour>
    <contour>
      <point x="213" y="135" type="line"/>
      <point x="213" y="320" type="line" smooth="yes"/>
      <point x="213" y="412"/>
      <point x="188" y="466"/>
      <point x="117" y="466" type="curve" smooth="yes"/>
      <point x="72" y="466"/>
      <point x="31" y="434"/>
      <point x="31" y="379" type="curve" smooth="yes"/>
      <point x="31" y="343"/>
      <point x="55" y="306"/>
      <point x="104" y="280" type="curve"/>
      <point x="131" y="321" type="line"/>
      <point x="107" y="335"/>
      <point x="84" y="351"/>
      <point x="84" y="379" type="curve" smooth="yes"/>
      <point x="84" y="399"/>
      <point x="98" y="413"/>
      <point x="117" y="413" type="curve" smooth="yes"/>
      <point x="163" y="413"/>
      <point x="158" y="339"/>
      <point x="158" y="320" type="curve" smooth="yes"/>
      <point x="158" y="135" type="line"/>
    </contour>
    <contour>
      <point x="280" y="456" type="line"/>
      <point x="280" y="408" type="line"/>
      <point x="711" y="408" type="line"/>
      <point x="711" y="456" type="line"/>
    </contour>
    <contour>
      <point x="94" y="199" type="line"/>
      <point x="94" y="166" type="line"/>
      <point x="175" y="70" type="line"/>
      <point x="175" y="70"/>
      <point x="213" y="70"/>
      <point x="213" y="70" type="curve"/>
      <point x="213" y="199" type="line"/>
    </contour>
    <contour>
      <point x="182" y="199" type="line"/>
      <point x="182" y="151" type="line"/>
      <point x="421" y="151" type="line"/>
      <point x="421" y="199" type="line"/>
    </contour>
    <contour>
      <point x="662" y="270"/>
      <point x="608" y="325"/>
      <point x="525" y="325" type="curve" smooth="yes"/>
      <point x="473" y="325"/>
      <point x="430" y="292"/>
      <point x="403" y="274" type="curve"/>
      <point x="417" y="217" type="line"/>
      <point x="433" y="229"/>
      <point x="475" y="272"/>
      <point x="521" y="272" type="curve" smooth="yes"/>
      <point x="575" y="272"/>
      <point x="606" y="244"/>
      <point x="606" y="197" type="curve" smooth="yes"/>
      <point x="606" y="146"/>
      <point x="569" y="118"/>
      <point x="540" y="91" type="curve"/>
      <point x="579" y="52" type="line"/>
      <point x="616" y="81"/>
      <point x="662" y="128"/>
      <point x="662" y="191" type="curve" smooth="yes"/>
    </contour>
    <contour>
      <point x="404" y="447" type="move" name="top"/>
    </contour>
    <contour>
      <point x="404" y="5" type="move" name="bottom"/>
    </contour>
  </outline>
</glyph>
<glyph name="odeva_anusvaradeva" format="1">
  <advance width="795"/>
  <outline>
    <contour>
      <point x="772" y="519"/>
      <point x="786" y="535"/>
      <point x="786" y="555" type="curve" smooth="yes"/>
      <point x="786" y="576"/>
      <point x="772" y="592"/>
      <point x="749" y="592" type="curve" smooth="yes"/>
      <point x="727" y="592"/>
      <point x="713" y="576"/>
      <point x="713" y="555" type="curve" smooth="yes"/>
      <point x="713" y="535"/>
      <point x="727" y="519"/>
      <point x="749" y="519" type="curve" smooth="yes"/>
    </contour>
    <component base="odeva"/>
  </outline>
</glyph>
<glyph name="rashtra-deva" format="1">
  <advance width="274"/>
  <outline>
    <contour>
      <point x="15" y="-100" type="line"/>
      <point x="47" y="-137" type="line"/>
      <point x="137" y="-71" type="line"/>
      <point x="227" y="-137" type="line"/>
      <point x="259" y="-100" type="line"/>
      <point x="151" y="-21" type="line"/>
      <point x="123" y="-21" type="line"/>
    </contour>
    <contour>
      <point x="137" y="-25" type="move" name="_bottom"/>
    </contour>
  </outline>
</glyph>
<glyph name="rh_ra-deva" format="1">
  <advance width="396"/>
  <outline>
    <contour>
      <point x="83" y="-220" type="line"/>
      <point x="115" y="-257" type="line"/>
      <point x="205" y="-191" type="line"/>
      <point x="295" y="-257" type="line"/>
      <point x="327" y="-220" type="line"/>
      <point x="219" y="-141" type="line"/>
      <point x="191" y="-141" type="line"/>
    </contour>
    <component base="rhadeva"/>
    <contour>
      <point x="288" y="447" type="move" name="top"/>
    </contour>
    <contour>
      <point x="221" y="-255" type="move" name="bottom"/>
    </contour>
  </outline>
</glyph>
<glyph name="tilde.cap" format="1">
  <advance width="278"/>
  <outline>
    <contour>
      <point x="46" y="687"/>
      <point x="16" y="655"/>
      <point x="5" y="607" type="curve"/>
      <point x="50" y="593" type="line"/>
      <point x="58" y="620"/>
      <point x="67" y="637"/>
      <point x="90" y="637" type="curve" smooth="yes"/>
      <point x="114" y="637"/>
      <point x="140" y="594"/>
      <point x="186" y="594" type="curve" smooth="yes"/>
      <point x="233" y="594"/>
      <point x="264" y="626"/>
      <point x="273" y="673" type="curve"/>
      <point x="227" y="687" type="line"/>
      <point x="220" y="658"/>
      <point x="210" y="642"/>
      <point x="184" y="642" type="curve" smooth="yes"/>
      <point x="159" y="642"/>
      <point x="127" y="687"/>
      <point x="89" y="687" type="curve" smooth="yes"/>
    </contour>
    <contour>
      <point x="137" y="550" type="move" name="_top.cap"/>
    </contour>
  </outline>
</glyph>
<glyph name="uni0915094D" format="1">
  <advance width="422"/>
  <outline>
    <contour>
      <point x="258" y="0" type="line"/>
      <point x="311" y="0" type="line"/>
      <point x="311" y="456" type="line"/>
      <point x="258" y="456" type="line"/>
    </contour>
    <contour>
      <point x="-28" y="456" type="line"/>
      <point x="-28" y="408" type="line"/>
      <point x="447" y="408" type="line"/>
      <point x="447" y="456" type="line"/>
    </contour>
    <contour>
      <point x="29" y="124"/>
      <point x="89" y="73"/>
      <point x="172" y="73" type="curve" smooth="yes"/>
      <point x="234" y="73"/>
      <point x="267" y="100"/>
      <point x="294" y="118" type="curve"/>
      <point x="280" y="169" type="line"/>
      <point x="264" y="157"/>
      <point x="238" y="124"/>
      <point x="181" y="124" type="curve" smooth="yes"/>
      <point x="122" y="124"/>
      <point x="85" y="151"/>
      <point x="85" y="205" type="curve" smooth="yes"/>
      <point x="85" y="258"/>
      <point x="122" y="286"/>
      <point x="176" y="286" type="curve" smooth="yes"/>
      <point x="228" y="286"/>
      <point x="264" y="253"/>
      <point x="280" y="241" type="curve"/>
      <point x="294" y="292" type="line"/>
      <point x="267" y="310"/>
      <point x="224" y="337"/>
      <point x="172" y="337" type="curve" smooth="yes"/>
      <point x="89" y="337"/>
      <point x="29" y="286"/>
      <point x="29" y="205" type="curve" smooth="yes"/>
    </contour>
    <contour>
      <point x="522" y="269" type="line"/>
      <point x="483" y="315"/>
      <point x="443" y="333"/>
      <point x="386" y="333" type="curve" smooth="yes"/>
      <point x="334" y="333"/>
      <point x="283" y="296"/>
      <point x="256" y="278" type="curve"/>
      <point x="270" y="227" type="line"/>
      <point x="286" y="239"/>
      <point x="339" y="282"/>
      <point x="385" y="282" type="curve" smooth="yes"/>
      <point x="439" y="282"/>
      <point x="468" y="267"/>
      <point x="500" y="214" type="curve"/>
    </contour>
  </outline>
</glyph>
<glyph name="uni0915094D0937094D_nnadeva" format="1">
  <advance width="890"/>
  <outline>
    <contour>
      <point x="760" y="0" type="line"/>
      <point x="816" y="0" type="line"/>
      <point x="816" y="456" type="line"/>
      <point x="760" y="456" type="line"/>
    </contour>
    <contour>
      <point x="336" y="456" type="line"/>
      <point x="336" y="408" type="line"/>
      <point x="914" y="408" type="line"/>
      <point x="914" y="456" type="line"/>
    </contour>
    <contour>
      <point x="608" y="80"/>
      <point x="657" y="128"/>
      <point x="657" y="224" type="curve" smooth="yes"/>
      <point x="657" y="436" type="line"/>
      <point x="601" y="436" type="line"/>
      <point x="601" y="228" type="line" smooth="yes"/>
      <point x="601" y="164"/>
      <point x="581" y="133"/>
      <point x="530" y="133" type="curve" smooth="yes"/>
      <point x="479" y="133"/>
      <point x="459" y="164"/>
      <point x="459" y="228" type="curve" smooth="yes"/>
      <point x="459" y="436" type="line"/>
      <point x="403" y="436" type="line"/>
      <point x="403" y="224" type="line" smooth="yes"/>
      <point x="403" y="127"/>
      <point x="448" y="80"/>
      <point x="531" y="80" type="curve" smooth="yes"/>
    </contour>
    <contour>
      <point x="384" y="202"/>
      <point x="435" y="240"/>
      <point x="435" y="240" type="curve"/>
      <point x="435" y="299" type="line"/>
      <point x="435" y="299"/>
      <point x="402" y="248"/>
      <point x="305" y="248" type="curve" smooth="yes"/>
      <point x="240" y="248"/>
      <point x="127" y="293"/>
      <point x="127" y="367" type="curve" smooth="yes"/>
      <point x="127" y="397"/>
      <point x="155" y="415"/>
      <point x="179" y="415" type="curve" smooth="yes"/>
      <point x="200" y="415"/>
      <point x="228" y="400"/>
      <point x="230" y="367" type="curve"/>
      <point x="230" y="332"/>
      <point x="211" y="315"/>
      <point x="180" y="292" type="curve" smooth="yes"/>
      <point x="174" y="287"/>
      <point x="168" y="284"/>
      <point x="160" y="280" type="curve" smooth="yes"/>
      <point x="110" y="255"/>
      <point x="43" y="213"/>
      <point x="43" y="132" type="curve"/>
      <point x="43" y="82"/>
      <point x="84" y="14"/>
      <point x="173" y="14" type="curve"/>
      <point x="231" y="14"/>
      <point x="278" y="42"/>
      <point x="303" y="80" type="curve"/>
      <point x="267" y="123" type="line"/>
      <point x="247" y="85"/>
      <point x="221" y="67"/>
      <point x="179" y="67" type="curve"/>
      <point x="128" y="67"/>
      <point x="101" y="98"/>
      <point x="101" y="139" type="curve"/>
      <point x="101" y="199"/>
      <point x="161" y="224"/>
      <point x="199" y="252" type="curve" smooth="yes"/>
      <point x="202" y="254"/>
      <point x="215" y="259"/>
      <point x="217" y="261" type="curve" smooth="yes"/>
      <point x="255" y="291"/>
      <point x="281" y="315"/>
      <point x="281" y="368" type="curve" smooth="yes"/>
      <point x="281" y="436"/>
      <point x="228" y="467"/>
      <point x="178" y="467" type="curve" smooth="yes"/>
      <point x="130" y="467"/>
      <point x="74" y="436"/>
      <point x="74" y="368" type="curve"/>
      <point x="74" y="268"/>
      <point x="206" y="202"/>
      <point x="306" y="202" type="curve" smooth="yes"/>
    </contour>
    <contour>
      <point x="251" y="46"/>
      <point x="250" y="44"/>
      <point x="263" y="44" type="curve" smooth="yes"/>
      <point x="283" y="44"/>
      <point x="311" y="70"/>
      <point x="311" y="102" type="curve" smooth="yes"/>
      <point x="311" y="134"/>
      <point x="291" y="153"/>
      <point x="258" y="153" type="curve" smooth="yes"/>
      <point x="235" y="153"/>
      <point x="219" y="135"/>
      <point x="219" y="135" type="curve"/>
      <point x="242" y="51" type="line"/>
    </contour>
    <contour>
      <point x="240" y="60" type="line"/>
      <point x="240" y="60"/>
      <point x="269" y="-51"/>
      <point x="269" y="-51" type="curve"/>
      <point x="326" y="-30" type="line"/>
      <point x="272" y="81" type="line"/>
    </contour>
    <contour>
      <point x="787" y="447" type="move" name="top"/>
    </contour>
    <contour>
      <point x="788" y="5" type="move" name="bottom"/>
    </contour>
  </outline>
</glyph>
<glyph name="uni0915094D0938094D" format="1">
  <advance width="742"/>
  <outline>
    <contour>
      <point x="761" y="157"/>
      <point x="796" y="163"/>
      <point x="817" y="168" type="curve"/>
      <point x="816" y="223" type="line"/>
      <point x="797" y="217"/>
      <point x="766" y="211"/>
      <point x="722" y="211" type="curve" smooth="yes"/>
      <point x="697" y="211"/>
      <point x="663" y="213"/>
      <point x="629" y="220" type="curve"/>
      <point x="645" y="241"/>
      <point x="655" y="269"/>
      <point x="655" y="304" type="curve" smooth="yes"/>
      <point x="655" y="353"/>
      <point x="640" y="386"/>
      <point x="623" y="408" type="curve"/>
      <point x="766" y="408" type="line"/>
      <point x="766" y="456" type="line"/>
      <point x="-28" y="456" type="line"/>
      <point x="-28" y="408" type="line"/>
      <point x="258" y="408" type="line"/>
      <point x="258" y="314" type="line"/>
      <point x="234" y="326"/>
      <point x="205" y="337"/>
      <point x="172" y="337" type="curve" smooth="yes"/>
      <point x="89" y="337"/>
      <point x="29" y="286"/>
      <point x="29" y="205" type="curve" smooth="yes"/>
      <point x="29" y="124"/>
      <point x="89" y="73"/>
      <point x="172" y="73" type="curve" smooth="yes"/>
      <point x="210" y="73"/>
      <point x="237" y="83"/>
      <point x="258" y="95" type="curve"/>
      <point x="258" y="0" type="line"/>
      <point x="311" y="0" type="line"/>
      <point x="311" y="254" type="line"/>
      <point x="330" y="264"/>
      <point x="352" y="272"/>
      <point x="375" y="272" type="curve" smooth="yes"/>
      <point x="407" y="272"/>
      <point x="433" y="242"/>
      <point x="453" y="216" type="curve"/>
      <point x="629" y="-18" type="line"/>
      <point x="676" y="14" type="line"/>
      <point x="557" y="167" type="line"/>
      <point x="566" y="170"/>
      <point x="575" y="174"/>
      <point x="583" y="179" type="curve"/>
      <point x="632" y="164"/>
      <point x="675" y="157"/>
      <point x="711" y="157" type="curve" smooth="yes"/>
    </contour>
    <contour>
      <point x="495" y="248" type="line"/>
      <point x="460" y="292"/>
      <point x="431" y="323"/>
      <point x="376" y="323" type="curve" smooth="yes"/>
      <point x="352" y="323"/>
      <point x="330" y="317"/>
      <point x="311" y="309" type="curve"/>
      <point x="311" y="408" type="line"/>
      <point x="560" y="408" type="line"/>
      <point x="579" y="391"/>
      <point x="601" y="359"/>
      <point x="601" y="306" type="curve" smooth="yes"/>
      <point x="601" y="245"/>
      <point x="556" y="221"/>
      <point x="523" y="212" type="curve"/>
    </contour>
    <contour>
      <point x="122" y="124"/>
      <point x="85" y="151"/>
      <point x="85" y="205" type="curve" smooth="yes"/>
      <point x="85" y="258"/>
      <point x="122" y="286"/>
      <point x="176" y="286" type="curve" smooth="yes"/>
      <point x="211" y="286"/>
      <point x="239" y="271"/>
      <point x="258" y="258" type="curve"/>
      <point x="258" y="151" type="line"/>
      <point x="241" y="138"/>
      <point x="218" y="124"/>
      <point x="181" y="124" type="curve" smooth="yes"/>
    </contour>
  </outline>
</glyph>
<glyph name="uni0915094D_radeva" format="1">
  <advance width="549"/>
  <outline>
    <contour>
      <point x="257" y="0" type="line"/>
      <point x="310" y="0" type="line"/>
      <point x="310" y="456" type="line"/>
      <point x="257" y="456" type="line"/>
    </contour>
    <contour>
      <point x="-24" y="456" type="line"/>
      <point x="-24" y="408" type="line"/>
      <point x="573" y="408" type="line"/>
      <point x="573" y="456" type="line"/>
    </contour>
    <contour>
      <point x="28" y="128"/>
      <point x="88" y="77"/>
      <point x="171" y="77" type="curve" smooth="yes"/>
      <point x="233" y="77"/>
      <point x="266" y="100"/>
      <point x="293" y="118" type="curve"/>
      <point x="279" y="169" type="line"/>
      <point x="263" y="157"/>
      <point x="237" y="124"/>
      <point x="180" y="124" type="curve" smooth="yes"/>
      <point x="121" y="124"/>
      <point x="84" y="151"/>
      <point x="84" y="205" type="curve" smooth="yes"/>
      <point x="84" y="258"/>
      <point x="121" y="286"/>
      <point x="175" y="286" type="curve" smooth="yes"/>
      <point x="227" y="286"/>
      <point x="263" y="253"/>
      <point x="279" y="241" type="curve"/>
      <point x="293" y="292" type="line"/>
      <point x="266" y="310"/>
      <point x="223" y="337"/>
      <point x="171" y="337" type="curve" smooth="yes"/>
      <point x="88" y="337"/>
      <point x="28" y="286"/>
      <point x="28" y="205" type="curve" smooth="yes"/>
    </contour>
    <contour>
      <point x="514" y="280"/>
      <point x="460" y="333"/>
      <point x="377" y="333" type="curve" smooth="yes"/>
      <point x="325" y="333"/>
      <point x="282" y="296"/>
      <point x="255" y="278" type="curve"/>
      <point x="269" y="227" type="line"/>
      <point x="285" y="239"/>
      <point x="327" y="282"/>
      <point x="373" y="282" type="curve" smooth="yes"/>
      <point x="427" y="282"/>
      <point x="458" y="254"/>
      <point x="458" y="207" type="curve" smooth="yes"/>
      <point x="458" y="156"/>
      <point x="421" y="128"/>
      <point x="392" y="101" type="curve"/>
      <point x="431" y="62" type="line"/>
      <point x="468" y="91"/>
      <point x="514" y="138"/>
      <point x="514" y="201" type="curve" smooth="yes"/>
    </contour>
    <contour>
      <point x="60" y="18"/>
      <point x="96" y="-21"/>
      <point x="96" y="-21" type="curve"/>
      <point x="303" y="125" type="line"/>
      <point x="273" y="151" type="line"/>
      <point x="60" y="18" type="line"/>
    </contour>
    <contour>
      <point x="284" y="447" type="move" name="top"/>
    </contour>
    <contour>
      <point x="284" y="5" type="move" name="bottom"/>
    </contour>
  </outline>
</glyph>
<glyph name="uni0915094D_shadeva" format="1">
  <advance width="953"/>
  <outline>
    <contour>
      <point x="258" y="0" type="line"/>
      <point x="311" y="0" type="line"/>
      <point x="311" y="456" type="line"/>
      <point x="258" y="456" type="line"/>
    </contour>
    <contour>
      <point x="-28" y="456" type="line"/>
      <point x="-28" y="408" type="line"/>
      <point x="447" y="408" type="line"/>
      <point x="447" y="456" type="line"/>
    </contour>
    <contour>
      <point x="29" y="124"/>
      <point x="89" y="73"/>
      <point x="172" y="73" type="curve" smooth="yes"/>
      <point x="234" y="73"/>
      <point x="267" y="100"/>
      <point x="294" y="118" type="curve"/>
      <point x="280" y="169" type="line"/>
      <point x="264" y="157"/>
      <point x="238" y="124"/>
      <point x="181" y="124" type="curve" smooth="yes"/>
      <point x="122" y="124"/>
      <point x="85" y="151"/>
      <point x="85" y="205" type="curve" smooth="yes"/>
      <point x="85" y="258"/>
      <point x="122" y="286"/>
      <point x="176" y="286" type="curve" smooth="yes"/>
      <point x="228" y="286"/>
      <point x="264" y="253"/>
      <point x="280" y="241" type="curve"/>
      <point x="294" y="292" type="line"/>
      <point x="267" y="310"/>
      <point x="224" y="337"/>
      <point x="172" y="337" type="curve" smooth="yes"/>
      <point x="89" y="337"/>
      <point x="29" y="286"/>
      <point x="29" y="205" type="curve" smooth="yes"/>
    </contour>
    <contour>
      <point x="492" y="239" type="line"/>
      <point x="473" y="308"/>
      <point x="423" y="333"/>
      <point x="375" y="333" type="curve" smooth="yes"/>
      <point x="314" y="333"/>
      <point x="283" y="296"/>
      <point x="256" y="278" type="curve"/>
      <point x="270" y="227" type="line"/>
      <point x="289" y="246"/>
      <point x="319" y="282"/>
      <point x="369" y="282" type="curve" smooth="yes"/>
      <point x="415" y="282"/>
      <point x="437" y="266"/>
      <point x="456" y="194" type="curve"/>
    </contour>
    <contour>
      <point x="699" y="414"/>
      <point x="646" y="466"/>
      <point x="582" y="466" type="curve" smooth="yes"/>
      <point x="523" y="466"/>
      <point x="479" y="425"/>
      <point x="479" y="368" type="curve" smooth="yes"/>
      <point x="479" y="329"/>
      <point x="502" y="297"/>
      <point x="551" y="268" type="curve"/>
      <point x="580" y="311" type="line"/>
      <point x="556" y="326"/>
      <point x="532" y="343"/>
      <point x="532" y="368" type="curve" smooth="yes"/>
      <point x="532" y="398"/>
      <point x="554" y="413"/>
      <point x="582" y="413" type="curve" smooth="yes"/>
      <point x="618" y="413"/>
      <point x="643" y="379"/>
      <point x="646" y="329" type="curve" smooth="yes"/>
      <point x="651" y="233"/>
      <point x="549" y="193"/>
      <point x="514" y="174" type="curve"/>
      <point x="556" y="137" type="line"/>
      <point x="619" y="175"/>
      <point x="699" y="223"/>
      <point x="699" y="332" type="curve" smooth="yes"/>
    </contour>
    <contour>
      <point x="452" y="155"/>
      <point x="483" y="130"/>
      <point x="527" y="131" type="curve"/>
      <point x="660" y="-15" type="line"/>
      <point x="660" y="-15"/>
      <point x="698" y="21"/>
      <point x="698" y="21" type="curve"/>
      <point x="492" y="239" type="line"/>
      <point x="465" y="230"/>
      <point x="452" y="211"/>
      <point x="452" y="191" type="curve" smooth="yes"/>
    </contour>
    <contour>
      <point x="731" y="456" type="line"/>
      <point x="731" y="408" type="line"/>
      <point x="977" y="408" type="line"/>
      <point x="977" y="456" type="line"/>
    </contour>
    <contour>
      <point x="823" y="0" type="line"/>
      <point x="879" y="0" type="line"/>
      <point x="879" y="456" type="line"/>
      <point x="823" y="456" type="line"/>
    </contour>
    <contour>
      <point x="851" y="447" type="move" name="top"/>
    </contour>
    <contour>
      <point x="851" y="5" type="move" name="bottom"/>
    </contour>
  </outline>
</glyph>
<glyph name="uni0916094D_khadeva" format="1">
  <advance width="1029"/>
  <outline>
    <contour>
      <point x="902" y="0" type="line"/>
      <point x="955" y="0" type="line"/>
      <point x="955" y="456" type="line"/>
      <point x="902" y="456" type="line"/>
    </contour>
    <contour>
      <point x="405" y="456" type="line"/>
      <point x="405" y="408" type="line"/>
      <point x="1053" y="408" type="line"/>
      <point x="1053" y="456" type="line"/>
    </contour>
    <contour>
      <point x="536" y="427"/>
      <point x="607" y="403"/>
      <point x="607" y="306" type="curve" smooth="yes"/>
      <point x="607" y="209"/>
      <point x="493" y="206"/>
      <point x="493" y="206" type="curve" smooth="yes"/>
      <point x="493" y="206"/>
      <point x="515" y="157"/>
      <point x="515" y="157" type="curve"/>
      <point x="554" y="157"/>
      <point x="661" y="191"/>
      <point x="661" y="304" type="curve" smooth="yes"/>
      <point x="661" y="412"/>
      <point x="588" y="443"/>
      <point x="588" y="443" type="curve"/>
      <point x="536" y="427" type="line"/>
    </contour>
    <contour>
      <point x="463" y="212"/>
      <point x="658" y="-17"/>
      <point x="658" y="-17" type="curve" smooth="yes"/>
      <point x="658" y="-17"/>
      <point x="702" y="18"/>
      <point x="702" y="18" type="curve"/>
      <point x="503" y="246" type="line"/>
      <point x="463" y="212" type="line"/>
    </contour>
    <contour>
      <point x="684" y="121"/>
      <point x="742" y="70"/>
      <point x="815" y="70" type="curve" smooth="yes"/>
      <point x="867" y="70"/>
      <point x="902" y="84"/>
      <point x="929" y="102" type="curve"/>
      <point x="915" y="154" type="line"/>
      <point x="899" y="140"/>
      <point x="871" y="121"/>
      <point x="824" y="121" type="curve" smooth="yes"/>
      <point x="775" y="121"/>
      <point x="740" y="148"/>
      <point x="740" y="202" type="curve" smooth="yes"/>
      <point x="740" y="255"/>
      <point x="775" y="283"/>
      <point x="819" y="283" type="curve" smooth="yes"/>
      <point x="871" y="283"/>
      <point x="899" y="258"/>
      <point x="915" y="245" type="curve"/>
      <point x="929" y="298" type="line"/>
      <point x="902" y="314"/>
      <point x="867" y="334"/>
      <point x="815" y="334" type="curve" smooth="yes"/>
      <point x="742" y="334"/>
      <point x="684" y="283"/>
      <point x="684" y="202" type="curve" smooth="yes"/>
    </contour>
    <contour>
      <point x="-28" y="456" type="line"/>
      <point x="-28" y="408" type="line"/>
      <point x="421" y="408" type="line"/>
      <point x="421" y="456" type="line"/>
    </contour>
    <contour>
      <point x="86" y="427"/>
      <point x="157" y="403"/>
      <point x="157" y="306" type="curve" smooth="yes"/>
      <point x="157" y="209"/>
      <point x="43" y="206"/>
      <point x="43" y="206" type="curve" smooth="yes"/>
      <point x="43" y="206"/>
      <point x="65" y="157"/>
      <point x="65" y="157" type="curve"/>
      <point x="104" y="157"/>
      <point x="211" y="191"/>
      <point x="211" y="304" type="curve" smooth="yes"/>
      <point x="211" y="412"/>
      <point x="138" y="443"/>
      <point x="138" y="443" type="curve"/>
      <point x="86" y="427" type="line"/>
    </contour>
    <contour>
      <point x="13" y="212"/>
      <point x="208" y="-17"/>
      <point x="208" y="-17" type="curve" smooth="yes"/>
      <point x="208" y="-17"/>
      <point x="252" y="18"/>
      <point x="252" y="18" type="curve"/>
      <point x="53" y="246" type="line"/>
      <point x="13" y="212" type="line"/>
    </contour>
    <contour>
      <point x="508" y="282"/>
      <point x="452" y="334"/>
      <point x="376" y="334" type="curve" smooth="yes"/>
      <point x="301" y="334"/>
      <point x="241" y="283"/>
      <point x="241" y="202" type="curve" smooth="yes"/>
      <point x="241" y="121"/>
      <point x="301" y="70"/>
      <point x="376" y="70" type="curve" smooth="yes"/>
      <point x="452" y="70"/>
      <point x="508" y="123"/>
      <point x="508" y="202" type="curve"/>
    </contour>
    <contour>
      <point x="453" y="148"/>
      <point x="417" y="121"/>
      <point x="375" y="121" type="curve" smooth="yes"/>
      <point x="333" y="121"/>
      <point x="297" y="148"/>
      <point x="297" y="202" type="curve" smooth="yes"/>
      <point x="297" y="255"/>
      <point x="333" y="283"/>
      <point x="375" y="283" type="curve" smooth="yes"/>
      <point x="417" y="283"/>
      <point x="453" y="255"/>
      <point x="453" y="202" type="curve"/>
    </contour>
    <contour>
      <point x="929" y="447" type="move" name="top"/>
    </contour>
    <contour>
      <point x="930" y="5" type="move" name="bottom"/>
    </contour>
  </outline>
</glyph>
<glyph name="uni0919094D_radeva" format="1">
  <advance width="475"/>
  <outline>
    <component base="ngadeva"/>
    <component base="rashtra-deva" xOffset="88"/>
    <contour>
      <point x="302" y="447" type="move" name="top"/>
    </contour>
    <contour>
      <point x="215" y="-145" type="move" name="bottom"/>
    </contour>
  </outline>
</glyph>
<glyph name="uni091A094D0930094D" format="1">
  <advance width="284"/>
  <outline>
    <contour>
      <point x="-24" y="456" type="line"/>
      <point x="-24" y="408" type="line"/>
      <point x="318" y="408" type="line"/>
      <point x="318" y="456" type="line"/>
    </contour>
    <contour>
      <point x="359" y="180" type="line"/>
      <point x="336" y="162"/>
      <point x="303" y="130"/>
      <point x="238" y="130" type="curve" smooth="yes"/>
      <point x="184" y="130"/>
      <point x="143" y="155"/>
      <point x="143" y="200" type="curve" smooth="yes"/>
      <point x="143" y="261"/>
      <point x="205" y="271"/>
      <point x="205" y="271" type="curve" smooth="yes"/>
      <point x="124" y="271" type="line" smooth="yes"/>
      <point x="124" y="271"/>
      <point x="87" y="259"/>
      <point x="87" y="194" type="curve" smooth="yes"/>
      <point x="87" y="133"/>
      <point x="139" y="83"/>
      <point x="237" y="83" type="curve"/>
      <point x="383" y="131" type="line"/>
    </contour>
    <contour>
      <point x="21" y="301" type="line"/>
      <point x="21" y="253" type="line"/>
      <point x="253" y="253" type="line"/>
      <point x="253" y="301" type="line"/>
    </contour>
    <contour>
      <point x="109" y="30"/>
      <point x="145" y="-9"/>
      <point x="145" y="-9" type="curve"/>
      <point x="383" y="131" type="line"/>
      <point x="360" y="174" type="line"/>
      <point x="109" y="30" type="line"/>
    </contour>
  </outline>
</glyph>
<glyph name="uni091B094D_radeva" format="1">
  <advance width="534"/>
  <outline>
    <component base="chadeva"/>
    <component base="rashtra-deva" xOffset="117" yOffset="6"/>
    <contour>
      <point x="392" y="447" type="move" name="top"/>
    </contour>
    <contour>
      <point x="262" y="-145" type="move" name="bottom"/>
    </contour>
  </outline>
</glyph>
<glyph name="uni091C094D091E094D" format="1">
  <advance width="347"/>
  <outline>
    <contour>
      <point x="-24" y="456" type="line"/>
      <point x="-24" y="408" type="line"/>
      <point x="371" y="408" type="line"/>
      <point x="371" y="456" type="line"/>
    </contour>
    <contour>
      <point x="414" y="274"/>
      <point x="229" y="274"/>
      <point x="165" y="274" type="curve"/>
      <point x="181" y="226" type="line"/>
      <point x="253" y="226"/>
      <point x="414" y="226"/>
      <point x="414" y="226" type="curve"/>
      <point x="414" y="274" type="line"/>
    </contour>
    <contour>
      <point x="294" y="191"/>
      <point x="272" y="232"/>
      <point x="226" y="255" type="curve" smooth="yes"/>
      <point x="214" y="261"/>
      <point x="208" y="266"/>
      <point x="195" y="274" type="curve"/>
      <point x="132" y="274" type="line"/>
      <point x="132" y="229" type="line"/>
      <point x="208" y="229"/>
      <point x="238" y="193"/>
      <point x="238" y="147" type="curve" smooth="yes"/>
      <point x="238" y="82"/>
      <point x="191" y="67"/>
      <point x="148" y="67" type="curve"/>
      <point x="141" y="67"/>
      <point x="133" y="67"/>
      <point x="126" y="70" type="curve"/>
      <point x="73" y="140" type="line"/>
      <point x="38" y="145"/>
      <point x="20" y="121"/>
      <point x="21" y="96" type="curve" smooth="yes"/>
      <point x="22" y="46"/>
      <point x="82" y="15"/>
      <point x="149" y="15" type="curve" smooth="yes"/>
      <point x="210" y="15"/>
      <point x="294" y="44"/>
      <point x="294" y="146" type="curve" smooth="yes"/>
    </contour>
    <contour>
      <point x="88" y="41" type="line"/>
      <point x="88" y="41"/>
      <point x="193" y="-89"/>
      <point x="193" y="-89" type="curve" smooth="yes"/>
      <point x="193" y="-89"/>
      <point x="243" y="-61"/>
      <point x="243" y="-61" type="curve"/>
      <point x="127" y="62" type="line"/>
    </contour>
  </outline>
</glyph>
<glyph name="uni091D094D.NEP" format="1">
  <advance width="600"/>
  <outline>
    <contour>
      <point x="379" y="0" type="line"/>
      <point x="432" y="0" type="line"/>
      <point x="432" y="456" type="line"/>
      <point x="379" y="456" type="line"/>
    </contour>
    <contour>
      <point x="213" y="135" type="line"/>
      <point x="213" y="320" type="line" smooth="yes"/>
      <point x="213" y="412"/>
      <point x="188" y="466"/>
      <point x="117" y="466" type="curve" smooth="yes"/>
      <point x="72" y="466"/>
      <point x="31" y="434"/>
      <point x="31" y="379" type="curve" smooth="yes"/>
      <point x="31" y="343"/>
      <point x="55" y="306"/>
      <point x="104" y="280" type="curve"/>
      <point x="131" y="321" type="line"/>
      <point x="107" y="335"/>
      <point x="84" y="351"/>
      <point x="84" y="379" type="curve" smooth="yes"/>
      <point x="84" y="399"/>
      <point x="98" y="413"/>
      <point x="117" y="413" type="curve" smooth="yes"/>
      <point x="163" y="413"/>
      <point x="158" y="339"/>
      <point x="158" y="320" type="curve" smooth="yes"/>
      <point x="158" y="135" type="line"/>
    </contour>
    <contour>
      <point x="280" y="456" type="line"/>
      <point x="280" y="408" type="line"/>
      <point x="532" y="408" type="line"/>
      <point x="532" y="456" type="line"/>
    </contour>
    <contour>
      <point x="94" y="199" type="line"/>
      <point x="94" y="166" type="line"/>
      <point x="175" y="70" type="line"/>
      <point x="175" y="70"/>
      <point x="213" y="70"/>
      <point x="213" y="70" type="curve"/>
      <point x="213" y="199" type="line"/>
    </contour>
    <contour>
      <point x="182" y="199" type="line"/>
      <point x="182" y="151" type="line"/>
      <point x="421" y="151" type="line"/>
      <point x="421" y="199" type="line"/>
    </contour>
    <contour>
      <point x="645" y="269" type="line"/>
      <point x="606" y="315"/>
      <point x="566" y="333"/>
      <point x="509" y="333" type="curve" smooth="yes"/>
      <point x="457" y="333"/>
      <point x="406" y="296"/>
      <point x="379" y="278" type="curve"/>
      <point x="393" y="227" type="line"/>
      <point x="409" y="239"/>
      <point x="462" y="282"/>
      <point x="513" y="282" type="curve" smooth="yes"/>
      <point x="564" y="282"/>
      <point x="590" y="255"/>
      <point x="614" y="222" type="curve"/>
    </contour>
  </outline>
</glyph>
<glyph name="uni091E094D0930094D" format="1">
  <advance width="371"/>
  <outline>
    <contour>
      <point x="-24" y="456" type="line"/>
      <point x="-24" y="408" type="line"/>
      <point x="395" y="408" type="line"/>
      <point x="395" y="456" type="line"/>
    </contour>
    <contour>
      <point x="252" y="245"/>
      <point x="268" y="214"/>
      <point x="268" y="178" type="curve" smooth="yes"/>
      <point x="268" y="132"/>
      <point x="238" y="104"/>
      <point x="195" y="104" type="curve" smooth="yes"/>
      <point x="133" y="104"/>
      <point x="93" y="162"/>
      <point x="53" y="263" type="curve"/>
      <point x="6" y="244" type="line"/>
      <point x="50" y="123"/>
      <point x="108" y="51"/>
      <point x="197" y="51" type="curve" smooth="yes"/>
      <point x="256" y="51"/>
      <point x="310" y="86"/>
      <point x="320" y="158" type="curve" smooth="yes"/>
      <point x="321" y="162"/>
      <point x="323" y="165"/>
      <point x="323" y="169" type="curve" smooth="yes"/>
      <point x="323" y="239"/>
      <point x="281" y="298"/>
      <point x="205" y="298" type="curve" smooth="yes"/>
      <point x="168" y="298"/>
      <point x="141" y="287"/>
      <point x="118" y="272" type="curve"/>
      <point x="118" y="272"/>
      <point x="141" y="224"/>
      <point x="141" y="224" type="curve" smooth="yes"/>
      <point x="141" y="224"/>
      <point x="171" y="245"/>
      <point x="200" y="245" type="curve" smooth="yes"/>
    </contour>
    <contour>
      <point x="429" y="221" type="line"/>
      <point x="413" y="210"/>
      <point x="394" y="196"/>
      <point x="359" y="196" type="curve" smooth="yes"/>
      <point x="324" y="196"/>
      <point x="317" y="203"/>
      <point x="291" y="216" type="curve"/>
      <point x="287" y="160" type="line"/>
      <point x="313" y="152"/>
      <point x="332" y="146"/>
      <point x="359" y="146" type="curve" smooth="yes"/>
      <point x="369" y="146"/>
      <point x="379" y="147"/>
      <point x="388" y="149" type="curve"/>
      <point x="285" y="26" type="line"/>
      <point x="285" y="26"/>
      <point x="327" y="-9"/>
      <point x="327" y="-9" type="curve"/>
      <point x="454" y="160" type="line"/>
    </contour>
  </outline>
</glyph>
<glyph name="uni091E094D_cadeva" format="1">
  <advance width="535"/>
  <outline>
    <contour>
      <point x="410" y="-118" type="line"/>
      <point x="461" y="-118" type="line"/>
      <point x="461" y="456" type="line"/>
      <point x="410" y="456" type="line"/>
    </contour>
    <contour>
      <point x="-24" y="456" type="line"/>
      <point x="-24" y="408" type="line"/>
      <point x="559" y="408" type="line"/>
      <point x="559" y="456" type="line"/>
    </contour>
    <contour>
      <point x="415" y="36"/>
      <point x="367" y="-16"/>
      <point x="294" y="-16" type="curve" smooth="yes"/>
      <point x="257" y="-16"/>
      <point x="236" y="6"/>
      <point x="236" y="38" type="curve" smooth="yes"/>
      <point x="236" y="74"/>
      <point x="282" y="88"/>
      <point x="282" y="88" type="curve" smooth="yes"/>
      <point x="212" y="64" type="line" smooth="yes"/>
      <point x="212" y="64"/>
      <point x="189" y="60"/>
      <point x="189" y="27" type="curve" smooth="yes"/>
      <point x="189" y="-18"/>
      <point x="219" y="-63"/>
      <point x="291" y="-63" type="curve" smooth="yes"/>
      <point x="370" y="-63"/>
      <point x="424" y="-25"/>
      <point x="461" y="39" type="curve"/>
      <point x="440" y="98" type="line"/>
    </contour>
    <contour>
      <point x="98" y="61" type="line"/>
      <point x="113" y="15" type="line"/>
      <point x="317" y="81" type="line"/>
      <point x="302" y="126" type="line"/>
    </contour>
    <contour>
      <point x="265" y="312"/>
      <point x="279" y="280"/>
      <point x="279" y="255" type="curve" smooth="yes"/>
      <point x="279" y="219"/>
      <point x="255" y="199"/>
      <point x="211" y="199" type="curve" smooth="yes"/>
      <point x="144" y="199"/>
      <point x="111" y="239"/>
      <point x="81" y="339" type="curve"/>
      <point x="34" y="325" type="line"/>
      <point x="74" y="180"/>
      <point x="143" y="148"/>
      <point x="206" y="148" type="curve" smooth="yes"/>
      <point x="266" y="148"/>
      <point x="310" y="176"/>
      <point x="324" y="222" type="curve" smooth="yes"/>
      <point x="325" y="226"/>
      <point x="328" y="229"/>
      <point x="328" y="233" type="curve" smooth="yes"/>
      <point x="329" y="238"/>
      <point x="329" y="243"/>
      <point x="329" y="248" type="curve" smooth="yes"/>
      <point x="329" y="331"/>
      <point x="275" y="360"/>
      <point x="219" y="360" type="curve" smooth="yes"/>
      <point x="187" y="360"/>
      <point x="163" y="353"/>
      <point x="144" y="346" type="curve"/>
      <point x="144" y="346"/>
      <point x="158" y="301"/>
      <point x="158" y="301" type="curve" smooth="yes"/>
      <point x="158" y="301"/>
      <point x="189" y="312"/>
      <point x="218" y="312" type="curve" smooth="yes"/>
    </contour>
    <contour>
      <point x="439" y="275" type="line"/>
      <point x="424" y="267"/>
      <point x="403" y="255"/>
      <point x="375" y="255" type="curve" smooth="yes"/>
      <point x="345" y="255"/>
      <point x="329" y="263"/>
      <point x="301" y="278" type="curve"/>
      <point x="291" y="230" type="line"/>
      <point x="320" y="217"/>
      <point x="337" y="208"/>
      <point x="372" y="208" type="curve" smooth="yes"/>
      <point x="399" y="208"/>
      <point x="431" y="218"/>
      <point x="446" y="227" type="curve"/>
    </contour>
    <contour>
      <point x="436" y="447" type="move" name="top"/>
    </contour>
    <contour>
      <point x="436" y="-113" type="move" name="bottom"/>
    </contour>
  </outline>
</glyph>
<glyph name="uni091E094D_jadeva" format="1">
  <advance width="535"/>
  <outline>
    <contour>
      <point x="410" y="-118" type="line"/>
      <point x="461" y="-118" type="line"/>
      <point x="461" y="456" type="line"/>
      <point x="410" y="456" type="line"/>
    </contour>
    <contour>
      <point x="-24" y="456" type="line"/>
      <point x="-24" y="408" type="line"/>
      <point x="559" y="408" type="line"/>
      <point x="559" y="456" type="line"/>
    </contour>
    <contour>
      <point x="265" y="312"/>
      <point x="279" y="280"/>
      <point x="279" y="255" type="curve" smooth="yes"/>
      <point x="279" y="219"/>
      <point x="255" y="199"/>
      <point x="211" y="199" type="curve" smooth="yes"/>
      <point x="144" y="199"/>
      <point x="111" y="239"/>
      <point x="81" y="339" type="curve"/>
      <point x="34" y="325" type="line"/>
      <point x="74" y="180"/>
      <point x="143" y="148"/>
      <point x="206" y="148" type="curve" smooth="yes"/>
      <point x="266" y="148"/>
      <point x="310" y="176"/>
      <point x="324" y="222" type="curve" smooth="yes"/>
      <point x="325" y="226"/>
      <point x="328" y="229"/>
      <point x="328" y="233" type="curve" smooth="yes"/>
      <point x="329" y="238"/>
      <point x="329" y="243"/>
      <point x="329" y="248" type="curve" smooth="yes"/>
      <point x="329" y="331"/>
      <point x="275" y="360"/>
      <point x="219" y="360" type="curve" smooth="yes"/>
      <point x="187" y="360"/>
      <point x="163" y="353"/>
      <point x="144" y="346" type="curve"/>
      <point x="144" y="346"/>
      <point x="158" y="301"/>
      <point x="158" y="301" type="curve" smooth="yes"/>
      <point x="158" y="301"/>
      <point x="189" y="312"/>
      <point x="218" y="312" type="curve" smooth="yes"/>
    </contour>
    <contour>
      <point x="439" y="275" type="line"/>
      <point x="424" y="267"/>
      <point x="403" y="255"/>
      <point x="375" y="255" type="curve" smooth="yes"/>
      <point x="345" y="255"/>
      <point x="329" y="263"/>
      <point x="301" y="278" type="curve"/>
      <point x="291" y="230" type="line"/>
      <point x="320" y="217"/>
      <point x="337" y="208"/>
      <point x="372" y="208" type="curve" smooth="yes"/>
      <point x="399" y="208"/>
      <point x="431" y="218"/>
      <point x="446" y="227" type="curve"/>
    </contour>
    <contour>
      <point x="437" y="157"/>
      <point x="262" y="108"/>
      <point x="201" y="90" type="curve"/>
      <point x="215" y="50" type="line"/>
      <point x="450" y="115" type="line"/>
      <point x="437" y="157" type="line"/>
    </contour>
    <contour>
      <point x="324" y="79"/>
      <point x="262" y="94" type="curve"/>
      <point x="205" y="80" type="line"/>
      <point x="216" y="47" type="line"/>
      <point x="228" y="50"/>
      <point x="228" y="50"/>
      <point x="237" y="52" type="curve" smooth="yes"/>
      <point x="275" y="62"/>
      <point x="301" y="31"/>
      <point x="301" y="-1" type="curve" smooth="yes"/>
      <point x="301" y="-37"/>
      <point x="272" y="-53"/>
      <point x="237" y="-53" type="curve" smooth="yes"/>
      <point x="186" y="-53"/>
      <point x="143" y="5"/>
      <point x="113" y="52" type="curve"/>
      <point x="74" y="27" type="line"/>
      <point x="122" y="-45"/>
      <point x="163" y="-100"/>
      <point x="238" y="-100" type="curve" smooth="yes"/>
      <point x="284" y="-100"/>
      <point x="349" y="-79"/>
      <point x="349" y="-5" type="curve" smooth="yes"/>
      <point x="349" y="36"/>
    </contour>
    <contour>
      <point x="436" y="447" type="move" name="top"/>
    </contour>
    <contour>
      <point x="436" y="-113" type="move" name="bottom"/>
    </contour>
  </outline>
</glyph>
<glyph name="uni091E094D_jhadeva" format="1">
  <advance width="932"/>
  <outline>
    <contour>
      <point x="-24" y="456" type="line"/>
      <point x="-24" y="408" type="line"/>
      <point x="395" y="408" type="line"/>
      <point x="395" y="456" type="line"/>
    </contour>
    <contour>
      <point x="252" y="259"/>
      <point x="268" y="228"/>
      <point x="268" y="192" type="curve" smooth="yes"/>
      <point x="268" y="146"/>
      <point x="238" y="118"/>
      <point x="195" y="118" type="curve" smooth="yes"/>
      <point x="133" y="118"/>
      <point x="93" y="176"/>
      <point x="53" y="277" type="curve"/>
      <point x="6" y="258" type="line"/>
      <point x="50" y="137"/>
      <point x="108" y="65"/>
      <point x="197" y="65" type="curve" smooth="yes"/>
      <point x="256" y="65"/>
      <point x="310" y="100"/>
      <point x="320" y="172" type="curve" smooth="yes"/>
      <point x="321" y="176"/>
      <point x="323" y="179"/>
      <point x="323" y="183" type="curve" smooth="yes"/>
      <point x="323" y="253"/>
      <point x="281" y="312"/>
      <point x="205" y="312" type="curve" smooth="yes"/>
      <point x="168" y="312"/>
      <point x="141" y="301"/>
      <point x="118" y="286" type="curve"/>
      <point x="118" y="286"/>
      <point x="141" y="238"/>
      <point x="141" y="238" type="curve" smooth="yes"/>
      <point x="141" y="238"/>
      <point x="171" y="259"/>
      <point x="200" y="259" type="curve" smooth="yes"/>
    </contour>
    <contour>
      <point x="429" y="237" type="line"/>
      <point x="416" y="226"/>
      <point x="397" y="210"/>
      <point x="359" y="210" type="curve" smooth="yes"/>
      <point x="324" y="210"/>
      <point x="317" y="216"/>
      <point x="291" y="229" type="curve"/>
      <point x="287" y="174" type="line"/>
      <point x="313" y="166"/>
      <point x="332" y="160"/>
      <point x="359" y="160" type="curve" smooth="yes"/>
      <point x="412" y="160"/>
      <point x="446" y="186"/>
      <point x="462" y="199" type="curve"/>
    </contour>
    <component base="jhadeva" xOffset="371"/>
    <contour>
      <point x="832" y="447" type="move" name="top"/>
    </contour>
    <contour>
      <point x="833" y="5" type="move" name="bottom"/>
    </contour>
  </outline>
</glyph>
<glyph name="uni091F094D" format="1">
  <advance width="390"/>
  <outline>
    <contour>
      <point x="259" y="-32"/>
      <point x="303" y="-95"/>
      <point x="343" y="-145" type="curve"/>
      <point x="343" y="-145"/>
      <point x="301" y="-180"/>
      <point x="301" y="-180" type="curve"/>
      <point x="242" y="-99"/>
      <point x="197" y="-84"/>
      <point x="118" y="-84" type="curve"/>
      <point x="118" y="-32" type="line"/>
    </contour>
    <component base="ttadeva"/>
  </outline>
</glyph>
<glyph name="uni091F094D_radeva" format="1">
  <advance width="390"/>
  <outline>
    <component base="ttadeva"/>
    <component base="rashtra-deva" xOffset="68"/>
    <contour>
      <point x="287" y="447" type="move" name="top"/>
    </contour>
    <contour>
      <point x="216" y="-145" type="move" name="bottom"/>
    </contour>
  </outline>
</glyph>
<glyph name="uni0920094D_radeva" format="1">
  <advance width="430"/>
  <outline>
    <component base="tthadeva"/>
    <component base="rashtra-deva" xOffset="74"/>
    <contour>
      <point x="287" y="447" type="move" name="top"/>
    </contour>
    <contour>
      <point x="216" y="-145" type="move" name="bottom"/>
    </contour>
  </outline>
</glyph>
<glyph name="uni0921094D_radeva" format="1">
  <advance width="405"/>
  <outline>
    <contour>
      <point x="85" y="-100" type="line"/>
      <point x="117" y="-137" type="line"/>
      <point x="207" y="-71" type="line"/>
      <point x="297" y="-137" type="line"/>
      <point x="329" y="-100" type="line"/>
      <point x="221" y="-21" type="line"/>
      <point x="193" y="-21" type="line"/>
    </contour>
    <component base="ddadeva"/>
    <contour>
      <point x="302" y="447" type="move" name="top"/>
    </contour>
    <contour>
      <point x="215" y="-145" type="move" name="bottom"/>
    </contour>
  </outline>
</glyph>
<glyph name="uni0922094D" format="1">
  <advance width="396"/>
  <outline>
    <contour>
      <point x="269" y="-32"/>
      <point x="313" y="-95"/>
      <point x="353" y="-145" type="curve"/>
      <point x="353" y="-145"/>
      <point x="311" y="-180"/>
      <point x="311" y="-180" type="curve"/>
      <point x="252" y="-99"/>
      <point x="207" y="-84"/>
      <point x="128" y="-84" type="curve"/>
      <point x="128" y="-32" type="line"/>
    </contour>
    <component base="ddhadeva"/>
  </outline>
</glyph>
<glyph name="uni0922094D_radeva" format="1">
  <advance width="396"/>
  <outline>
    <component base="ddhadeva"/>
    <component base="rashtra-deva" xOffset="78"/>
    <contour>
      <point x="287" y="447" type="move" name="top"/>
    </contour>
    <contour>
      <point x="216" y="-145" type="move" name="bottom"/>
    </contour>
  </outline>
</glyph>
<glyph name="uni0924094D0928094D092F" format="1">
  <advance width="688"/>
  <outline>
    <contour>
      <point x="-24" y="456" type="line"/>
      <point x="-24" y="408" type="line"/>
      <point x="263" y="408" type="line"/>
      <point x="263" y="456" type="line"/>
    </contour>
    <contour>
      <point x="285" y="253"/>
      <point x="252" y="286"/>
      <point x="186" y="286" type="curve"/>
      <point x="99" y="286"/>
      <point x="44" y="240"/>
      <point x="44" y="169" type="curve" smooth="yes"/>
      <point x="44" y="114"/>
      <point x="89" y="43"/>
      <point x="123" y="-15" type="curve"/>
      <point x="170" y="12" type="line"/>
      <point x="151" y="43"/>
      <point x="101" y="121"/>
      <point x="101" y="164" type="curve" smooth="yes"/>
      <point x="101" y="207"/>
      <point x="132" y="231"/>
      <point x="189" y="231" type="curve"/>
      <point x="229" y="231"/>
      <point x="258" y="206"/>
      <point x="295" y="173" type="curve"/>
      <point x="329" y="222" type="line"/>
    </contour>
    <contour>
      <point x="558" y="0" type="line"/>
      <point x="614" y="0" type="line"/>
      <point x="614" y="456" type="line"/>
      <point x="558" y="456" type="line"/>
    </contour>
    <contour>
      <point x="219" y="456" type="line"/>
      <point x="219" y="408" type="line"/>
      <point x="712" y="408" type="line"/>
      <point x="712" y="456" type="line"/>
    </contour>
    <contour>
      <point x="555" y="163"/>
      <point x="502" y="142"/>
      <point x="451" y="142" type="curve" smooth="yes"/>
      <point x="410" y="142"/>
      <point x="373" y="160"/>
      <point x="348" y="187" type="curve"/>
      <point x="385" y="216"/>
      <point x="421" y="244"/>
      <point x="421" y="306" type="curve" smooth="yes"/>
      <point x="421" y="356"/>
      <point x="393" y="414"/>
      <point x="339" y="456" type="curve"/>
      <point x="269" y="456" type="line"/>
      <point x="329" y="414"/>
      <point x="366" y="356"/>
      <point x="366" y="307" type="curve" smooth="yes"/>
      <point x="366" y="258"/>
      <point x="320" y="235"/>
      <point x="288" y="218" type="curve"/>
      <point x="277" y="189" type="line"/>
      <point x="304" y="143"/>
      <point x="365" y="89"/>
      <point x="456" y="89" type="curve" smooth="yes"/>
      <point x="528" y="89"/>
      <point x="581" y="132"/>
      <point x="581" y="132" type="curve"/>
      <point x="581" y="208" type="line"/>
    </contour>
    <contour>
      <point x="203" y="91" type="line"/>
      <point x="203" y="91"/>
      <point x="380" y="219"/>
      <point x="380" y="219" type="curve"/>
      <point x="348" y="250" type="line"/>
      <point x="163" y="123" type="line"/>
    </contour>
    <contour>
      <point x="163" y="123" type="line"/>
      <point x="183" y="92" type="line"/>
      <point x="259" y="55" type="line"/>
      <point x="288" y="74" type="line"/>
      <point x="230" y="164" type="line"/>
    </contour>
    <contour>
      <point x="585" y="447" type="move" name="top"/>
    </contour>
    <contour>
      <point x="586" y="5" type="move" name="bottom"/>
    </contour>
  </outline>
</glyph>
<glyph name="uni0924094D0938094D" format="1">
  <advance width="535"/>
  <outline>
    <contour>
      <point x="-24" y="456" type="line"/>
      <point x="-24" y="408" type="line"/>
      <point x="273" y="408" type="line"/>
      <point x="273" y="456" type="line"/>
    </contour>
    <contour>
      <point x="182" y="277" type="line"/>
      <point x="89" y="277"/>
      <point x="44" y="240"/>
      <point x="44" y="163" type="curve" smooth="yes"/>
      <point x="44" y="114"/>
      <point x="89" y="43"/>
      <point x="123" y="-15" type="curve"/>
      <point x="170" y="11" type="line"/>
      <point x="152" y="42"/>
      <point x="101" y="118"/>
      <point x="101" y="164" type="curve" smooth="yes"/>
      <point x="101" y="207"/>
      <point x="128" y="221"/>
      <point x="188" y="221" type="curve"/>
      <point x="300" y="221" type="line"/>
      <point x="273" y="277" type="line"/>
    </contour>
    <contour>
      <point x="331" y="427"/>
      <point x="402" y="403"/>
      <point x="402" y="306" type="curve" smooth="yes"/>
      <point x="402" y="209"/>
      <point x="288" y="206"/>
      <point x="288" y="206" type="curve" smooth="yes"/>
      <point x="288" y="206"/>
      <point x="310" y="157"/>
      <point x="310" y="157" type="curve"/>
      <point x="349" y="157"/>
      <point x="456" y="191"/>
      <point x="456" y="304" type="curve" smooth="yes"/>
      <point x="456" y="412"/>
      <point x="383" y="443"/>
      <point x="383" y="443" type="curve"/>
      <point x="331" y="427" type="line"/>
    </contour>
    <contour>
      <point x="430" y="-18" type="line"/>
      <point x="430" y="-18"/>
      <point x="477" y="14"/>
      <point x="477" y="14" type="curve"/>
      <point x="273" y="277" type="line"/>
      <point x="236" y="235" type="line"/>
    </contour>
    <contour>
      <point x="210" y="456" type="line"/>
      <point x="210" y="408" type="line"/>
      <point x="559" y="408" type="line"/>
      <point x="559" y="456" type="line"/>
    </contour>
    <contour>
      <point x="609" y="223" type="line"/>
      <point x="590" y="217"/>
      <point x="559" y="211"/>
      <point x="515" y="211" type="curve" smooth="yes"/>
      <point x="479" y="211"/>
      <point x="423" y="215"/>
      <point x="377" y="234" type="curve"/>
      <point x="353" y="187" type="line"/>
      <point x="411" y="167"/>
      <point x="462" y="157"/>
      <point x="504" y="157" type="curve" smooth="yes"/>
      <point x="554" y="157"/>
      <point x="589" y="163"/>
      <point x="610" y="168" type="curve"/>
    </contour>
  </outline>
</glyph>
<glyph name="uni0924094D_tadeva" format="1">
  <advance width="463"/>
  <outline>
    <contour>
      <point x="333" y="0" type="line"/>
      <point x="389" y="0" type="line"/>
      <point x="389" y="456" type="line"/>
      <point x="333" y="456" type="line"/>
    </contour>
    <contour>
      <point x="-24" y="456" type="line"/>
      <point x="-24" y="408" type="line"/>
      <point x="487" y="408" type="line"/>
      <point x="487" y="456" type="line"/>
    </contour>
    <contour>
      <point x="6" y="241" type="line"/>
      <point x="264" y="241" type="line"/>
      <point x="264" y="297" type="line"/>
      <point x="6" y="297" type="line"/>
    </contour>
    <contour>
      <point x="360" y="297"/>
      <point x="302" y="297"/>
      <point x="218" y="297" type="curve" smooth="yes"/>
      <point x="125" y="297"/>
      <point x="80" y="260"/>
      <point x="80" y="177" type="curve" smooth="yes"/>
      <point x="80" y="114"/>
      <point x="125" y="43"/>
      <point x="159" y="-15" type="curve"/>
      <point x="206" y="11" type="line"/>
      <point x="188" y="42"/>
      <point x="137" y="128"/>
      <point x="137" y="175" type="curve" smooth="yes"/>
      <point x="137" y="227"/>
      <point x="164" y="241"/>
      <point x="224" y="241" type="curve"/>
      <point x="360" y="241" type="line"/>
      <point x="360" y="297" type="line"/>
    </contour>
    <contour>
      <point x="360" y="447" type="move" name="top"/>
    </contour>
    <contour>
      <point x="361" y="5" type="move" name="bottom"/>
    </contour>
  </outline>
</glyph>
<glyph name="uni0927094D0930094D" format="1">
  <advance width="283"/>
  <outline>
    <contour>
      <point x="262" y="456" type="line"/>
      <point x="262" y="408" type="line"/>
      <point x="292" y="408" type="line"/>
      <point x="292" y="456" type="line"/>
    </contour>
    <contour>
      <point x="50" y="288"/>
      <point x="111" y="246"/>
      <point x="127" y="234" type="curve"/>
      <point x="177" y="265" type="line"/>
      <point x="161" y="273"/>
      <point x="104" y="308"/>
      <point x="104" y="363" type="curve" smooth="yes"/>
      <point x="104" y="405"/>
      <point x="127" y="418"/>
      <point x="150" y="418" type="curve" smooth="yes"/>
      <point x="168" y="418"/>
      <point x="182" y="408"/>
      <point x="182" y="389" type="curve" smooth="yes"/>
      <point x="182" y="368"/>
      <point x="168" y="360"/>
      <point x="152" y="351" type="curve"/>
      <point x="177" y="311" type="line"/>
      <point x="219" y="331"/>
      <point x="232" y="357"/>
      <point x="232" y="390" type="curve" smooth="yes"/>
      <point x="232" y="433"/>
      <point x="201" y="466"/>
      <point x="144" y="466" type="curve" smooth="yes"/>
      <point x="86" y="466"/>
      <point x="50" y="426"/>
      <point x="50" y="363" type="curve" smooth="yes"/>
    </contour>
    <contour>
      <point x="365" y="162" type="line"/>
      <point x="343" y="144"/>
      <point x="308" y="121"/>
      <point x="239" y="121" type="curve" smooth="yes"/>
      <point x="196" y="121"/>
      <point x="149" y="130"/>
      <point x="149" y="171" type="curve" smooth="yes"/>
      <point x="149" y="210"/>
      <point x="197" y="223"/>
      <point x="264" y="233" type="curve"/>
      <point x="249" y="282" type="line"/>
      <point x="129" y="268"/>
      <point x="93" y="227"/>
      <point x="93" y="174" type="curve" smooth="yes"/>
      <point x="93" y="112"/>
      <point x="138" y="79"/>
      <point x="210" y="72" type="curve"/>
      <point x="86" y="17" type="line"/>
      <point x="122" y="-22" type="line"/>
      <point x="403" y="115" type="line"/>
    </contour>
  </outline>
</glyph>
<glyph name="uni0928094D" format="1">
  <advance width="244"/>
  <outline>
    <contour>
      <point x="-24" y="456" type="line"/>
      <point x="-24" y="408" type="line"/>
      <point x="268" y="408" type="line"/>
      <point x="268" y="456" type="line"/>
    </contour>
    <contour>
      <point x="34" y="251" type="line"/>
      <point x="34" y="214" type="line"/>
      <point x="98" y="112" type="line"/>
      <point x="138" y="112" type="line"/>
      <point x="138" y="251" type="line"/>
    </contour>
    <contour>
      <point x="91" y="251" type="line"/>
      <point x="91" y="203" type="line"/>
      <point x="311" y="203" type="line"/>
      <point x="311" y="251" type="line"/>
    </contour>
  </outline>
</glyph>
<glyph name="uni0928094D0924094D0930094D" format="1">
  <advance width="476"/>
  <outline>
    <contour>
      <point x="34" y="258" type="line"/>
      <point x="34" y="221" type="line"/>
      <point x="98" y="119" type="line"/>
      <point x="138" y="119" type="line"/>
      <point x="138" y="258" type="line"/>
    </contour>
    <contour>
      <point x="91" y="258" type="line"/>
      <point x="91" y="210" type="line"/>
      <point x="311" y="210" type="line"/>
      <point x="311" y="258" type="line"/>
    </contour>
    <contour>
      <point x="370" y="13" type="line"/>
      <point x="582" y="194" type="line"/>
      <point x="586" y="243" type="line"/>
      <point x="534" y="303"/>
      <point x="488" y="338"/>
      <point x="431" y="338" type="curve" smooth="yes"/>
      <point x="360" y="338"/>
      <point x="318" y="297"/>
      <point x="271" y="247" type="curve"/>
      <point x="311" y="210" type="line"/>
      <point x="345" y="245"/>
      <point x="383" y="286"/>
      <point x="429" y="284" type="curve"/>
      <point x="467" y="284"/>
      <point x="501" y="257"/>
      <point x="531" y="222" type="curve"/>
      <point x="332" y="53" type="line"/>
    </contour>
    <contour>
      <point x="-24" y="456" type="line"/>
      <point x="-24" y="408" type="line"/>
      <point x="500" y="408" type="line"/>
      <point x="500" y="456" type="line"/>
    </contour>
  </outline>
</glyph>
<glyph name="uni0928094D0930094D" format="1">
  <advance width="244"/>
  <outline>
    <contour>
      <point x="92" y="30"/>
      <point x="128" y="-9"/>
      <point x="128" y="-9" type="curve" smooth="yes"/>
      <point x="128" y="-9"/>
      <point x="323" y="163"/>
      <point x="323" y="163" type="curve"/>
      <point x="294" y="199" type="line"/>
      <point x="92" y="30" type="line"/>
    </contour>
    <contour>
      <point x="-24" y="456" type="line"/>
      <point x="-24" y="408" type="line"/>
      <point x="268" y="408" type="line"/>
      <point x="268" y="456" type="line"/>
    </contour>
    <contour>
      <point x="34" y="271" type="line"/>
      <point x="34" y="234" type="line"/>
      <point x="98" y="132" type="line"/>
      <point x="138" y="132" type="line"/>
      <point x="138" y="271" type="line"/>
    </contour>
    <contour>
      <point x="91" y="271" type="line"/>
      <point x="91" y="223" type="line"/>
      <point x="311" y="223" type="line"/>
      <point x="311" y="271" type="line"/>
    </contour>
  </outline>
</glyph>
<glyph name="uni0928094D0939094D_rvocalicvow" format="1">
  <advance width="615"/>
  <outline>
    <contour>
      <point x="-24" y="456" type="line" smooth="yes"/>
      <point x="-24" y="408" type="line" smooth="yes"/>
      <point x="268" y="408" type="line" smooth="yes"/>
      <point x="268" y="456" type="line" smooth="yes"/>
    </contour>
    <contour>
      <point x="34" y="251" type="line" smooth="yes"/>
      <point x="34" y="214" type="line" smooth="yes"/>
      <point x="98" y="112" type="line" smooth="yes"/>
      <point x="138" y="112" type="line" smooth="yes"/>
      <point x="138" y="251" type="line" smooth="yes"/>
    </contour>
    <contour>
      <point x="91" y="251" type="line" smooth="yes"/>
      <point x="91" y="203" type="line" smooth="yes"/>
      <point x="311" y="203" type="line" smooth="yes"/>
      <point x="311" y="251" type="line" smooth="yes"/>
    </contour>
    <component base="uni0939094D_rvocalicvowelsignde" xOffset="220"/>
    <contour>
      <point x="500" y="447" type="move" name="top"/>
    </contour>
  </outline>
</glyph>
<glyph name="uni0928094D_cadeva" format="1">
  <advance width="680"/>
  <outline>
    <contour>
      <point x="-24" y="456" type="line"/>
      <point x="-24" y="408" type="line"/>
      <point x="238" y="408" type="line"/>
      <point x="238" y="456" type="line"/>
    </contour>
    <contour>
      <point x="34" y="301" type="line"/>
      <point x="34" y="264" type="line"/>
      <point x="98" y="162" type="line"/>
      <point x="138" y="162" type="line"/>
      <point x="138" y="301" type="line"/>
    </contour>
    <contour>
      <point x="91" y="301" type="line"/>
      <point x="91" y="253" type="line"/>
      <point x="281" y="253" type="line"/>
      <point x="281" y="301" type="line"/>
    </contour>
    <contour>
      <point x="550" y="0" type="line"/>
      <point x="606" y="0" type="line"/>
      <point x="606" y="456" type="line"/>
      <point x="550" y="456" type="line"/>
    </contour>
    <contour>
      <point x="186" y="456" type="line"/>
      <point x="186" y="408" type="line"/>
      <point x="704" y="408" type="line"/>
      <point x="704" y="456" type="line"/>
    </contour>
    <contour>
      <point x="572" y="187"/>
      <point x="532" y="130"/>
      <point x="448" y="130" type="curve" smooth="yes"/>
      <point x="394" y="130"/>
      <point x="353" y="155"/>
      <point x="353" y="200" type="curve" smooth="yes"/>
      <point x="353" y="261"/>
      <point x="415" y="271"/>
      <point x="415" y="271" type="curve" smooth="yes"/>
      <point x="334" y="271" type="line" smooth="yes"/>
      <point x="334" y="271"/>
      <point x="297" y="259"/>
      <point x="297" y="194" type="curve" smooth="yes"/>
      <point x="297" y="133"/>
      <point x="349" y="78"/>
      <point x="447" y="78" type="curve" smooth="yes"/>
      <point x="524" y="78"/>
      <point x="562" y="112"/>
      <point x="583" y="130" type="curve"/>
      <point x="583" y="200" type="line"/>
    </contour>
    <contour>
      <point x="231" y="301" type="line"/>
      <point x="231" y="253" type="line"/>
      <point x="463" y="253" type="line"/>
      <point x="463" y="301" type="line"/>
    </contour>
    <contour>
      <point x="577" y="447" type="move" name="top"/>
    </contour>
    <contour>
      <point x="578" y="5" type="move" name="bottom"/>
    </contour>
  </outline>
</glyph>
<glyph name="uni0928094D_ddadeva" format="1">
  <advance width="605"/>
  <outline>
    <contour>
      <point x="-24" y="456" type="line"/>
      <point x="-24" y="408" type="line"/>
      <point x="268" y="408" type="line"/>
      <point x="268" y="456" type="line"/>
    </contour>
    <contour>
      <point x="34" y="271" type="line"/>
      <point x="34" y="234" type="line"/>
      <point x="98" y="132" type="line"/>
      <point x="138" y="132" type="line"/>
      <point x="138" y="271" type="line"/>
    </contour>
    <contour>
      <point x="91" y="271" type="line"/>
      <point x="91" y="223" type="line"/>
      <point x="311" y="223" type="line"/>
      <point x="311" y="271" type="line"/>
    </contour>
    <component base="ddadeva" xOffset="200"/>
  </outline>
</glyph>
<glyph name="uni0928094D_nadeva" format="1">
  <advance width="443"/>
  <outline>
    <contour>
      <point x="467" y="408" type="line"/>
      <point x="-24" y="408" type="line"/>
      <point x="-24" y="456" type="line"/>
      <point x="467" y="456" type="line"/>
    </contour>
    <contour>
      <point x="369" y="456" type="line"/>
      <point x="369" y="0" type="line"/>
      <point x="313" y="0" type="line"/>
      <point x="313" y="456" type="line"/>
    </contour>
    <contour>
      <point x="298" y="239" type="line"/>
      <point x="333" y="198" type="line"/>
      <point x="333" y="198"/>
      <point x="110" y="48"/>
      <point x="110" y="48" type="curve" smooth="yes"/>
      <point x="110" y="48"/>
      <point x="72" y="88"/>
      <point x="72" y="88" type="curve"/>
    </contour>
    <contour>
      <point x="213" y="28" type="line"/>
      <point x="184" y="10" type="line"/>
      <point x="85" y="52" type="line"/>
      <point x="64" y="83" type="line"/>
      <point x="139" y="133" type="line"/>
    </contour>
    <contour>
      <point x="105" y="180" type="line"/>
      <point x="73" y="190" type="line"/>
      <point x="43" y="305" type="line"/>
      <point x="54" y="340" type="line"/>
      <point x="144" y="310" type="line"/>
    </contour>
    <contour>
      <point x="321" y="201" type="line"/>
      <point x="77" y="283" type="line"/>
      <point x="90" y="328" type="line"/>
      <point x="345" y="245" type="line"/>
    </contour>
    <contour>
      <point x="340" y="447" type="move" name="top"/>
    </contour>
    <contour>
      <point x="341" y="5" type="move" name="bottom"/>
    </contour>
  </outline>
</glyph>
<glyph name="uni0928094D_sadeva" format="1">
  <advance width="754"/>
  <outline>
    <contour>
      <point x="-24" y="456" type="line"/>
      <point x="-24" y="408" type="line"/>
      <point x="264" y="408" type="line"/>
      <point x="264" y="456" type="line"/>
    </contour>
    <contour>
      <point x="34" y="244" type="line"/>
      <point x="34" y="207" type="line"/>
      <point x="98" y="105" type="line"/>
      <point x="138" y="105" type="line"/>
      <point x="138" y="244" type="line"/>
    </contour>
    <contour>
      <point x="91" y="244" type="line"/>
      <point x="91" y="196" type="line"/>
      <point x="294" y="196" type="line"/>
      <point x="294" y="244" type="line"/>
    </contour>
    <component base="sadeva" xOffset="239"/>
    <contour>
      <point x="651" y="447" type="move" name="top"/>
    </contour>
    <contour>
      <point x="652" y="5" type="move" name="bottom"/>
    </contour>
  </outline>
</glyph>
<glyph name="uni0928094D_thadeva" format="1">
  <advance width="697"/>
  <outline>
    <contour>
      <point x="-24" y="456" type="line"/>
      <point x="-24" y="408" type="line"/>
      <point x="233" y="408" type="line"/>
      <point x="233" y="456" type="line"/>
    </contour>
    <contour>
      <point x="34" y="224" type="line"/>
      <point x="34" y="187" type="line"/>
      <point x="98" y="85" type="line"/>
      <point x="138" y="85" type="line"/>
      <point x="138" y="224" type="line"/>
    </contour>
    <contour>
      <point x="91" y="224" type="line"/>
      <point x="91" y="176" type="line"/>
      <point x="316" y="176" type="line"/>
      <point x="316" y="224" type="line"/>
    </contour>
    <contour>
      <point x="567" y="0" type="line"/>
      <point x="623" y="0" type="line"/>
      <point x="623" y="456" type="line"/>
      <point x="567" y="456" type="line"/>
    </contour>
    <contour>
      <point x="497" y="456" type="line"/>
      <point x="497" y="408" type="line"/>
      <point x="721" y="408" type="line"/>
      <point x="721" y="456" type="line"/>
    </contour>
    <contour>
      <point x="461" y="402"/>
      <point x="430" y="467"/>
      <point x="358" y="467" type="curve" smooth="yes"/>
      <point x="313" y="467"/>
      <point x="263" y="436"/>
      <point x="263" y="379" type="curve" smooth="yes"/>
      <point x="263" y="340"/>
      <point x="286" y="302"/>
      <point x="335" y="279" type="curve"/>
      <point x="364" y="321" type="line"/>
      <point x="340" y="335"/>
      <point x="317" y="351"/>
      <point x="317" y="379" type="curve" smooth="yes"/>
      <point x="317" y="399"/>
      <point x="337" y="414"/>
      <point x="356" y="414" type="curve" smooth="yes"/>
      <point x="391" y="414"/>
      <point x="409" y="380"/>
      <point x="409" y="342" type="curve" smooth="yes"/>
      <point x="409" y="269"/>
      <point x="316" y="230"/>
      <point x="284" y="213" type="curve"/>
      <point x="273" y="182" type="line"/>
      <point x="300" y="136"/>
      <point x="361" y="84"/>
      <point x="452" y="84" type="curve" smooth="yes"/>
      <point x="524" y="84"/>
      <point x="577" y="124"/>
      <point x="577" y="127" type="curve"/>
      <point x="577" y="197" type="line"/>
      <point x="551" y="160"/>
      <point x="498" y="138"/>
      <point x="447" y="138" type="curve" smooth="yes"/>
      <point x="406" y="138"/>
      <point x="365" y="153"/>
      <point x="340" y="183" type="curve"/>
      <point x="378" y="211"/>
      <point x="461" y="253"/>
      <point x="461" y="342" type="curve" smooth="yes"/>
    </contour>
    <contour>
      <point x="594" y="447" type="move" name="top"/>
    </contour>
    <contour>
      <point x="595" y="5" type="move" name="bottom"/>
    </contour>
  </outline>
</glyph>
<glyph name="uni092B094D" format="1">
  <advance width="423"/>
  <outline>
    <contour>
      <point x="294" y="0" type="line"/>
      <point x="347" y="0" type="line"/>
      <point x="347" y="456" type="line"/>
      <point x="294" y="456" type="line"/>
    </contour>
    <contour>
      <point x="-24" y="456" type="line"/>
      <point x="-24" y="408" type="line"/>
      <point x="447" y="408" type="line"/>
      <point x="447" y="456" type="line"/>
    </contour>
    <contour>
      <point x="343" y="190"/>
      <point x="274" y="153"/>
      <point x="200" y="153" type="curve" smooth="yes"/>
      <point x="146" y="153"/>
      <point x="114" y="188"/>
      <point x="114" y="244" type="curve" smooth="yes"/>
      <point x="114" y="456" type="line"/>
      <point x="58" y="456" type="line"/>
      <point x="58" y="244" type="line" smooth="yes"/>
      <point x="58" y="164"/>
      <point x="102" y="103"/>
      <point x="202" y="103" type="curve" smooth="yes"/>
      <point x="265" y="103"/>
      <point x="343" y="133"/>
      <point x="343" y="133" type="curve"/>
      <point x="343" y="190" type="line"/>
    </contour>
    <contour>
      <point x="560" y="269" type="line"/>
      <point x="521" y="315"/>
      <point x="481" y="333"/>
      <point x="424" y="333" type="curve" smooth="yes"/>
      <point x="372" y="333"/>
      <point x="321" y="296"/>
      <point x="294" y="278" type="curve"/>
      <point x="308" y="227" type="line"/>
      <point x="324" y="239"/>
      <point x="377" y="282"/>
      <point x="428" y="282" type="curve" smooth="yes"/>
      <point x="479" y="282"/>
      <point x="505" y="255"/>
      <point x="529" y="222" type="curve"/>
    </contour>
  </outline>
</glyph>
<glyph name="uni092B094D0930094D" format="1">
  <advance width="423"/>
  <outline>
    <contour>
      <point x="343" y="194"/>
      <point x="274" y="157"/>
      <point x="200" y="157" type="curve" smooth="yes"/>
      <point x="146" y="157"/>
      <point x="114" y="192"/>
      <point x="114" y="248" type="curve" smooth="yes"/>
      <point x="114" y="456" type="line"/>
      <point x="58" y="456" type="line"/>
      <point x="58" y="248" type="line" smooth="yes"/>
      <point x="58" y="168"/>
      <point x="102" y="109"/>
      <point x="202" y="109" type="curve" smooth="yes"/>
      <point x="265" y="109"/>
      <point x="343" y="137"/>
      <point x="343" y="137" type="curve"/>
      <point x="343" y="194" type="line"/>
    </contour>
    <contour>
      <point x="62" y="30"/>
      <point x="98" y="-9"/>
      <point x="98" y="-9" type="curve" smooth="yes"/>
      <point x="98" y="-9"/>
      <point x="327" y="137"/>
      <point x="327" y="137" type="curve"/>
      <point x="298" y="175" type="line"/>
      <point x="62" y="30" type="line"/>
    </contour>
    <contour>
      <point x="294" y="0" type="line"/>
      <point x="347" y="0" type="line"/>
      <point x="347" y="456" type="line"/>
      <point x="294" y="456" type="line"/>
    </contour>
    <contour>
      <point x="-24" y="456" type="line"/>
      <point x="-24" y="408" type="line"/>
      <point x="447" y="408" type="line"/>
      <point x="447" y="456" type="line"/>
    </contour>
    <contour>
      <point x="560" y="269" type="line"/>
      <point x="521" y="315"/>
      <point x="481" y="333"/>
      <point x="424" y="333" type="curve" smooth="yes"/>
      <point x="372" y="333"/>
      <point x="321" y="296"/>
      <point x="294" y="278" type="curve"/>
      <point x="308" y="227" type="line"/>
      <point x="324" y="239"/>
      <point x="377" y="282"/>
      <point x="428" y="282" type="curve" smooth="yes"/>
      <point x="479" y="282"/>
      <point x="505" y="255"/>
      <point x="529" y="222" type="curve"/>
    </contour>
  </outline>
</glyph>
<glyph name="uni092C094D_radeva" format="1">
  <advance width="416"/>
  <outline>
    <contour>
      <point x="286" y="0" type="line"/>
      <point x="342" y="0" type="line"/>
      <point x="342" y="456" type="line"/>
      <point x="286" y="456" type="line"/>
    </contour>
    <contour>
      <point x="-24" y="456" type="line"/>
      <point x="-24" y="408" type="line"/>
      <point x="440" y="408" type="line"/>
      <point x="440" y="456" type="line"/>
    </contour>
    <contour>
      <point x="81" y="268"/>
      <point x="130" y="295"/>
      <point x="184" y="295" type="curve" smooth="yes"/>
      <point x="236" y="295"/>
      <point x="272" y="273"/>
      <point x="288" y="261" type="curve"/>
      <point x="302" y="311" type="line"/>
      <point x="275" y="329"/>
      <point x="230" y="345"/>
      <point x="180" y="345" type="curve" smooth="yes"/>
      <point x="102" y="345"/>
      <point x="30" y="296"/>
      <point x="30" y="205" type="curve" smooth="yes"/>
      <point x="30" y="114"/>
      <point x="93" y="71"/>
      <point x="180" y="71" type="curve" smooth="yes"/>
      <point x="232" y="71"/>
      <point x="275" y="83"/>
      <point x="302" y="100" type="curve"/>
      <point x="288" y="152" type="line"/>
      <point x="272" y="140"/>
      <point x="236" y="117"/>
      <point x="184" y="117" type="curve" smooth="yes"/>
      <point x="130" y="117"/>
      <point x="81" y="142"/>
      <point x="81" y="205" type="curve" smooth="yes"/>
    </contour>
    <contour>
      <point x="85" y="279"/>
      <point x="273" y="99"/>
      <point x="273" y="99" type="curve" smooth="yes"/>
      <point x="273" y="99"/>
      <point x="308" y="131"/>
      <point x="308" y="131" type="curve"/>
      <point x="123" y="307" type="line"/>
      <point x="85" y="279" type="line"/>
    </contour>
    <contour>
      <point x="42" y="20"/>
      <point x="78" y="-19"/>
      <point x="78" y="-19" type="curve" smooth="yes"/>
      <point x="78" y="-19"/>
      <point x="307" y="103"/>
      <point x="307" y="103" type="curve"/>
      <point x="278" y="133" type="line"/>
      <point x="42" y="20" type="line"/>
    </contour>
    <contour>
      <point x="313" y="447" type="move" name="top"/>
    </contour>
    <contour>
      <point x="314" y="5" type="move" name="bottom"/>
    </contour>
  </outline>
</glyph>
<glyph name="uni092E094D" format="1">
  <advance width="249"/>
  <outline>
    <contour>
      <point x="96" y="150" type="line"/>
      <point x="151" y="150" type="line"/>
      <point x="151" y="456" type="line"/>
      <point x="96" y="456" type="line"/>
    </contour>
    <contour>
      <point x="-24" y="456" type="line"/>
      <point x="-24" y="408" type="line"/>
      <point x="273" y="408" type="line"/>
      <point x="273" y="456" type="line"/>
    </contour>
    <contour>
      <point x="34" y="214" type="line"/>
      <point x="34" y="181" type="line"/>
      <point x="113" y="86" type="line"/>
      <point x="113" y="86"/>
      <point x="151" y="86"/>
      <point x="151" y="86" type="curve"/>
      <point x="151" y="214" type="line"/>
    </contour>
    <contour>
      <point x="119" y="214" type="line"/>
      <point x="119" y="166" type="line"/>
      <point x="329" y="166" type="line"/>
      <point x="329" y="214" type="line"/>
    </contour>
  </outline>
</glyph>
<glyph name="uni092E094D0939094D_rvocalicvow" format="1">
  <advance width="659"/>
  <outline>
    <contour>
      <point x="96" y="155" type="line"/>
      <point x="151" y="155" type="line"/>
      <point x="151" y="456" type="line"/>
      <point x="96" y="456" type="line"/>
    </contour>
    <contour>
      <point x="-24" y="456" type="line"/>
      <point x="-24" y="408" type="line"/>
      <point x="293" y="408" type="line"/>
      <point x="293" y="456" type="line"/>
    </contour>
    <contour>
      <point x="34" y="219" type="line"/>
      <point x="34" y="186" type="line"/>
      <point x="113" y="91" type="line"/>
      <point x="113" y="91"/>
      <point x="151" y="91"/>
      <point x="151" y="91" type="curve"/>
      <point x="151" y="219" type="line"/>
    </contour>
    <contour>
      <point x="119" y="219" type="line"/>
      <point x="119" y="171" type="line"/>
      <point x="379" y="171" type="line"/>
      <point x="379" y="219" type="line"/>
    </contour>
    <component base="uni0939094D_rvocalicvowelsignde" xOffset="265"/>
    <contour>
      <point x="544" y="447" type="move" name="top"/>
    </contour>
  </outline>
</glyph>
